{
.appVersion = "3095";
customParameters = (
{
name = Axes;
value = (
{
Name = Weight;
Tag = wght;
}
);
}
);
date = "2021-04-02 20:56:08 +0000";
familyName = "Blueberry Sans";
fontMaster = (
{
alignmentZones = (
"{800, 12}",
"{700, 12}",
"{500, 12}",
"{0, -12}",
"{-250, -12}"
);
ascender = 800;
capHeight = 700;
descender = -250;
id = m01;
userData = {
GSCornerRadius = 15;
GSExtrudeAngle = 30;
GSExtrudeOffset = 15;
GSOffsetAutoStroke = 1;
GSOffsetHorizontal = 30;
GSOffsetMakeStroke = 1;
GSOffsetVertical = 28;
};
weight = Light;
weightValue = 300;
xHeight = 500;
},
{
alignmentZones = (
"{800, 12}",
"{700, 12}",
"{500, 12}",
"{0, -12}",
"{-250, -12}"
);
ascender = 800;
capHeight = 700;
custom = Black;
descender = -250;
iconName = Bold;
id = "747A0BA5-337F-45E8-9896-B2CAF0968805";
userData = {
GSOffsetAutoStroke = 1;
GSOffsetCapStyle = 4;
GSOffsetHorizontal = 60;
GSOffsetMakeStroke = 1;
GSOffsetVertical = 55;
};
weightValue = 900;
xHeight = 500;
}
);
glyphs = (
{
glyphname = A;
lastChange = "2021-08-11 21:25:57 +0000";
layers = (
{
anchors = (
{
name = bottom;
position = "{331, 0}";
},
{
name = ogonek;
position = "{596, 10}";
},
{
name = top;
position = "{331, 660}";
}
);
layerId = m01;
paths = (
{
closed = 1;
nodes = (
"78 0 LINE",
"364 700 LINE",
"298 700 LINE",
"10 0 LINE"
);
},
{
closed = 1;
nodes = (
"652 0 LINE",
"364 700 LINE",
"298 700 LINE",
"584 0 LINE"
);
},
{
closed = 1;
nodes = (
"516 217 LINE",
"516 275 LINE",
"146 275 LINE",
"146 217 LINE"
);
}
);
width = 662;
},
{
anchors = (
{
name = bottom;
position = "{375, 0}";
},
{
name = ogonek;
position = "{682, 10}";
},
{
name = top;
position = "{375, 700}";
}
);
layerId = "747A0BA5-337F-45E8-9896-B2CAF0968805";
paths = (
{
closed = 1;
nodes = (
"205 0 LINE",
"461 700 LINE",
"273 700 LINE",
"5 0 LINE"
);
},
{
closed = 1;
nodes = (
"744 0 LINE",
"476 700 LINE",
"288 700 LINE",
"544 0 LINE"
);
},
{
closed = 1;
nodes = (
"617 112 LINE",
"617 275 LINE",
"133 275 LINE",
"133 112 LINE"
);
}
);
width = 749;
}
);
unicode = 0041;
},
{
glyphname = B;
lastChange = "2021-08-02 04:21:10 +0000";
layers = (
{
background = {
paths = (
{
closed = 1;
nodes = (
"164 0 LINE",
"164 700 LINE",
"100 700 LINE",
"100 0 LINE"
);
},
{
closed = 1;
nodes = (
"164 385 LINE",
"164 326 LINE",
"312 326 LINE",
"455 326 OFFCURVE",
"540 395 OFFCURVE",
"540 513 CURVE",
"540 631 OFFCURVE",
"456 701 OFFCURVE",
"315 701 CURVE",
"164 700 LINE",
"164 642 LINE",
"315 642 LINE",
"417 643 OFFCURVE",
"477 595 OFFCURVE",
"477 513 CURVE",
"477 433 OFFCURVE",
"427 385 OFFCURVE",
"342 385 CURVE",
"164 385 LINE",
"164 326 LINE"
);
},
{
closed = 1;
nodes = (
"164 59 LINE",
"164 0 LINE",
"342 0 LINE",
"479 0 OFFCURVE",
"560 69 OFFCURVE",
"560 187 CURVE",
"560 311 OFFCURVE",
"458 385 OFFCURVE",
"285 385 CURVE",
"164 384 LINE",
"164 326 LINE",
"315 326 LINE",
"429 327 OFFCURVE",
"497 275 OFFCURVE",
"497 187 CURVE",
"497 107 OFFCURVE",
"439 59 OFFCURVE",
"342 59 CURVE",
"164 59 LINE",
"164 0 LINE"
);
}
);
};
layerId = m01;
paths = (
{
closed = 1;
nodes = (
"342 0 LINE SMOOTH",
"479 0 OFFCURVE",
"560 69 OFFCURVE",
"560 187 CURVE SMOOTH",
"560 311 OFFCURVE",
"458 385 OFFCURVE",
"285 385 CURVE SMOOTH",
"164 384 LINE",
"164 326 LINE",
"315 326 LINE SMOOTH",
"429 327 OFFCURVE",
"497 275 OFFCURVE",
"497 187 CURVE SMOOTH",
"497 107 OFFCURVE",
"439 59 OFFCURVE",
"342 59 CURVE SMOOTH",
"164 59 LINE",
"164 0 LINE"
);
},
{
closed = 1;
nodes = (
"164 0 LINE",
"164 700 LINE",
"100 700 LINE",
"100 0 LINE"
);
},
{
closed = 1;
nodes = (
"312 326 LINE SMOOTH",
"455 326 OFFCURVE",
"540 395 OFFCURVE",
"540 513 CURVE SMOOTH",
"540 631 OFFCURVE",
"456 701 OFFCURVE",
"315 701 CURVE SMOOTH",
"164 700 LINE",
"164 642 LINE",
"315 642 LINE SMOOTH",
"417 643 OFFCURVE",
"477 595 OFFCURVE",
"477 513 CURVE SMOOTH",
"477 433 OFFCURVE",
"427 385 OFFCURVE",
"342 385 CURVE SMOOTH",
"164 385 LINE",
"164 326 LINE"
);
}
);
width = 610;
},
{
layerId = "747A0BA5-337F-45E8-9896-B2CAF0968805";
paths = (
{
closed = 1;
nodes = (
"357 0 LINE SMOOTH",
"499 0 OFFCURVE",
"599 74 OFFCURVE",
"599 208 CURVE SMOOTH",
"599 371 OFFCURVE",
"450 421 OFFCURVE",
"240 421 CURVE",
"119 426 LINE",
"119 288 LINE",
"335 288 LINE SMOOTH",
"379 289 OFFCURVE",
"407 264 OFFCURVE",
"407 227 CURVE SMOOTH",
"407 190 OFFCURVE",
"379 163 OFFCURVE",
"335 163 CURVE SMOOTH",
"119 163 LINE",
"119 0 LINE"
);
},
{
closed = 1;
nodes = (
"250 0 LINE",
"250 700 LINE",
"70 700 LINE",
"70 0 LINE"
);
},
{
closed = 1;
nodes = (
"239 294 LINE",
"433 294 OFFCURVE",
"571 391 OFFCURVE",
"571 493 CURVE SMOOTH",
"571 635 OFFCURVE",
"468 701 OFFCURVE",
"322 701 CURVE SMOOTH",
"111 698 LINE",
"111 557 LINE",
"309 557 LINE SMOOTH",
"351 558 OFFCURVE",
"381 535 OFFCURVE",
"381 496 CURVE SMOOTH",
"381 457 OFFCURVE",
"351 435 OFFCURVE",
"309 435 CURVE SMOOTH",
"111 435 LINE",
"111 276 LINE"
);
}
);
width = 629;
}
);
leftMetricsKey = I;
rightMetricsKey = O;
unicode = 0042;
},
{
glyphname = C;
lastChange = "2021-08-02 04:21:10 +0000";
layers = (
{
layerId = m01;
paths = (
{
closed = 1;
nodes = (
"507 -16 OFFCURVE",
"627 59 OFFCURVE",
"679 166 CURVE",
"626 199 LINE",
"584 106 OFFCURVE",
"486 40 OFFCURVE",
"389 40 CURVE SMOOTH",
"228 40 OFFCURVE",
"114 168 OFFCURVE",
"114 350 CURVE SMOOTH",
"114 530 OFFCURVE",
"227 658 OFFCURVE",
"386 658 CURVE SMOOTH",
"481 658 OFFCURVE",
"579 598 OFFCURVE",
"622 513 CURVE",
"675 546 LINE",
"624 646 OFFCURVE",
"504 716 OFFCURVE",
"386 716 CURVE SMOOTH",
"189 716 OFFCURVE",
"50 564 OFFCURVE",
"50 350 CURVE SMOOTH",
"50 136 OFFCURVE",
"190 -16 OFFCURVE",
"389 -16 CURVE SMOOTH"
);
}
);
width = 719;
},
{
background = {
paths = (
{
closed = 1;
nodes = (
"623 -16 OFFCURVE",
"777 135 OFFCURVE",
"777 349 CURVE SMOOTH",
"777 563 OFFCURVE",
"622 715 OFFCURVE",
"403 715 CURVE SMOOTH",
"185 715 OFFCURVE",
"30 563 OFFCURVE",
"30 349 CURVE SMOOTH",
"30 135 OFFCURVE",
"185 -16 OFFCURVE",
"405 -16 CURVE SMOOTH"
);
},
{
closed = 1;
nodes = (
"300 159 OFFCURVE",
"225 238 OFFCURVE",
"225 349 CURVE SMOOTH",
"225 461 OFFCURVE",
"299 540 OFFCURVE",
"403 540 CURVE SMOOTH",
"508 540 OFFCURVE",
"582 461 OFFCURVE",
"582 349 CURVE SMOOTH",
"582 238 OFFCURVE",
"509 159 OFFCURVE",
"405 159 CURVE SMOOTH"
);
}
);
};
layerId = "747A0BA5-337F-45E8-9896-B2CAF0968805";
paths = (
{
closed = 1;
nodes = (
"550 -12 OFFCURVE",
"670 78 OFFCURVE",
"719 211 CURVE",
"539 269 LINE",
"509 205 OFFCURVE",
"467 163 OFFCURVE",
"391 163 CURVE SMOOTH",
"294 163 OFFCURVE",
"225 240 OFFCURVE",
"225 350 CURVE SMOOTH",
"225 460 OFFCURVE",
"293 537 OFFCURVE",
"388 537 CURVE SMOOTH",
"461 537 OFFCURVE",
"511 496 OFFCURVE",
"539 432 CURVE",
"718 490 LINE",
"668 622 OFFCURVE",
"549 712 OFFCURVE",
"388 712 CURVE SMOOTH",
"178 712 OFFCURVE",
"30 562 OFFCURVE",
"30 350 CURVE SMOOTH",
"30 138 OFFCURVE",
"178 -12 OFFCURVE",
"388 -12 CURVE SMOOTH"
);
}
);
width = 739;
}
);
leftKerningGroup = round_left_uppercase;
leftMetricsKey = O;
rightMetricsKey = "=O-10";
unicode = 0043;
},
{
glyphname = D;
lastChange = "2021-08-02 04:21:20 +0000";
layers = (
{
layerId = m01;
paths = (
{
closed = 1;
nodes = (
"498 0 OFFCURVE",
"633 145 OFFCURVE",
"633 350 CURVE SMOOTH",
"633 556 OFFCURVE",
"498 700 OFFCURVE",
"309 700 CURVE",
"309 642 LINE",
"453 642 OFFCURVE",
"569 511 OFFCURVE",
"569 350 CURVE SMOOTH",
"569 189 OFFCURVE",
"453 58 OFFCURVE",
"309 58 CURVE",
"309 0 LINE"
);
},
{
closed = 1;
nodes = (
"309 0 LINE",
"309 58 LINE",
"164 58 LINE",
"164 0 LINE"
);
},
{
closed = 1;
nodes = (
"164 0 LINE",
"164 700 LINE",
"100 700 LINE",
"100 0 LINE"
);
},
{
closed = 1;
nodes = (
"309 642 LINE",
"309 700 LINE",
"164 700 LINE",
"164 642 LINE"
);
}
);
width = 683;
},
{
layerId = "747A0BA5-337F-45E8-9896-B2CAF0968805";
paths = (
{
closed = 1;
nodes = (
"534 0 OFFCURVE",
"696 145 OFFCURVE",
"696 350 CURVE SMOOTH",
"696 555 OFFCURVE",
"534 700 OFFCURVE",
"304 700 CURVE",
"304 520 LINE",
"419 520 OFFCURVE",
"501 450 OFFCURVE",
"501 350 CURVE SMOOTH",
"501 250 OFFCURVE",
"419 180 OFFCURVE",
"304 180 CURVE",
"304 0 LINE"
);
},
{
closed = 1;
nodes = (
"304 0 LINE",
"304 180 LINE",
"159 180 LINE",
"159 0 LINE"
);
},
{
closed = 1;
nodes = (
"260 0 LINE",
"260 700 LINE",
"70 700 LINE",
"70 0 LINE"
);
},
{
closed = 1;
nodes = (
"304 520 LINE",
"304 700 LINE",
"159 700 LINE",
"159 520 LINE"
);
}
);
width = 726;
}
);
leftMetricsKey = I;
rightKerningGroup = round_right_uppercase;
rightMetricsKey = O;
unicode = 0044;
},
{
glyphname = E;
lastChange = "2021-08-11 21:25:51 +0000";
layers = (
{
anchors = (
{
name = bottom;
position = "{277, 0}";
},
{
name = ogonek;
position = "{498, 10}";
},
{
name = top;
position = "{277, 660}";
},
{
name = topleft;
position = "{20, 700}";
}
);
layerId = m01;
paths = (
{
closed = 1;
nodes = (
"164 0 LINE",
"164 700 LINE",
"100 700 LINE",
"100 0 LINE"
);
},
{
closed = 1;
nodes = (
"503 0 LINE",
"503 58 LINE",
"164 58 LINE",
"164 0 LINE"
);
},
{
closed = 1;
nodes = (
"479 332 LINE",
"479 390 LINE",
"164 390 LINE",
"164 332 LINE"
);
},
{
closed = 1;
nodes = (
"503 642 LINE",
"503 700 LINE",
"164 700 LINE",
"164 642 LINE"
);
}
);
width = 553;
},
{
anchors = (
{
name = bottom;
position = "{298, 0}";
},
{
name = ogonek;
position = "{536, 10}";
},
{
name = top;
position = "{298, 700}";
},
{
name = topleft;
position = "{20, 700}";
}
);
layerId = "747A0BA5-337F-45E8-9896-B2CAF0968805";
paths = (
{
closed = 1;
nodes = (
"260 0 LINE",
"260 700 LINE",
"70 700 LINE",
"70 0 LINE"
);
},
{
closed = 1;
nodes = (
"546 0 LINE",
"546 170 LINE",
"200 170 LINE",
"200 0 LINE"
);
},
{
closed = 1;
nodes = (
"485 268 LINE",
"485 433 LINE",
"200 433 LINE",
"200 268 LINE"
);
},
{
closed = 1;
nodes = (
"539 530 LINE",
"539 700 LINE",
"200 700 LINE",
"200 530 LINE"
);
}
);
width = 596;
}
);
leftMetricsKey = I;
unicode = 0045;
},
{
glyphname = F;
lastChange = "2021-08-02 04:21:10 +0000";
layers = (
{
layerId = m01;
paths = (
{
closed = 1;
nodes = (
"164 0 LINE",
"164 700 LINE",
"100 700 LINE",
"100 0 LINE"
);
},
{
closed = 1;
nodes = (
"469 317 LINE",
"469 375 LINE",
"164 375 LINE",
"164 317 LINE"
);
},
{
closed = 1;
nodes = (
"503 642 LINE",
"503 700 LINE",
"164 700 LINE",
"164 642 LINE"
);
}
);
width = 539;
},
{
layerId = "747A0BA5-337F-45E8-9896-B2CAF0968805";
paths = (
{
closed = 1;
nodes = (
"260 0 LINE",
"260 700 LINE",
"70 700 LINE",
"70 0 LINE"
);
},
{
closed = 1;
nodes = (
"485 258 LINE",
"485 428 LINE",
"210 428 LINE",
"210 258 LINE"
);
},
{
closed = 1;
nodes = (
"549 530 LINE",
"549 700 LINE",
"210 700 LINE",
"210 530 LINE"
);
}
);
width = 574;
}
);
leftMetricsKey = I;
unicode = 0046;
},
{
glyphname = G;
lastChange = "2021-08-02 04:24:34 +0000";
layers = (
{
layerId = m01;
paths = (
{
closed = 1;
nodes = (
"597 -13 OFFCURVE",
"727 113 OFFCURVE",
"727 290 CURVE",
"665 290 LINE",
"665 146 OFFCURVE",
"559 45 OFFCURVE",
"413 45 CURVE SMOOTH",
"238 45 OFFCURVE",
"114 171 OFFCURVE",
"114 349 CURVE SMOOTH",
"114 527 OFFCURVE",
"238 653 OFFCURVE",
"413 653 CURVE SMOOTH",
"501 653 OFFCURVE",
"595 604 OFFCURVE",
"639 534 CURVE",
"688 571 LINE",
"633 653 OFFCURVE",
"519 711 OFFCURVE",
"413 711 CURVE SMOOTH",
"200 711 OFFCURVE",
"50 561 OFFCURVE",
"50 349 CURVE SMOOTH",
"50 137 OFFCURVE",
"200 -13 OFFCURVE",
"413 -13 CURVE SMOOTH"
);
},
{
closed = 1;
nodes = (
"699 290 LINE",
"727 290 LINE",
"727 349 LINE",
"489 349 LINE",
"489 290 LINE"
);
}
);
width = 767;
},
{
layerId = "747A0BA5-337F-45E8-9896-B2CAF0968805";
paths = (
{
closed = 1;
nodes = (
"585 -12 OFFCURVE",
"717 93 OFFCURVE",
"717 306 CURVE",
"536 273 LINE",
"536 203 OFFCURVE",
"480 158 OFFCURVE",
"403 158 CURVE SMOOTH",
"293 158 OFFCURVE",
"225 238 OFFCURVE",
"225 350 CURVE SMOOTH",
"225 460 OFFCURVE",
"297 537 OFFCURVE",
"398 537 CURVE SMOOTH",
"448 537 OFFCURVE",
"502 507 OFFCURVE",
"529 464 CURVE",
"686 558 LINE",
"630 647 OFFCURVE",
"540 712 OFFCURVE",
"398 712 CURVE SMOOTH",
"182 712 OFFCURVE",
"30 562 OFFCURVE",
"30 350 CURVE SMOOTH",
"30 138 OFFCURVE",
"182 -12 OFFCURVE",
"398 -12 CURVE SMOOTH"
);
},
{
closed = 1;
nodes = (
"612 252 LINE",
"717 289 LINE",
"717 392 LINE",
"385 392 LINE",
"385 252 LINE"
);
}
);
width = 737;
}
);
leftKerningGroup = round_left_uppercase;
leftMetricsKey = O;
rightMetricsKey = "=O-10";
unicode = 0047;
},
{
glyphname = H;
lastChange = "2021-08-02 05:07:47 +0000";
layers = (
{
layerId = m01;
paths = (
{
closed = 1;
nodes = (
"164 0 LINE",
"164 700 LINE",
"100 700 LINE",
"100 0 LINE"
);
},
{
closed = 1;
nodes = (
"652 0 LINE",
"652 700 LINE",
"588 700 LINE",
"588 0 LINE"
);
},
{
closed = 1;
nodes = (
"588 332 LINE",
"588 390 LINE",
"164 390 LINE",
"164 332 LINE"
);
}
);
width = 752;
},
{
layerId = "747A0BA5-337F-45E8-9896-B2CAF0968805";
paths = (
{
closed = 1;
nodes = (
"260 -1 LINE",
"260 699 LINE",
"70 700 LINE",
"70 0 LINE"
);
},
{
closed = 1;
nodes = (
"698 0 LINE",
"698 700 LINE",
"508 700 LINE",
"508 0 LINE"
);
},
{
closed = 1;
nodes = (
"621 271 LINE",
"621 441 LINE",
"197 441 LINE",
"197 271 LINE"
);
}
);
width = 768;
}
);
leftMetricsKey = I;
rightMetricsKey = I;
unicode = 0048;
},
{
glyphname = I;
lastChange = "2021-08-11 21:25:42 +0000";
layers = (
{
anchors = (
{
name = bottom;
position = "{132, 0}";
},
{
name = ogonek;
position = "{238, 10}";
},
{
name = top;
position = "{132, 660}";
},
{
name = topleft;
position = "{20, 700}";
}
);
layerId = m01;
paths = (
{
closed = 1;
nodes = (
"164 0 LINE",
"164 700 LINE",
"100 700 LINE",
"100 0 LINE"
);
}
);
width = 264;
},
{
anchors = (
{
name = bottom;
position = "{165, 0}";
},
{
name = ogonek;
position = "{297, 10}";
},
{
name = top;
position = "{165, 700}";
},
{
name = topleft;
position = "{20, 700}";
}
);
layerId = "747A0BA5-337F-45E8-9896-B2CAF0968805";
paths = (
{
closed = 1;
nodes = (
"260 0 LINE",
"260 700 LINE",
"70 700 LINE",
"70 0 LINE"
);
}
);
width = 330;
}
);
unicode = 0049;
},
{
glyphname = J;
lastChange = "2021-08-02 04:21:10 +0000";
layers = (
{
layerId = m01;
paths = (
{
closed = 1;
nodes = (
"291 -11 OFFCURVE",
"410 61 OFFCURVE",
"410 212 CURVE SMOOTH",
"410 700 LINE",
"346 700 LINE",
"346 242 LINE SMOOTH",
"346 97 OFFCURVE",
"260 47 OFFCURVE",
"184 47 CURVE SMOOTH",
"123 47 OFFCURVE",
"80 83 OFFCURVE",
"51 130 CURVE",
"6 95 LINE",
"42 33 OFFCURVE",
"101 -11 OFFCURVE",
"184 -11 CURVE SMOOTH"
);
}
);
width = 500;
},
{
background = {
paths = (
{
closed = 1;
nodes = (
"185 271 LINE",
"185 700 LINE",
"-5 700 LINE",
"-5 271 LINE"
);
},
{
closed = 1;
nodes = (
"595 271 LINE",
"595 700 LINE",
"405 700 LINE",
"405 271 LINE"
);
},
{
closed = 1;
nodes = (
"405 204 OFFCURVE",
"364 165 OFFCURVE",
"295 165 CURVE SMOOTH",
"226 165 OFFCURVE",
"185 204 OFFCURVE",
"185 271 CURVE",
"-5 271 LINE",
"-5 94 OFFCURVE",
"106 -12 OFFCURVE",
"293 -12 CURVE SMOOTH",
"483 -12 OFFCURVE",
"595 94 OFFCURVE",
"595 271 CURVE",
"405 271 LINE"
);
}
);
};
layerId = "747A0BA5-337F-45E8-9896-B2CAF0968805";
paths = (
{
closed = 1;
nodes = (
"434 -16 OFFCURVE",
"537 77 OFFCURVE",
"537 209 CURVE SMOOTH",
"537 700 LINE",
"347 700 LINE",
"347 255 LINE SMOOTH",
"347 189 OFFCURVE",
"313 159 OFFCURVE",
"265 159 CURVE SMOOTH",
"217 159 OFFCURVE",
"188 192 OFFCURVE",
"183 255 CURVE",
"10 201 LINE",
"10 121 OFFCURVE",
"89 -16 OFFCURVE",
"263 -16 CURVE SMOOTH"
);
}
);
width = 597;
}
);
leftKerningGroup = round_left_uppercase;
rightMetricsKey = "=I-10";
unicode = 004A;
},
{
glyphname = K;
lastChange = "2021-08-02 04:21:10 +0000";
layers = (
{
layerId = m01;
paths = (
{
closed = 1;
nodes = (
"569 700 LINE",
"491 700 LINE",
"108 305 LINE",
"149 264 LINE"
);
},
{
closed = 1;
nodes = (
"160 0 LINE",
"160 700 LINE",
"100 700 LINE",
"100 0 LINE"
);
},
{
closed = 1;
nodes = (
"583 0 LINE",
"254 399 LINE",
"215 356 LINE",
"506 0 LINE"
);
}
);
width = 588;
},
{
layerId = "747A0BA5-337F-45E8-9896-B2CAF0968805";
paths = (
{
closed = 1;
nodes = (
"709 700 LINE",
"461 700 LINE",
"169 378 LINE",
"169 119 LINE"
);
},
{
closed = 1;
nodes = (
"260 0 LINE",
"260 700 LINE",
"70 700 LINE",
"70 0 LINE"
);
},
{
closed = 1;
nodes = (
"718 0 LINE",
"356 464 LINE",
"210 356 LINE",
"481 0 LINE"
);
}
);
width = 728;
}
);
leftMetricsKey = "=I";
unicode = 004B;
},
{
glyphname = L;
lastChange = "2021-08-02 04:21:10 +0000";
layers = (
{
layerId = m01;
paths = (
{
closed = 1;
nodes = (
"164 0 LINE",
"164 700 LINE",
"100 700 LINE",
"100 0 LINE"
);
},
{
closed = 1;
nodes = (
"503 0 LINE",
"503 58 LINE",
"164 58 LINE",
"164 0 LINE"
);
}
);
width = 513;
},
{
layerId = "747A0BA5-337F-45E8-9896-B2CAF0968805";
paths = (
{
closed = 1;
nodes = (
"260 0 LINE",
"260 700 LINE",
"70 700 LINE",
"70 0 LINE"
);
},
{
closed = 1;
nodes = (
"543 0 LINE",
"543 170 LINE",
"174 170 LINE",
"174 0 LINE"
);
}
);
width = 563;
}
);
leftMetricsKey = I;
unicode = 004C;
},
{
glyphname = M;
lastChange = "2021-08-11 05:54:02 +0000";
layers = (
{
layerId = m01;
paths = (
{
closed = 1;
nodes = (
"164 0 LINE",
"164 700 LINE",
"100 700 LINE",
"100 0 LINE"
);
},
{
closed = 1;
nodes = (
"451 275 LINE",
"164 700 LINE",
"139 681 LINE",
"116 663 LINE",
"420 211 LINE"
);
},
{
closed = 1;
nodes = (
"724 664 LINE",
"702 681 LINE",
"677 700 LINE",
"391 275 LINE",
"420 211 LINE"
);
},
{
closed = 1;
nodes = (
"741 0 LINE",
"741 700 LINE",
"677 700 LINE",
"677 0 LINE"
);
}
);
width = 841;
},
{
background = {
paths = (
{
closed = 1;
nodes = (
"260 700 LINE",
"212 663 LINE",
"516 211 LINE",
"547 275 LINE"
);
}
);
};
layerId = "747A0BA5-337F-45E8-9896-B2CAF0968805";
paths = (
{
closed = 1;
nodes = (
"260 0 LINE",
"260 700 LINE",
"70 700 LINE",
"70 0 LINE"
);
},
{
closed = 1;
nodes = (
"544 309 LINE",
"280 700 LINE",
"161 700 LINE",
"70 680 LINE",
"445 140 LINE"
);
},
{
closed = 1;
nodes = (
"818 683 LINE",
"729 700 LINE",
"608 700 LINE",
"344 309 LINE",
"445 140 LINE"
);
},
{
closed = 1;
nodes = (
"818 0 LINE",
"818 700 LINE",
"628 700 LINE",
"628 0 LINE"
);
}
);
width = 888;
}
);
leftMetricsKey = I;
rightMetricsKey = I;
unicode = 004D;
},
{
glyphname = N;
lastChange = "2021-08-11 21:50:37 +0000";
layers = (
{
anchors = (
{
name = bottom;
position = "{387, 0}";
},
{
name = top;
position = "{376, 670}";
}
);
layerId = m01;
paths = (
{
closed = 1;
nodes = (
"659 37 LINE",
"164 700 LINE",
"115 664 LINE",
"610 0 LINE"
);
},
{
closed = 1;
nodes = (
"164 0 LINE",
"164 654 LINE",
"164 700 LINE",
"100 700 LINE",
"100 0 LINE"
);
},
{
closed = 1;
nodes = (
"674 0 LINE",
"674 700 LINE",
"610 700 LINE",
"610 0 LINE"
);
}
);
width = 774;
},
{
anchors = (
{
name = bottom;
position = "{399, 0}";
},
{
name = top;
position = "{399, 680}";
}
);
layerId = "747A0BA5-337F-45E8-9896-B2CAF0968805";
paths = (
{
closed = 1;
nodes = (
"687 105 LINE",
"265 700 LINE",
"113 599 LINE",
"538 0 LINE"
);
},
{
closed = 1;
nodes = (
"260 -1 LINE",
"260 529 LINE",
"265 700 LINE",
"70 700 LINE",
"70 0 LINE"
);
},
{
closed = 1;
nodes = (
"728 0 LINE",
"728 700 LINE",
"538 700 LINE",
"538 0 LINE"
);
}
);
width = 798;
}
);
leftMetricsKey = I;
rightMetricsKey = I;
unicode = 004E;
},
{
glyphname = O;
lastChange = "2021-08-11 21:25:35 +0000";
layers = (
{
anchors = (
{
name = bottom;
position = "{386, 0}";
},
{
name = center;
position = "{386, 350}";
},
{
name = ogonek;
position = "{695, 10}";
},
{
name = top;
position = "{386, 670}";
},
{
name = topleft;
position = "{20, 700}";
},
{
name = topright;
position = "{752, 700}";
}
);
layerId = m01;
paths = (
{
closed = 1;
nodes = (
"584 -16 OFFCURVE",
"722 135 OFFCURVE",
"722 350 CURVE SMOOTH",
"722 564 OFFCURVE",
"584 716 OFFCURVE",
"386 716 CURVE SMOOTH",
"188 716 OFFCURVE",
"50 565 OFFCURVE",
"50 350 CURVE SMOOTH",
"50 135 OFFCURVE",
"191 -16 OFFCURVE",
"389 -16 CURVE SMOOTH"
);
},
{
closed = 1;
nodes = (
"228 42 OFFCURVE",
"114 170 OFFCURVE",
"114 350 CURVE SMOOTH",
"114 530 OFFCURVE",
"227 658 OFFCURVE",
"386 658 CURVE SMOOTH",
"545 658 OFFCURVE",
"658 530 OFFCURVE",
"658 350 CURVE SMOOTH",
"658 170 OFFCURVE",
"547 42 OFFCURVE",
"389 42 CURVE SMOOTH"
);
}
);
width = 772;
},
{
anchors = (
{
name = bottom;
position = "{404, 0}";
},
{
name = center;
position = "{404, 350}";
},
{
name = ogonek;
position = "{726, 10}";
},
{
name = top;
position = "{404, 700}";
},
{
name = topleft;
position = "{20, 700}";
},
{
name = topright;
position = "{787, 700}";
}
);
layerId = "747A0BA5-337F-45E8-9896-B2CAF0968805";
paths = (
{
closed = 1;
nodes = (
"623 -12 OFFCURVE",
"777 138 OFFCURVE",
"777 349 CURVE SMOOTH",
"777 561 OFFCURVE",
"622 711 OFFCURVE",
"403 711 CURVE SMOOTH",
"185 711 OFFCURVE",
"30 561 OFFCURVE",
"30 349 CURVE SMOOTH",
"30 138 OFFCURVE",
"185 -12 OFFCURVE",
"405 -12 CURVE SMOOTH"
);
},
{
closed = 1;
nodes = (
"300 163 OFFCURVE",
"225 240 OFFCURVE",
"225 349 CURVE SMOOTH",
"225 459 OFFCURVE",
"299 536 OFFCURVE",
"403 536 CURVE SMOOTH",
"508 536 OFFCURVE",
"582 459 OFFCURVE",
"582 349 CURVE SMOOTH",
"582 240 OFFCURVE",
"509 163 OFFCURVE",
"405 163 CURVE SMOOTH"
);
}
);
width = 807;
}
);
leftKerningGroup = round_left_uppercase;
unicode = 004F;
},
{
glyphname = P;
lastChange = "2021-08-02 04:21:20 +0000";
layers = (
{
layerId = m01;
paths = (
{
closed = 1;
nodes = (
"342 266 LINE SMOOTH",
"458 266 OFFCURVE",
"540 356 OFFCURVE",
"540 483 CURVE SMOOTH",
"540 611 OFFCURVE",
"447 701 OFFCURVE",
"315 701 CURVE SMOOTH",
"164 700 LINE",
"164 642 LINE",
"315 642 LINE SMOOTH",
"410 643 OFFCURVE",
"477 577 OFFCURVE",
"477 483 CURVE SMOOTH",
"477 390 OFFCURVE",
"421 325 OFFCURVE",
"342 325 CURVE SMOOTH",
"164 325 LINE",
"164 266 LINE"
);
},
{
closed = 1;
nodes = (
"164 0 LINE",
"164 700 LINE",
"100 700 LINE",
"100 0 LINE"
);
}
);
width = 570;
},
{
layerId = "747A0BA5-337F-45E8-9896-B2CAF0968805";
paths = (
{
closed = 1;
nodes = (
"365 210 LINE SMOOTH",
"523 210 OFFCURVE",
"635 312 OFFCURVE",
"635 456 CURVE SMOOTH",
"635 600 OFFCURVE",
"523 701 OFFCURVE",
"365 701 CURVE SMOOTH",
"234 700 LINE",
"234 531 LINE",
"355 531 LINE SMOOTH",
"405 531 OFFCURVE",
"440 500 OFFCURVE",
"440 456 CURVE SMOOTH",
"440 411 OFFCURVE",
"405 380 OFFCURVE",
"355 380 CURVE SMOOTH",
"234 380 LINE",
"234 210 LINE"
);
},
{
closed = 1;
nodes = (
"260 0 LINE",
"260 700 LINE",
"70 700 LINE",
"70 0 LINE"
);
}
);
width = 645;
}
);
leftMetricsKey = I;
rightMetricsKey = "=O-20";
unicode = 0050;
},
{
glyphname = Q;
lastChange = "2021-08-02 04:21:10 +0000";
layers = (
{
layerId = m01;
paths = (
{
closed = 1;
nodes = (
"584 -16 OFFCURVE",
"722 135 OFFCURVE",
"722 350 CURVE SMOOTH",
"722 564 OFFCURVE",
"584 716 OFFCURVE",
"386 716 CURVE SMOOTH",
"188 716 OFFCURVE",
"50 565 OFFCURVE",
"50 350 CURVE SMOOTH",
"50 135 OFFCURVE",
"191 -16 OFFCURVE",
"389 -16 CURVE SMOOTH"
);
},
{
closed = 1;
nodes = (
"726 5 LINE",
"481 253 LINE",
"437 211 LINE",
"684 -38 LINE"
);
},
{
closed = 1;
nodes = (
"228 42 OFFCURVE",
"114 170 OFFCURVE",
"114 350 CURVE SMOOTH",
"114 530 OFFCURVE",
"227 658 OFFCURVE",
"386 658 CURVE SMOOTH",
"545 658 OFFCURVE",
"658 530 OFFCURVE",
"658 350 CURVE SMOOTH",
"658 170 OFFCURVE",
"547 42 OFFCURVE",
"389 42 CURVE SMOOTH"
);
}
);
width = 776;
},
{
layerId = "747A0BA5-337F-45E8-9896-B2CAF0968805";
paths = (
{
closed = 1;
nodes = (
"623 -12 OFFCURVE",
"777 138 OFFCURVE",
"777 349 CURVE SMOOTH",
"777 561 OFFCURVE",
"622 711 OFFCURVE",
"403 711 CURVE SMOOTH",
"185 711 OFFCURVE",
"30 561 OFFCURVE",
"30 349 CURVE SMOOTH",
"30 138 OFFCURVE",
"185 -12 OFFCURVE",
"405 -12 CURVE SMOOTH"
);
},
{
closed = 1;
nodes = (
"761 68 LINE",
"498 337 LINE",
"381 226 LINE",
"646 -44 LINE"
);
},
{
closed = 1;
nodes = (
"300 163 OFFCURVE",
"225 240 OFFCURVE",
"225 349 CURVE SMOOTH",
"225 459 OFFCURVE",
"299 536 OFFCURVE",
"403 536 CURVE SMOOTH",
"508 536 OFFCURVE",
"582 459 OFFCURVE",
"582 349 CURVE SMOOTH",
"582 240 OFFCURVE",
"509 163 OFFCURVE",
"405 163 CURVE SMOOTH"
);
}
);
width = 807;
}
);
leftKerningGroup = round_left_uppercase;
leftMetricsKey = O;
rightMetricsKey = O;
unicode = 0051;
},
{
glyphname = R;
lastChange = "2021-07-15 05:32:40 +0000";
layers = (
{
layerId = m01;
paths = (
{
closed = 1;
nodes = (
"302 286 LINE SMOOTH",
"436 286 OFFCURVE",
"540 372 OFFCURVE",
"540 493 CURVE SMOOTH",
"540 615 OFFCURVE",
"447 701 OFFCURVE",
"315 701 CURVE SMOOTH",
"164 700 LINE",
"164 642 LINE",
"315 642 LINE SMOOTH",
"410 643 OFFCURVE",
"477 581 OFFCURVE",
"477 493 CURVE SMOOTH",
"477 406 OFFCURVE",
"411 345 OFFCURVE",
"332 345 CURVE SMOOTH",
"164 345 LINE",
"164 286 LINE"
);
},
{
closed = 1;
nodes = (
"164 0 LINE",
"164 700 LINE",
"100 700 LINE",
"100 0 LINE"
);
},
{
closed = 1;
nodes = (
"568 0 LINE",
"381 321 LINE",
"328 290 LINE",
"498 0 LINE"
);
}
);
width = 618;
},
{
layerId = "747A0BA5-337F-45E8-9896-B2CAF0968805";
paths = (
{
closed = 1;
nodes = (
"365 222 LINE SMOOTH",
"523 222 OFFCURVE",
"635 321 OFFCURVE",
"635 462 CURVE SMOOTH",
"635 602 OFFCURVE",
"523 701 OFFCURVE",
"365 701 CURVE SMOOTH",
"234 700 LINE",
"234 531 LINE",
"355 531 LINE SMOOTH",
"405 531 OFFCURVE",
"440 502 OFFCURVE",
"440 462 CURVE SMOOTH",
"440 421 OFFCURVE",
"405 392 OFFCURVE",
"355 392 CURVE SMOOTH",
"234 392 LINE",
"234 222 LINE"
);
},
{
closed = 1;
nodes = (
"260 0 LINE",
"260 700 LINE",
"70 700 LINE",
"70 0 LINE"
);
},
{
closed = 1;
nodes = (
"663 0 LINE",
"434 379 LINE",
"295 275 LINE",
"451 0 LINE"
);
}
);
width = 678;
}
);
leftMetricsKey = I;
unicode = 0052;
},
{
glyphname = S;
lastChange = "2021-08-02 04:38:34 +0000";
layers = (
{
anchors = (
{
name = bottom;
position = "{305, 0}";
},
{
name = top;
position = "{305, 700}";
}
);
background = {
paths = (
{
closed = 1;
nodes = (
"138 712 OFFCURVE",
"57 622 OFFCURVE",
"57 516 CURVE SMOOTH",
"57 434 OFFCURVE",
"136 356 OFFCURVE",
"276 320 CURVE",
"347 303 LINE",
"421 287 OFFCURVE",
"470 252 OFFCURVE",
"470 179 CURVE SMOOTH",
"470 98 OFFCURVE",
"408 46 OFFCURVE",
"309 46 CURVE SMOOTH",
"215 46 OFFCURVE",
"145 89 OFFCURVE",
"116 164 CURVE",
"55 147 LINE",
"76 74 OFFCURVE",
"159 -12 OFFCURVE",
"299 -12 CURVE SMOOTH",
"452 -12 OFFCURVE",
"534 62 OFFCURVE",
"534 187 CURVE SMOOTH",
"534 289 OFFCURVE",
"455 344 OFFCURVE",
"361 365 CURVE",
"290 383 LINE SMOOTH",
"190 408 OFFCURVE",
"121 451 OFFCURVE",
"121 525 CURVE SMOOTH",
"121 602 OFFCURVE",
"192 654 OFFCURVE",
"315 654 CURVE SMOOTH",
"408 654 OFFCURVE",
"477 599 OFFCURVE",
"499 536 CURVE",
"561 554 LINE",
"533 636 OFFCURVE",
"455 712 OFFCURVE",
"300 712 CURVE SMOOTH"
);
}
);
};
guideLines = (
{
angle = 165.6507;
position = "{311, 387}";
},
{
angle = 165.6507;
position = "{314, 322}";
}
);
layerId = m01;
paths = (
{
closed = 1;
nodes = (
"478 -12 OFFCURVE",
"559 78 OFFCURVE",
"559 184 CURVE SMOOTH",
"559 266 OFFCURVE",
"480 344 OFFCURVE",
"340 380 CURVE SMOOTH",
"269 397 LINE SMOOTH",
"195 413 OFFCURVE",
"146 448 OFFCURVE",
"146 521 CURVE SMOOTH",
"146 602 OFFCURVE",
"208 654 OFFCURVE",
"307 654 CURVE SMOOTH",
"400 654 OFFCURVE",
"469 611 OFFCURVE",
"498 538 CURVE",
"559 555 LINE",
"538 627 OFFCURVE",
"456 712 OFFCURVE",
"317 712 CURVE SMOOTH",
"164 712 OFFCURVE",
"82 638 OFFCURVE",
"82 513 CURVE SMOOTH",
"82 411 OFFCURVE",
"161 356 OFFCURVE",
"255 335 CURVE SMOOTH",
"326 317 LINE SMOOTH",
"426 292 OFFCURVE",
"495 249 OFFCURVE",
"495 175 CURVE SMOOTH",
"495 98 OFFCURVE",
"424 46 OFFCURVE",
"301 46 CURVE SMOOTH",
"205 46 OFFCURVE",
"135 101 OFFCURVE",
"112 164 CURVE",
"50 146 LINE",
"78 64 OFFCURVE",
"158 -12 OFFCURVE",
"316 -12 CURVE SMOOTH"
);
}
);
width = 614;
},
{
anchors = (
{
name = bottom;
position = "{313, 0}";
},
{
name = top;
position = "{313, 700}";
}
);
background = {
paths = (
{
closed = 1;
nodes = (
"155 713 OFFCURVE",
"58 636 OFFCURVE",
"58 498 CURVE SMOOTH",
"58 398 OFFCURVE",
"119 312 OFFCURVE",
"223 286 CURVE SMOOTH",
"329 259 LINE SMOOTH",
"363 250 OFFCURVE",
"383 231 OFFCURVE",
"383 207 CURVE SMOOTH",
"383 169 OFFCURVE",
"358 147 OFFCURVE",
"316 147 CURVE SMOOTH",
"267 147 OFFCURVE",
"231 180 OFFCURVE",
"224 205 CURVE",
"35 158 LINE",
"86 39 OFFCURVE",
"184 -11 OFFCURVE",
"316 -11 CURVE SMOOTH",
"481 -11 OFFCURVE",
"578 70 OFFCURVE",
"578 207 CURVE SMOOTH",
"578 312 OFFCURVE",
"514 387 OFFCURVE",
"405 415 CURVE SMOOTH",
"300 442 LINE SMOOTH",
"267 450 OFFCURVE",
"253 474 OFFCURVE",
"253 497 CURVE SMOOTH",
"253 532 OFFCURVE",
"282 551 OFFCURVE",
"316 550 CURVE SMOOTH",
"376 548 OFFCURVE",
"410 526 OFFCURVE",
"453 477 CURVE",
"602 581 LINE",
"545 660 OFFCURVE",
"453 713 OFFCURVE",
"316 713 CURVE SMOOTH"
);
}
);
};
guideLines = (
{
angle = 165.6507;
position = "{317, 264}";
},
{
angle = 165.6507;
position = "{317, 440}";
}
);
layerId = "747A0BA5-337F-45E8-9896-B2CAF0968805";
paths = (
{
closed = 1;
nodes = (
"482 -12 OFFCURVE",
"579 65 OFFCURVE",
"579 203 CURVE SMOOTH",
"579 303 OFFCURVE",
"518 389 OFFCURVE",
"414 415 CURVE SMOOTH",
"308 442 LINE SMOOTH",
"274 451 OFFCURVE",
"255 470 OFFCURVE",
"255 494 CURVE SMOOTH",
"255 532 OFFCURVE",
"279 553 OFFCURVE",
"321 553 CURVE SMOOTH",
"370 553 OFFCURVE",
"399 521 OFFCURVE",
"406 496 CURVE",
"591 543 LINE",
"542 663 OFFCURVE",
"454 712 OFFCURVE",
"321 712 CURVE SMOOTH",
"156 712 OFFCURVE",
"60 631 OFFCURVE",
"60 494 CURVE SMOOTH",
"60 389 OFFCURVE",
"123 314 OFFCURVE",
"232 286 CURVE SMOOTH",
"337 259 LINE SMOOTH",
"370 251 OFFCURVE",
"384 227 OFFCURVE",
"384 204 CURVE SMOOTH",
"384 169 OFFCURVE",
"352 146 OFFCURVE",
"318 147 CURVE SMOOTH",
"269 149 OFFCURVE",
"239 175 OFFCURVE",
"227 210 CURVE",
"40 165 LINE",
"54 70 OFFCURVE",
"186 -12 OFFCURVE",
"321 -12 CURVE SMOOTH"
);
}
);
width = 621;
}
);
leftKerningGroup = round_left_uppercase;
unicode = 0053;
},
{
glyphname = T;
lastChange = "2021-08-02 04:21:10 +0000";
layers = (
{
layerId = m01;
paths = (
{
closed = 1;
nodes = (
"302 0 LINE",
"302 642 LINE",
"238 642 LINE",
"238 0 LINE"
);
},
{
closed = 1;
nodes = (
"530 642 LINE",
"530 700 LINE",
"10 700 LINE",
"10 642 LINE"
);
}
);
width = 540;
},
{
layerId = "747A0BA5-337F-45E8-9896-B2CAF0968805";
paths = (
{
closed = 1;
nodes = (
"415 0 LINE",
"415 642 LINE",
"225 642 LINE",
"225 0 LINE"
);
},
{
closed = 1;
nodes = (
"620 530 LINE",
"620 700 LINE",
"20 700 LINE",
"20 530 LINE"
);
}
);
width = 640;
}
);
unicode = 0054;
},
{
glyphname = U;
lastChange = "2021-08-11 21:25:27 +0000";
layers = (
{
anchors = (
{
name = bottom;
position = "{335, 0}";
},
{
name = ogonek;
position = "{602, 10}";
},
{
name = top;
position = "{335, 660}";
},
{
name = topright;
position = "{649, 700}";
}
);
layerId = m01;
paths = (
{
closed = 1;
nodes = (
"488 -16 OFFCURVE",
"599 92 OFFCURVE",
"599 245 CURVE",
"535 245 LINE",
"535 126 OFFCURVE",
"452 42 OFFCURVE",
"334 42 CURVE SMOOTH",
"217 42 OFFCURVE",
"134 126 OFFCURVE",
"134 245 CURVE",
"70 245 LINE",
"70 92 OFFCURVE",
"179 -16 OFFCURVE",
"332 -16 CURVE SMOOTH"
);
},
{
closed = 1;
nodes = (
"134 245 LINE",
"134 700 LINE",
"70 700 LINE",
"70 245 LINE"
);
},
{
closed = 1;
nodes = (
"599 245 LINE",
"599 700 LINE",
"535 700 LINE",
"535 245 LINE"
);
}
);
width = 669;
},
{
anchors = (
{
name = bottom;
position = "{340, 0}";
},
{
name = ogonek;
position = "{612, 10}";
},
{
name = top;
position = "{340, 700}";
},
{
name = topright;
position = "{660, 700}";
}
);
background = {
paths = (
{
closed = 1;
nodes = (
"620 700 LINE",
"430 700 LINE",
"430 258 LINE SMOOTH",
"430 205 OFFCURVE",
"395 167 OFFCURVE",
"346 167 CURVE SMOOTH",
"313 167 OFFCURVE",
"283 189 OFFCURVE",
"270 220 CURVE",
"93 120 LINE",
"133 40 OFFCURVE",
"238 -13 OFFCURVE",
"346 -13 CURVE SMOOTH",
"506 -13 OFFCURVE",
"620 80 OFFCURVE",
"620 212 CURVE"
);
}
);
};
layerId = "747A0BA5-337F-45E8-9896-B2CAF0968805";
paths = (
{
closed = 1;
nodes = (
"528 -12 OFFCURVE",
"640 94 OFFCURVE",
"640 271 CURVE",
"450 271 LINE",
"450 204 OFFCURVE",
"409 165 OFFCURVE",
"340 165 CURVE SMOOTH",
"271 165 OFFCURVE",
"230 204 OFFCURVE",
"230 271 CURVE",
"40 271 LINE",
"40 94 OFFCURVE",
"151 -12 OFFCURVE",
"338 -12 CURVE SMOOTH"
);
},
{
closed = 1;
nodes = (
"230 271 LINE",
"230 700 LINE",
"40 700 LINE",
"40 271 LINE"
);
},
{
closed = 1;
nodes = (
"640 271 LINE",
"640 700 LINE",
"450 700 LINE",
"450 271 LINE"
);
}
);
width = 680;
}
);
leftKerningGroup = round_left_uppercase;
leftMetricsKey = "=I-30";
rightMetricsKey = "=I-30";
unicode = 0055;
},
{
glyphname = V;
lastChange = "2021-08-02 05:08:11 +0000";
layers = (
{
layerId = m01;
paths = (
{
closed = 1;
nodes = (
"369 0 LINE",
"76 700 LINE",
"10 700 LINE",
"304 0 LINE"
);
},
{
closed = 1;
nodes = (
"376 0 LINE",
"671 700 LINE",
"604 700 LINE",
"310 0 LINE"
);
}
);
width = 681;
},
{
layerId = "747A0BA5-337F-45E8-9896-B2CAF0968805";
paths = (
{
closed = 1;
nodes = (
"455 0 LINE",
"207 700 LINE",
"5 700 LINE",
"274 0 LINE"
);
},
{
closed = 1;
nodes = (
"474 0 LINE",
"741 700 LINE",
"539 700 LINE",
"293 0 LINE"
);
}
);
width = 746;
}
);
leftKerningGroup = undercut_left_uppercase;
leftMetricsKey = A;
rightMetricsKey = A;
unicode = 0056;
},
{
glyphname = W;
lastChange = "2021-08-02 04:11:25 +0000";
layers = (
{
layerId = m01;
paths = (
{
closed = 1;
nodes = (
"719 0 LINE",
"940 700 LINE",
"876 700 LINE",
"654 0 LINE"
);
},
{
closed = 1;
nodes = (
"291 0 LINE",
"74 700 LINE",
"10 700 LINE",
"226 0 LINE"
);
},
{
closed = 1;
nodes = (
"296 0 LINE",
"507 700 LINE",
"443 700 LINE",
"231 0 LINE"
);
},
{
closed = 1;
nodes = (
"714 0 LINE",
"507 700 LINE",
"443 700 LINE",
"649 0 LINE"
);
}
);
width = 950;
},
{
layerId = "747A0BA5-337F-45E8-9896-B2CAF0968805";
paths = (
{
closed = 1;
nodes = (
"798 0 LINE",
"999 700 LINE",
"810 700 LINE",
"623 0 LINE"
);
},
{
closed = 1;
nodes = (
"381 0 LINE",
"194 700 LINE",
"5 700 LINE",
"206 0 LINE"
);
},
{
closed = 1;
nodes = (
"398 0 LINE",
"574 700 LINE",
"410 700 LINE",
"233 0 LINE"
);
},
{
closed = 1;
nodes = (
"781 0 LINE",
"594 700 LINE",
"430 700 LINE",
"606 0 LINE"
);
}
);
width = 1004;
}
);
leftKerningGroup = undercut_left_uppercase;
leftMetricsKey = A;
rightMetricsKey = A;
unicode = 0057;
},
{
glyphname = X;
lastChange = "2021-08-02 05:09:03 +0000";
layers = (
{
layerId = m01;
paths = (
{
closed = 1;
nodes = (
"579 0 LINE",
"309 385 LINE",
"86 700 LINE",
"10 700 LINE",
"276 330 LINE",
"501 0 LINE"
);
},
{
closed = 1;
nodes = (
"88 0 LINE",
"313 330 LINE",
"579 700 LINE",
"503 700 LINE",
"280 385 LINE",
"10 0 LINE"
);
}
);
width = 589;
},
{
layerId = "747A0BA5-337F-45E8-9896-B2CAF0968805";
paths = (
{
closed = 1;
nodes = (
"729 0 LINE",
"458 383 LINE",
"239 700 LINE",
"13 700 LINE",
"278 340 LINE",
"501 0 LINE"
);
},
{
closed = 1;
nodes = (
"238 0 LINE",
"462 340 LINE",
"726 700 LINE",
"500 700 LINE",
"282 382 LINE",
"10 0 LINE"
);
}
);
width = 739;
}
);
unicode = 0058;
},
{
glyphname = Y;
lastChange = "2021-08-02 04:21:10 +0000";
layers = (
{
layerId = m01;
paths = (
{
closed = 1;
nodes = (
"578 700 LINE",
"503 700 LINE",
"275 328 LINE",
"326 292 LINE"
);
},
{
closed = 1;
nodes = (
"326 0 LINE",
"326 336 LINE",
"262 336 LINE",
"262 0 LINE"
);
},
{
closed = 1;
nodes = (
"313 328 LINE",
"85 700 LINE",
"10 700 LINE",
"262 292 LINE"
);
}
);
width = 588;
},
{
layerId = "747A0BA5-337F-45E8-9896-B2CAF0968805";
paths = (
{
closed = 1;
nodes = (
"686 700 LINE",
"476 700 LINE",
"253 318 LINE",
"434 287 LINE"
);
},
{
closed = 1;
nodes = (
"443 0 LINE",
"443 336 LINE",
"253 336 LINE",
"253 0 LINE"
);
},
{
closed = 1;
nodes = (
"443 318 LINE",
"220 700 LINE",
"10 700 LINE",
"262 287 LINE"
);
}
);
width = 696;
}
);
leftKerningGroup = undercut_left_uppercase;
unicode = 0059;
},
{
glyphname = Z;
lastChange = "2021-08-02 05:09:16 +0000";
layers = (
{
layerId = m01;
paths = (
{
closed = 1;
nodes = (
"594 642 LINE",
"541 674 LINE",
"50 58 LINE",
"103 25 LINE"
);
},
{
closed = 1;
nodes = (
"591 0 LINE",
"591 58 LINE",
"50 58 LINE",
"50 0 LINE"
);
},
{
closed = 1;
nodes = (
"594 642 LINE",
"594 700 LINE",
"53 700 LINE",
"53 642 LINE"
);
}
);
width = 644;
},
{
layerId = "747A0BA5-337F-45E8-9896-B2CAF0968805";
paths = (
{
closed = 1;
nodes = (
"604 520 LINE",
"362 520 LINE",
"40 180 LINE",
"282 180 LINE"
);
},
{
closed = 1;
nodes = (
"601 0 LINE",
"601 180 LINE",
"40 180 LINE",
"40 0 LINE"
);
},
{
closed = 1;
nodes = (
"604 520 LINE",
"604 700 LINE",
"43 700 LINE",
"43 520 LINE"
);
}
);
width = 624;
}
);
unicode = 005A;
},
{
glyphname = a;
lastChange = "2021-08-11 20:15:33 +0000";
layers = (
{
anchors = (
{
name = bottom;
position = "{256, 0}";
},
{
name = ogonek;
position = "{460, 10}";
},
{
name = top;
position = "{256, 500}";
}
);
guideLines = (
{
position = "{9, 252}";
},
{
position = "{8, 307}";
}
);
layerId = m01;
paths = (
{
closed = 1;
nodes = (
"451 0 LINE",
"451 268 LINE SMOOTH",
"451 432 OFFCURVE",
"384 512 OFFCURVE",
"246 512 CURVE SMOOTH",
"176 512 OFFCURVE",
"117 485 OFFCURVE",
"68 430 CURVE",
"103 391 LINE",
"147 435 OFFCURVE",
"194 457 OFFCURVE",
"246 457 CURVE SMOOTH",
"338 457 OFFCURVE",
"386 395 OFFCURVE",
"391 268 CURVE SMOOTH",
"401 0 LINE"
);
},
{
closed = 1;
nodes = (
"371 -12 OFFCURVE",
"447 78 OFFCURVE",
"447 214 CURVE",
"393 214 LINE",
"393 112 OFFCURVE",
"335 43 OFFCURVE",
"238 43 CURVE SMOOTH",
"154 43 OFFCURVE",
"105 80 OFFCURVE",
"105 141 CURVE",
"105 211 OFFCURVE",
"147 252 OFFCURVE",
"250 252 CURVE SMOOTH",
"430 252 LINE",
"430 307 LINE",
"242 307 LINE SMOOTH",
"118 307 OFFCURVE",
"45 245 OFFCURVE",
"45 141 CURVE",
"45 45 OFFCURVE",
"118 -12 OFFCURVE",
"242 -12 CURVE SMOOTH"
);
}
);
width = 511;
},
{
anchors = (
{
name = bottom;
position = "{277, 0}";
},
{
name = ogonek;
position = "{499, 10}";
},
{
name = top;
position = "{277, 500}";
}
);
background = {
paths = (
{
closed = 1;
nodes = (
"421 -12 OFFCURVE",
"533 96 OFFCURVE",
"533 250 CURVE SMOOTH",
"533 404 OFFCURVE",
"421 512 OFFCURVE",
"261 512 CURVE SMOOTH",
"102 512 OFFCURVE",
"-10 404 OFFCURVE",
"-10 250 CURVE SMOOTH",
"-10 96 OFFCURVE",
"103 -12 OFFCURVE",
"263 -12 CURVE SMOOTH"
);
},
{
closed = 1;
nodes = (
"211 154 OFFCURVE",
"175 194 OFFCURVE",
"175 250 CURVE SMOOTH",
"175 306 OFFCURVE",
"211 346 OFFCURVE",
"261 346 CURVE SMOOTH",
"312 346 OFFCURVE",
"348 306 OFFCURVE",
"348 250 CURVE SMOOTH",
"348 194 OFFCURVE",
"313 154 OFFCURVE",
"263 154 CURVE SMOOTH"
);
}
);
};
guideLines = (
{
angle = 180;
position = "{364, 294}";
}
);
layerId = "747A0BA5-337F-45E8-9896-B2CAF0968805";
paths = (
{
closed = 1;
nodes = (
"514 0 LINE",
"514 281 LINE SMOOTH",
"514 419 OFFCURVE",
"421 512 OFFCURVE",
"261 512 CURVE SMOOTH",
"172 512 OFFCURVE",
"75 477 OFFCURVE",
"28 422 CURVE",
"132 315 LINE",
"165 346 OFFCURVE",
"211 359 OFFCURVE",
"254 359 CURVE SMOOTH",
"336 359 OFFCURVE",
"340 310 OFFCURVE",
"340 245 CURVE SMOOTH",
"340 0 LINE"
);
},
{
closed = 1;
nodes = (
"330 -12 OFFCURVE",
"396 69 OFFCURVE",
"396 214 CURVE",
"340 192 LINE",
"340 137 OFFCURVE",
"316 104 OFFCURVE",
"278 104 CURVE",
"231 104 OFFCURVE",
"204 119 OFFCURVE",
"204 145 CURVE",
"204 176 OFFCURVE",
"234 194 OFFCURVE",
"286 194 CURVE",
"364 194 LINE",
"364 294 LINE",
"217 294 LINE SMOOTH",
"93 294 OFFCURVE",
"20 245 OFFCURVE",
"20 141 CURVE SMOOTH",
"20 42 OFFCURVE",
"93 -12 OFFCURVE",
"217 -12 CURVE SMOOTH"
);
}
);
width = 554;
},
{
associatedMasterId = m01;
layerId = "CB0AF63B-738D-442B-AE33-6FAC0C554570";
name = "21 Jun 21, 13:35";
paths = (
{
closed = 1;
nodes = (
"451 0 LINE",
"451 272 LINE SMOOTH",
"451 436 OFFCURVE",
"384 516 OFFCURVE",
"246 516 CURVE",
"176 516 OFFCURVE",
"117 489 OFFCURVE",
"68 434 CURVE",
"103 395 LINE",
"147 439 OFFCURVE",
"194 461 OFFCURVE",
"246 461 CURVE SMOOTH",
"338 461 OFFCURVE",
"386 399 OFFCURVE",
"391 272 CURVE SMOOTH",
"401 0 LINE"
);
},
{
closed = 1;
nodes = (
"371 -16 OFFCURVE",
"447 75 OFFCURVE",
"447 214 CURVE",
"392 214 LINE",
"392 110 OFFCURVE",
"335 39 OFFCURVE",
"238 39 CURVE SMOOTH",
"154 39 OFFCURVE",
"105 77 OFFCURVE",
"105 141 CURVE",
"105 211 OFFCURVE",
"159 252 OFFCURVE",
"250 252 CURVE SMOOTH",
"299 252 OFFCURVE",
"355 236 OFFCURVE",
"401 209 CURVE",
"415 264 LINE",
"376 291 OFFCURVE",
"312 307 OFFCURVE",
"242 307 CURVE SMOOTH",
"118 307 OFFCURVE",
"45 245 OFFCURVE",
"45 141 CURVE SMOOTH",
"45 42 OFFCURVE",
"118 -16 OFFCURVE",
"242 -16 CURVE SMOOTH"
);
}
);
width = 511;
},
{
associatedMasterId = "747A0BA5-337F-45E8-9896-B2CAF0968805";
layerId = "45C67C7D-FBF1-4189-85B2-8F8292167A26";
name = "21 Jun 21, 13:37";
paths = (
{
closed = 1;
nodes = (
"519 0 LINE",
"519 285 LINE SMOOTH",
"519 423 OFFCURVE",
"414 520 OFFCURVE",
"266 520 CURVE SMOOTH",
"177 520 OFFCURVE",
"80 481 OFFCURVE",
"33 426 CURVE",
"135 317 LINE",
"177 348 OFFCURVE",
"225 363 OFFCURVE",
"259 363 CURVE SMOOTH",
"319 363 OFFCURVE",
"350 316 OFFCURVE",
"350 249 CURVE SMOOTH",
"350 0 LINE"
);
},
{
closed = 1;
nodes = (
"335 -16 OFFCURVE",
"401 69 OFFCURVE",
"401 214 CURVE",
"350 191 LINE",
"350 136 OFFCURVE",
"325 104 OFFCURVE",
"283 104 CURVE SMOOTH",
"233 104 OFFCURVE",
"204 123 OFFCURVE",
"204 154 CURVE",
"204 189 OFFCURVE",
"236 209 OFFCURVE",
"291 209 CURVE SMOOTH",
"315 209 OFFCURVE",
"338 200 OFFCURVE",
"355 184 CURVE",
"378 254 LINE",
"340 287 OFFCURVE",
"282 307 OFFCURVE",
"222 307 CURVE SMOOTH",
"98 307 OFFCURVE",
"25 245 OFFCURVE",
"25 141 CURVE SMOOTH",
"25 42 OFFCURVE",
"98 -16 OFFCURVE",
"222 -16 CURVE SMOOTH"
);
}
);
width = 559;
},
{
anchors = (
{
name = bottom;
position = "{274, 0}";
},
{
name = ogonek;
position = "{493, 10}";
},
{
name = top;
position = "{274, 500}";
}
);
associatedMasterId = m01;
guideLines = (
{
position = "{256, 252}";
},
{
position = "{248, 307}";
}
);
layerId = "02AAAEA1-AFBF-4DBF-9BCC-F2B650B51EF0";
name = "{700}";
paths = (
{
closed = 1;
nodes = (
"502 0 LINE",
"502 281 LINE SMOOTH",
"502 425 OFFCURVE",
"418 512 OFFCURVE",
"265 512 CURVE SMOOTH",
"183 512 OFFCURVE",
"98 482 OFFCURVE",
"51 429 CURVE",
"128 348 LINE",
"167 380 OFFCURVE",
"215 396 OFFCURVE",
"261 396 CURVE SMOOTH",
"346 396 OFFCURVE",
"368 344 OFFCURVE",
"370 257 CURVE SMOOTH",
"373 0 LINE"
);
},
{
closed = 1;
nodes = (
"353 -12 OFFCURVE",
"422 73 OFFCURVE",
"422 214 CURVE",
"370 199 LINE",
"370 129 OFFCURVE",
"325 86 OFFCURVE",
"251 86 CURVE SMOOTH",
"204 86 OFFCURVE",
"177 110 OFFCURVE",
"177 150 CURVE SMOOTH",
"177 184 OFFCURVE",
"212 204 OFFCURVE",
"283 204 CURVE SMOOTH",
"395 204 LINE",
"395 298 LINE",
"235 298 LINE SMOOTH",
"111 298 OFFCURVE",
"38 245 OFFCURVE",
"38 141 CURVE SMOOTH",
"38 44 OFFCURVE",
"111 -12 OFFCURVE",
"235 -12 CURVE SMOOTH"
);
}
);
width = 548;
}
);
leftKerningGroup = "round-left-lowercase";
leftMetricsKey = o;
rightMetricsKey = n;
unicode = 0061;
},
{
glyphname = b;
lastChange = "2021-08-02 05:30:13 +0000";
layers = (
{
components = (
{
name = Bowl;
transform = "{-1, 0, 0, 1, 582, 0}";
}
);
layerId = m01;
paths = (
{
closed = 1;
nodes = (
"132 0 LINE",
"135 93 LINE",
"135 700 LINE",
"75 700 LINE",
"75 0 LINE"
);
}
);
width = 582;
},
{
components = (
{
name = Bowl;
transform = "{-1, 0, 0, 1, 606, 0}";
}
);
layerId = "747A0BA5-337F-45E8-9896-B2CAF0968805";
paths = (
{
closed = 1;
nodes = (
"226 0 LINE",
"235 93 LINE",
"235 700 LINE",
"55 700 LINE",
"55 0 LINE"
);
}
);
width = 615;
}
);
leftMetricsKey = l;
rightKerningGroup = "round-right-lowercase";
rightMetricsKey = o;
unicode = 0062;
},
{
glyphname = c;
lastChange = "2021-08-02 05:30:15 +0000";
layers = (
{
background = {
paths = (
{
closed = 1;
nodes = (
"508 243 LINE",
"508 402 OFFCURVE",
"416 515 OFFCURVE",
"286 515 CURVE SMOOTH",
"145 515 OFFCURVE",
"45 405 OFFCURVE",
"45 250 CURVE SMOOTH",
"45 94 OFFCURVE",
"147 -16 OFFCURVE",
"291 -16 CURVE SMOOTH",
"378 -16 OFFCURVE",
"467 40 OFFCURVE",
"506 118 CURVE",
"453 145 LINE",
"422 83 OFFCURVE",
"355 39 OFFCURVE",
"291 39 CURVE SMOOTH",
"182 39 OFFCURVE",
"105 126 OFFCURVE",
"105 250 CURVE SMOOTH",
"105 373 OFFCURVE",
"180 460 OFFCURVE",
"286 460 CURVE SMOOTH",
"381 460 OFFCURVE",
"448 370 OFFCURVE",
"448 243 CURVE"
);
},
{
closed = 1;
nodes = (
"86 243 LINE",
"465 243 LINE",
"465 293 LINE",
"86 293 LINE"
);
}
);
};
layerId = m01;
paths = (
{
closed = 1;
nodes = (
"387 -12 OFFCURVE",
"464 38 OFFCURVE",
"504 119 CURVE",
"451 147 LINE",
"421 82 OFFCURVE",
"363 43 OFFCURVE",
"291 43 CURVE SMOOTH",
"182 43 OFFCURVE",
"105 128 OFFCURVE",
"105 250 CURVE SMOOTH",
"105 372 OFFCURVE",
"181 457 OFFCURVE",
"289 457 CURVE SMOOTH",
"359 457 OFFCURVE",
"417 422 OFFCURVE",
"448 365 CURVE",
"500 393 LINE",
"460 467 OFFCURVE",
"383 512 OFFCURVE",
"289 512 CURVE SMOOTH",
"146 512 OFFCURVE",
"45 404 OFFCURVE",
"45 250 CURVE SMOOTH",
"45 96 OFFCURVE",
"147 -12 OFFCURVE",
"291 -12 CURVE SMOOTH"
);
}
);
width = 534;
},
{
background = {
paths = (
{
closed = 1;
nodes = (
"451 -12 OFFCURVE",
"563 96 OFFCURVE",
"563 250 CURVE SMOOTH",
"563 404 OFFCURVE",
"451 512 OFFCURVE",
"291 512 CURVE SMOOTH",
"132 512 OFFCURVE",
"20 404 OFFCURVE",
"20 250 CURVE SMOOTH",
"20 96 OFFCURVE",
"133 -12 OFFCURVE",
"293 -12 CURVE SMOOTH"
);
},
{
closed = 1;
nodes = (
"241 154 OFFCURVE",
"205 194 OFFCURVE",
"205 250 CURVE SMOOTH",
"205 306 OFFCURVE",
"241 346 OFFCURVE",
"291 346 CURVE SMOOTH",
"342 346 OFFCURVE",
"378 306 OFFCURVE",
"378 250 CURVE SMOOTH",
"378 194 OFFCURVE",
"343 154 OFFCURVE",
"293 154 CURVE SMOOTH"
);
}
);
};
layerId = "747A0BA5-337F-45E8-9896-B2CAF0968805";
paths = (
{
closed = 1;
nodes = (
"407 -12 OFFCURVE",
"502 45 OFFCURVE",
"540 149 CURVE",
"368 204 LINE",
"356 177 OFFCURVE",
"325 158 OFFCURVE",
"292 158 CURVE SMOOTH",
"241 158 OFFCURVE",
"205 196 OFFCURVE",
"205 250 CURVE SMOOTH",
"205 304 OFFCURVE",
"240 342 OFFCURVE",
"290 342 CURVE SMOOTH",
"324 342 OFFCURVE",
"356 323 OFFCURVE",
"367 296 CURVE",
"539 352 LINE",
"501 456 OFFCURVE",
"405 512 OFFCURVE",
"300 512 CURVE SMOOTH",
"136 512 OFFCURVE",
"20 403 OFFCURVE",
"20 250 CURVE SMOOTH",
"20 97 OFFCURVE",
"137 -12 OFFCURVE",
"302 -12 CURVE SMOOTH"
);
}
);
width = 545;
}
);
leftKerningGroup = "round-left-lowercase";
leftMetricsKey = o;
rightKerningGroup = "round-right-lowercase";
rightMetricsKey = "=e-5";
unicode = 0063;
},
{
glyphname = d;
lastChange = "2021-08-02 05:30:13 +0000";
layers = (
{
components = (
{
name = Bowl;
}
);
layerId = m01;
paths = (
{
closed = 1;
nodes = (
"507 0 LINE",
"507 700 LINE",
"447 700 LINE",
"447 93 LINE",
"450 0 LINE"
);
}
);
width = 582;
},
{
background = {
components = (
{
name = arch;
transform = "{-1, 0, 0, 1, 421, 0}";
},
{
name = arch;
transform = "{-1, 0, 0, -1, 421, 500}";
}
);
paths = (
{
closed = 1;
nodes = (
"559 0 LINE",
"559 700 LINE",
"379 700 LINE",
"379 93 LINE",
"388 0 LINE"
);
}
);
};
components = (
{
name = Bowl;
transform = "{1, 0, 0, 1, 9, 0}";
}
);
layerId = "747A0BA5-337F-45E8-9896-B2CAF0968805";
paths = (
{
closed = 1;
nodes = (
"559 0 LINE",
"559 700 LINE",
"379 700 LINE",
"379 93 LINE",
"388 0 LINE"
);
}
);
width = 614;
}
);
leftKerningGroup = "round-left-lowercase";
leftMetricsKey = o;
rightMetricsKey = l;
unicode = 0064;
},
{
glyphname = e;
lastChange = "2021-08-02 05:30:13 +0000";
layers = (
{
layerId = m01;
paths = (
{
closed = 1;
nodes = (
"391 -12 OFFCURVE",
"465 40 OFFCURVE",
"503 114 CURVE",
"453 145 LINE",
"422 85 OFFCURVE",
"368 43 OFFCURVE",
"291 43 CURVE SMOOTH",
"182 43 OFFCURVE",
"105 128 OFFCURVE",
"105 250 CURVE SMOOTH",
"105 371 OFFCURVE",
"180 457 OFFCURVE",
"286 457 CURVE SMOOTH",
"394 457 OFFCURVE",
"448 368 OFFCURVE",
"448 243 CURVE",
"508 243 LINE",
"508 400 OFFCURVE",
"428 512 OFFCURVE",
"286 512 CURVE SMOOTH",
"145 512 OFFCURVE",
"45 403 OFFCURVE",
"45 250 CURVE SMOOTH",
"45 96 OFFCURVE",
"147 -12 OFFCURVE",
"291 -12 CURVE SMOOTH"
);
},
{
closed = 1;
nodes = (
"465 243 LINE",
"465 298 LINE",
"86 298 LINE",
"86 243 LINE"
);
}
);
width = 543;
},
{
background = {
paths = (
{
closed = 1;
nodes = (
"539 352 LINE",
"501 456 OFFCURVE",
"405 512 OFFCURVE",
"300 512 CURVE SMOOTH",
"136 512 OFFCURVE",
"20 403 OFFCURVE",
"20 250 CURVE SMOOTH",
"20 97 OFFCURVE",
"137 -12 OFFCURVE",
"302 -12 CURVE SMOOTH",
"407 -12 OFFCURVE",
"502 45 OFFCURVE",
"540 149 CURVE",
"368 204 LINE",
"356 177 OFFCURVE",
"325 158 OFFCURVE",
"292 158 CURVE SMOOTH",
"241 158 OFFCURVE",
"205 196 OFFCURVE",
"205 250 CURVE SMOOTH",
"205 304 OFFCURVE",
"240 342 OFFCURVE",
"290 342 CURVE SMOOTH",
"324 342 OFFCURVE",
"356 323 OFFCURVE",
"367 296 CURVE"
);
}
);
};
layerId = "747A0BA5-337F-45E8-9896-B2CAF0968805";
paths = (
{
closed = 1;
nodes = (
"393 -12 OFFCURVE",
"508 27 OFFCURVE",
"545 139 CURVE",
"382 181 LINE",
"374 149 OFFCURVE",
"338 125 OFFCURVE",
"293 125 CURVE SMOOTH",
"244 125 OFFCURVE",
"192 157 OFFCURVE",
"192 263 CURVE SMOOTH",
"192 337 OFFCURVE",
"224 381 OFFCURVE",
"288 381 CURVE SMOOTH",
"371 381 OFFCURVE",
"385 310 OFFCURVE",
"385 212 CURVE",
"556 212 LINE",
"556 414 OFFCURVE",
"448 512 OFFCURVE",
"295 512 CURVE SMOOTH",
"132 512 OFFCURVE",
"20 406 OFFCURVE",
"20 250 CURVE SMOOTH",
"20 94 OFFCURVE",
"135 -12 OFFCURVE",
"298 -12 CURVE SMOOTH"
);
},
{
closed = 1;
nodes = (
"473 212 LINE",
"473 324 LINE",
"135 324 LINE",
"134 212 LINE"
);
}
);
width = 566;
},
{
associatedMasterId = m01;
background = {
paths = (
{
closed = 1;
nodes = (
"455 -12 OFFCURVE",
"563 96 OFFCURVE",
"563 250 CURVE SMOOTH",
"563 404 OFFCURVE",
"455 512 OFFCURVE",
"300 512 CURVE SMOOTH",
"147 512 OFFCURVE",
"38 404 OFFCURVE",
"38 250 CURVE SMOOTH",
"38 96 OFFCURVE",
"148 -12 OFFCURVE",
"302 -12 CURVE SMOOTH"
);
},
{
closed = 1;
nodes = (
"231 117 OFFCURVE",
"182 172 OFFCURVE",
"182 250 CURVE SMOOTH",
"182 328 OFFCURVE",
"231 383 OFFCURVE",
"300 383 CURVE SMOOTH",
"370 383 OFFCURVE",
"420 328 OFFCURVE",
"420 250 CURVE SMOOTH",
"420 172 OFFCURVE",
"371 117 OFFCURVE",
"302 117 CURVE SMOOTH"
);
}
);
};
layerId = "2CA090D3-3F82-40CE-96C1-376CDE35D69A";
name = "{700}";
paths = (
{
closed = 1;
nodes = (
"391 -12 OFFCURVE",
"488 37 OFFCURVE",
"531 120 CURVE",
"407 178 LINE",
"387 142 OFFCURVE",
"346 117 OFFCURVE",
"308 117 CURVE SMOOTH",
"241 117 OFFCURVE",
"186 173 OFFCURVE",
"186 254 CURVE SMOOTH",
"186 321 OFFCURVE",
"223 396 OFFCURVE",
"294 396 CURVE SMOOTH",
"367 396 OFFCURVE",
"407 321 OFFCURVE",
"407 224 CURVE",
"547 223 LINE",
"547 408 OFFCURVE",
"439 512 OFFCURVE",
"301 512 CURVE SMOOTH",
"147 512 OFFCURVE",
"38 404 OFFCURVE",
"38 250 CURVE SMOOTH",
"38 96 OFFCURVE",
"144 -12 OFFCURVE",
"294 -12 CURVE SMOOTH"
);
},
{
closed = 1;
nodes = (
"480 223 LINE",
"480 326 LINE",
"128 326 LINE",
"127 223 LINE"
);
}
);
width = 575;
}
);
leftKerningGroup = "round-left-lowercase";
leftMetricsKey = o;
rightKerningGroup = "round-right-lowercase";
rightMetricsKey = "=o-10";
unicode = 0065;
},
{
glyphname = f;
lastChange = "2021-08-02 04:21:10 +0000";
layers = (
{
layerId = m01;
paths = (
{
closed = 1;
nodes = (
"185 0 LINE",
"185 560 LINE SMOOTH",
"185 625 OFFCURVE",
"210 657 OFFCURVE",
"261 657 CURVE SMOOTH",
"275 657 OFFCURVE",
"298 650 OFFCURVE",
"333 637 CURVE",
"355 688 LINE",
"316 704 OFFCURVE",
"287 712 OFFCURVE",
"266 712 CURVE SMOOTH",
"171 712 OFFCURVE",
"125 662 OFFCURVE",
"125 560 CURVE SMOOTH",
"125 0 LINE"
);
},
{
closed = 1;
nodes = (
"338 445 LINE",
"338 500 LINE",
"30 500 LINE",
"30 445 LINE"
);
}
);
width = 360;
},
{
layerId = "747A0BA5-337F-45E8-9896-B2CAF0968805";
paths = (
{
closed = 1;
nodes = (
"275 0 LINE",
"275 507 LINE SMOOTH",
"275 555 OFFCURVE",
"286 572 OFFCURVE",
"313 572 CURVE SMOOTH",
"326 572 OFFCURVE",
"341 568 OFFCURVE",
"353 558 CURVE",
"420 683 LINE",
"387 704 OFFCURVE",
"329 724 OFFCURVE",
"278 724 CURVE SMOOTH",
"154 724 OFFCURVE",
"95 654 OFFCURVE",
"95 543 CURVE SMOOTH",
"95 0 LINE"
);
},
{
closed = 1;
nodes = (
"378 360 LINE",
"378 500 LINE",
"20 500 LINE",
"20 360 LINE"
);
}
);
width = 415;
}
);
unicode = 0066;
},
{
glyphname = g;
lastChange = "2021-08-02 05:30:13 +0000";
layers = (
{
background = {
paths = (
{
closed = 1;
nodes = (
"444 50 LINE",
"444 -74 OFFCURVE",
"367 -161 OFFCURVE",
"258 -161 CURVE SMOOTH",
"186 -161 OFFCURVE",
"128 -120 OFFCURVE",
"98 -53 CURVE",
"45 -81 LINE",
"85 -164 OFFCURVE",
"162 -216 OFFCURVE",
"258 -216 CURVE SMOOTH",
"402 -216 OFFCURVE",
"504 -106 OFFCURVE",
"504 50 CURVE"
);
}
);
};
layerId = m01;
paths = (
{
closed = 1;
nodes = (
"405 -220 OFFCURVE",
"507 -110 OFFCURVE",
"507 46 CURVE SMOOTH",
"507 500 LINE",
"447 500 LINE",
"447 46 LINE SMOOTH",
"447 -78 OFFCURVE",
"370 -165 OFFCURVE",
"261 -165 CURVE SMOOTH",
"189 -165 OFFCURVE",
"131 -124 OFFCURVE",
"101 -57 CURVE",
"48 -85 LINE",
"88 -168 OFFCURVE",
"165 -220 OFFCURVE",
"261 -220 CURVE SMOOTH"
);
},
{
closed = 1;
nodes = (
"398 0 OFFCURVE",
"487 107 OFFCURVE",
"487 258 CURVE SMOOTH",
"487 407 OFFCURVE",
"398 512 OFFCURVE",
"271 512 CURVE SMOOTH",
"139 512 OFFCURVE",
"45 407 OFFCURVE",
"45 258 CURVE SMOOTH",
"45 107 OFFCURVE",
"139 0 OFFCURVE",
"271 0 CURVE SMOOTH"
);
},
{
closed = 1;
nodes = (
"179 53 OFFCURVE",
"105 138 OFFCURVE",
"105 258 CURVE SMOOTH",
"105 376 OFFCURVE",
"178 460 OFFCURVE",
"282 460 CURVE SMOOTH",
"379 460 OFFCURVE",
"447 376 OFFCURVE",
"447 258 CURVE SMOOTH",
"447 138 OFFCURVE",
"379 53 OFFCURVE",
"283 53 CURVE SMOOTH"
);
}
);
width = 582;
},
{
background = {
paths = (
{
closed = 1;
nodes = (
"-5 -136 OFFCURVE",
"110 -236 OFFCURVE",
"272 -236 CURVE SMOOTH",
"404 -236 OFFCURVE",
"492 -174 OFFCURVE",
"549 -79 CURVE",
"411 -4 LINE",
"385 -42 OFFCURVE",
"332 -87 OFFCURVE",
"272 -87 CURVE SMOOTH",
"215 -87 OFFCURVE",
"175 -43 OFFCURVE",
"175 10 CURVE SMOOTH",
"175 500 LINE",
"-5 500 LINE",
"-5 -10 LINE SMOOTH"
);
}
);
};
layerId = "747A0BA5-337F-45E8-9896-B2CAF0968805";
paths = (
{
closed = 1;
nodes = (
"454 -236 OFFCURVE",
"569 -136 OFFCURVE",
"569 -10 CURVE SMOOTH",
"569 500 LINE",
"389 500 LINE",
"389 10 LINE SMOOTH",
"389 -43 OFFCURVE",
"349 -87 OFFCURVE",
"292 -87 CURVE SMOOTH",
"232 -87 OFFCURVE",
"189 -65 OFFCURVE",
"173 -21 CURVE",
"24 -87 LINE",
"49 -172 OFFCURVE",
"160 -236 OFFCURVE",
"292 -236 CURVE SMOOTH"
);
},
{
closed = 1;
nodes = (
"360 14 OFFCURVE",
"428 102 OFFCURVE",
"428 250 CURVE SMOOTH",
"428 415 OFFCURVE",
"360 512 OFFCURVE",
"246 512 CURVE SMOOTH",
"104 512 OFFCURVE",
"20 415 OFFCURVE",
"20 250 CURVE SMOOTH",
"20 102 OFFCURVE",
"104 14 OFFCURVE",
"246 14 CURVE SMOOTH"
);
},
{
closed = 1;
nodes = (
"253 168 OFFCURVE",
"220 205 OFFCURVE",
"219 257 CURVE SMOOTH",
"220 309 OFFCURVE",
"252 345 OFFCURVE",
"300 345 CURVE SMOOTH",
"349 345 OFFCURVE",
"380 309 OFFCURVE",
"380 257 CURVE SMOOTH",
"380 205 OFFCURVE",
"350 168 OFFCURVE",
"301 168 CURVE SMOOTH"
);
}
);
width = 624;
}
);
leftKerningGroup = "round-left-lowercase";
leftMetricsKey = o;
rightMetricsKey = l;
unicode = 0067;
},
{
glyphname = h;
lastChange = "2021-05-25 05:59:58 +0000";
layers = (
{
components = (
{
name = arch;
transform = "{1, 0, 0, 1, 98, 0}";
}
);
layerId = m01;
paths = (
{
closed = 1;
nodes = (
"135 0 LINE",
"135 716 LINE",
"75 716 LINE",
"75 0 LINE"
);
},
{
closed = 1;
nodes = (
"494 0 LINE",
"494 286 LINE",
"434 256 LINE",
"434 0 LINE"
);
}
);
width = 559;
},
{
components = (
{
name = arch;
transform = "{1, 0, 0, 1, 195, 0}";
}
);
layerId = "747A0BA5-337F-45E8-9896-B2CAF0968805";
paths = (
{
closed = 1;
nodes = (
"237 0 LINE",
"235 716 LINE",
"55 716 LINE",
"57 0 LINE"
);
},
{
closed = 1;
nodes = (
"550 0 LINE",
"550 286 LINE",
"370 256 LINE",
"370 0 LINE"
);
}
);
width = 595;
}
);
leftMetricsKey = l;
rightMetricsKey = "=l-10";
unicode = 0068;
},
{
glyphname = i;
lastChange = "2021-08-11 20:20:51 +0000";
layers = (
{
components = (
{
name = idotless;
}
);
layerId = m01;
leftMetricsKey = "=l-5";
rightMetricsKey = "=l-5";
paths = (
{
closed = 1;
nodes = (
"132 630 OFFCURVE",
"150 648 OFFCURVE",
"150 670 CURVE SMOOTH",
"150 692 OFFCURVE",
"132 710 OFFCURVE",
"110 710 CURVE SMOOTH",
"88 710 OFFCURVE",
"70 692 OFFCURVE",
"70 670 CURVE SMOOTH",
"70 648 OFFCURVE",
"88 630 OFFCURVE",
"110 630 CURVE SMOOTH"
);
}
);
width = 220;
},
{
components = (
{
name = idotless;
}
);
layerId = "747A0BA5-337F-45E8-9896-B2CAF0968805";
leftMetricsKey = "=l-10";
rightMetricsKey = "=l-10";
paths = (
{
closed = 1;
nodes = (
"199 548 OFFCURVE",
"245 594 OFFCURVE",
"245 648 CURVE SMOOTH",
"245 702 OFFCURVE",
"199 748 OFFCURVE",
"145 748 CURVE SMOOTH",
"91 748 OFFCURVE",
"45 702 OFFCURVE",
"45 648 CURVE SMOOTH",
"45 594 OFFCURVE",
"91 548 OFFCURVE",
"145 548 CURVE SMOOTH"
);
}
);
width = 290;
}
);
leftMetricsKey = "=l-11";
rightMetricsKey = "=l-11";
unicode = 0069;
},
{
glyphname = idotless;
lastChange = "2021-08-11 20:40:18 +0000";
layers = (
{
anchors = (
{
name = bottom;
position = "{110, 0}";
},
{
name = ogonek;
position = "{198, 10}";
},
{
name = top;
position = "{110, 500}";
}
);
layerId = m01;
paths = (
{
closed = 1;
nodes = (
"139 0 LINE",
"141 500 LINE",
"81 500 LINE",
"79 0 LINE"
);
}
);
width = 220;
},
{
anchors = (
{
name = bottom;
position = "{145, 0}";
},
{
name = ogonek;
position = "{261, 10}";
},
{
name = top;
position = "{145, 500}";
}
);
layerId = "747A0BA5-337F-45E8-9896-B2CAF0968805";
paths = (
{
closed = 1;
nodes = (
"235 0 LINE",
"235 500 LINE",
"55 500 LINE",
"55 0 LINE"
);
}
);
width = 290;
}
);
unicode = 0131;
},
{
glyphname = j;
lastChange = "2021-08-02 04:21:01 +0000";
layers = (
{
layerId = m01;
paths = (
{
closed = 1;
nodes = (
"134 -215 OFFCURVE",
"180 -165 OFFCURVE",
"180 -63 CURVE SMOOTH",
"180 500 LINE",
"120 500 LINE",
"120 -63 LINE SMOOTH",
"120 -128 OFFCURVE",
"95 -160 OFFCURVE",
"44 -160 CURVE SMOOTH",
"30 -160 OFFCURVE",
"7 -153 OFFCURVE",
"-28 -140 CURVE",
"-50 -191 LINE",
"-11 -207 OFFCURVE",
"18 -215 OFFCURVE",
"39 -215 CURVE SMOOTH"
);
},
{
closed = 1;
nodes = (
"172 632 OFFCURVE",
"190 650 OFFCURVE",
"190 672 CURVE SMOOTH",
"190 694 OFFCURVE",
"172 712 OFFCURVE",
"150 712 CURVE SMOOTH",
"128 712 OFFCURVE",
"110 694 OFFCURVE",
"110 672 CURVE SMOOTH",
"110 650 OFFCURVE",
"128 632 OFFCURVE",
"150 632 CURVE SMOOTH"
);
}
);
width = 260;
},
{
layerId = "747A0BA5-337F-45E8-9896-B2CAF0968805";
paths = (
{
closed = 1;
nodes = (
"178 -215 OFFCURVE",
"253 -143 OFFCURVE",
"253 -21 CURVE SMOOTH",
"253 500 LINE",
"73 500 LINE",
"73 -7 LINE SMOOTH",
"73 -32 OFFCURVE",
"62 -47 OFFCURVE",
"44 -47 CURVE SMOOTH",
"31 -47 OFFCURVE",
"16 -41 OFFCURVE",
"4 -31 CURVE",
"-70 -180 LINE",
"-40 -202 OFFCURVE",
"5 -215 OFFCURVE",
"52 -215 CURVE SMOOTH"
);
},
{
closed = 1;
nodes = (
"219 542 OFFCURVE",
"266 589 OFFCURVE",
"266 645 CURVE SMOOTH",
"266 701 OFFCURVE",
"219 748 OFFCURVE",
"163 748 CURVE SMOOTH",
"107 748 OFFCURVE",
"60 701 OFFCURVE",
"60 645 CURVE SMOOTH",
"60 589 OFFCURVE",
"107 542 OFFCURVE",
"163 542 CURVE SMOOTH"
);
}
);
width = 311;
}
);
rightMetricsKey = i;
unicode = 006A;
},
{
glyphname = k;
lastChange = "2021-08-02 04:21:10 +0000";
layers = (
{
layerId = m01;
paths = (
{
closed = 1;
nodes = (
"443 500 LINE",
"365 500 LINE",
"94 215 LINE",
"135 174 LINE"
);
},
{
closed = 1;
nodes = (
"135 0 LINE",
"135 700 LINE",
"75 700 LINE",
"75 0 LINE"
);
},
{
closed = 1;
nodes = (
"465 0 LINE",
"228 347 LINE",
"189 304 LINE",
"388 0 LINE"
);
}
);
width = 465;
},
{
layerId = "747A0BA5-337F-45E8-9896-B2CAF0968805";
name = Black;
paths = (
{
closed = 1;
nodes = (
"575 500 LINE",
"369 500 LINE",
"117 213 LINE",
"225 95 LINE"
);
},
{
closed = 1;
nodes = (
"235 0 LINE",
"235 700 LINE",
"55 700 LINE",
"55 0 LINE"
);
},
{
closed = 1;
nodes = (
"586 0 LINE",
"358 337 LINE",
"240 205 LINE",
"379 0 LINE"
);
}
);
width = 596;
}
);
leftMetricsKey = l;
rightKerningGroup = "indented-right-lowercase";
unicode = 006B;
},
{
glyphname = l;
lastChange = "2021-07-15 06:37:34 +0000";
layers = (
{
layerId = m01;
paths = (
{
closed = 1;
nodes = (
"135 0 LINE",
"137 742 LINE",
"77 742 LINE",
"75 0 LINE"
);
}
);
width = 212;
},
{
layerId = "747A0BA5-337F-45E8-9896-B2CAF0968805";
paths = (
{
closed = 1;
nodes = (
"235 0 LINE",
"235 742 LINE",
"55 742 LINE",
"55 0 LINE"
);
}
);
width = 290;
}
);
rightMetricsKey = "=|l";
unicode = 006C;
},
{
glyphname = m;
lastChange = "2021-06-14 07:00:12 +0000";
layers = (
{
components = (
{
name = arch;
transform = "{1, 0, 0, 1, 98, 0}";
},
{
name = arch;
transform = "{1, 0, 0, 1, 457, 0}";
}
);
layerId = m01;
paths = (
{
closed = 1;
nodes = (
"135 0 LINE",
"135 408 LINE",
"131 500 LINE",
"75 500 LINE",
"75 0 LINE"
);
},
{
closed = 1;
nodes = (
"494 0 LINE",
"494 286 LINE",
"434 256 LINE",
"434 0 LINE"
);
},
{
closed = 1;
nodes = (
"853 0 LINE",
"853 286 LINE",
"793 256 LINE",
"793 0 LINE"
);
}
);
width = 908;
},
{
components = (
{
name = arch;
transform = "{1, 0, 0, 1, 193, 0}";
},
{
name = arch;
transform = "{1, 0, 0, 1, 506, 0}";
}
);
layerId = "747A0BA5-337F-45E8-9896-B2CAF0968805";
paths = (
{
closed = 1;
nodes = (
"235 0 LINE",
"235 408 LINE",
"225 500 LINE",
"55 500 LINE",
"55 0 LINE"
);
},
{
closed = 1;
nodes = (
"548 0 LINE",
"548 286 LINE",
"368 256 LINE",
"368 0 LINE"
);
},
{
closed = 1;
nodes = (
"861 0 LINE",
"861 286 LINE",
"681 256 LINE",
"681 0 LINE"
);
}
);
width = 896;
}
);
leftKerningGroup = short_lower_case;
leftMetricsKey = l;
rightMetricsKey = "=l-20";
unicode = 006D;
},
{
glyphname = n;
lastChange = "2021-08-11 21:29:12 +0000";
layers = (
{
anchors = (
{
name = bottom;
position = "{277, 0}";
},
{
name = top;
position = "{277, 500}";
}
);
components = (
{
name = arch;
transform = "{1, 0, 0, 1, 98, 0}";
}
);
layerId = m01;
paths = (
{
closed = 1;
nodes = (
"135 0 LINE",
"135 408 LINE",
"131 500 LINE",
"75 500 LINE",
"75 0 LINE"
);
},
{
closed = 1;
nodes = (
"494 0 LINE",
"494 286 LINE",
"434 256 LINE",
"434 0 LINE"
);
}
);
width = 554;
},
{
anchors = (
{
name = bottom;
position = "{294, 0}";
},
{
name = top;
position = "{294, 500}";
}
);
background = {
components = (
{
name = Bowl;
transform = "{-1, 0, 0, 1, 606, 0}";
}
);
};
components = (
{
name = arch;
transform = "{1, 0, 0, 1, 193, 0}";
}
);
layerId = "747A0BA5-337F-45E8-9896-B2CAF0968805";
paths = (
{
closed = 1;
nodes = (
"235 0 LINE",
"235 408 LINE",
"225 500 LINE",
"55 500 LINE",
"55 0 LINE"
);
},
{
closed = 1;
nodes = (
"548 0 LINE",
"548 286 LINE",
"368 256 LINE",
"368 0 LINE"
);
}
);
width = 588;
}
);
leftKerningGroup = short_lower_case;
leftMetricsKey = l;
rightMetricsKey = "=l-15";
unicode = 006E;
},
{
glyphname = o;
lastChange = "2021-08-02 05:29:58 +0000";
layers = (
{
anchors = (
{
name = bottom;
position = "{290, 0}";
},
{
name = center;
position = "{290, 250}";
},
{
name = ogonek;
position = "{521, 10}";
},
{
name = top;
position = "{290, 500}";
},
{
name = topright;
position = "{559, 500}";
}
);
layerId = m01;
paths = (
{
closed = 1;
nodes = (
"433 -12 OFFCURVE",
"534 96 OFFCURVE",
"534 250 CURVE SMOOTH",
"534 404 OFFCURVE",
"433 512 OFFCURVE",
"289 512 CURVE SMOOTH",
"146 512 OFFCURVE",
"45 404 OFFCURVE",
"45 250 CURVE SMOOTH",
"45 96 OFFCURVE",
"147 -12 OFFCURVE",
"291 -12 CURVE SMOOTH"
);
},
{
closed = 1;
nodes = (
"182 43 OFFCURVE",
"105 128 OFFCURVE",
"105 250 CURVE SMOOTH",
"105 372 OFFCURVE",
"181 457 OFFCURVE",
"289 457 CURVE SMOOTH",
"397 457 OFFCURVE",
"474 372 OFFCURVE",
"474 250 CURVE SMOOTH",
"474 128 OFFCURVE",
"398 43 OFFCURVE",
"291 43 CURVE SMOOTH"
);
}
);
width = 579;
},
{
anchors = (
{
name = bottom;
position = "{286, 0}";
},
{
name = center;
position = "{286, 250}";
},
{
name = ogonek;
position = "{526, 10}";
},
{
name = top;
position = "{286, 500}";
},
{
name = topright;
position = "{566, 500}";
}
);
layerId = "747A0BA5-337F-45E8-9896-B2CAF0968805";
paths = (
{
closed = 1;
nodes = (
"451 -12 OFFCURVE",
"563 96 OFFCURVE",
"563 250 CURVE SMOOTH",
"563 404 OFFCURVE",
"451 512 OFFCURVE",
"291 512 CURVE SMOOTH",
"132 512 OFFCURVE",
"20 404 OFFCURVE",
"20 250 CURVE SMOOTH",
"20 96 OFFCURVE",
"133 -12 OFFCURVE",
"293 -12 CURVE SMOOTH"
);
},
{
closed = 1;
nodes = (
"241 154 OFFCURVE",
"205 194 OFFCURVE",
"205 250 CURVE SMOOTH",
"205 306 OFFCURVE",
"241 346 OFFCURVE",
"291 346 CURVE SMOOTH",
"342 346 OFFCURVE",
"378 306 OFFCURVE",
"378 250 CURVE SMOOTH",
"378 194 OFFCURVE",
"343 154 OFFCURVE",
"293 154 CURVE SMOOTH"
);
}
);
width = 583;
},
{
anchors = (
{
name = bottom;
position = "{297, 0}";
},
{
name = center;
position = "{297, 250}";
},
{
name = ogonek;
position = "{534, 10}";
},
{
name = top;
position = "{297, 500}";
},
{
name = topright;
position = "{574, 500}";
}
);
associatedMasterId = "747A0BA5-337F-45E8-9896-B2CAF0968805";
layerId = "296912BB-A7CC-4570-AF98-FEA55812A463";
name = "{700}";
paths = (
{
closed = 1;
nodes = (
"455 -12 OFFCURVE",
"563 96 OFFCURVE",
"563 250 CURVE SMOOTH",
"563 404 OFFCURVE",
"455 512 OFFCURVE",
"300 512 CURVE SMOOTH",
"147 512 OFFCURVE",
"38 404 OFFCURVE",
"38 250 CURVE SMOOTH",
"38 96 OFFCURVE",
"148 -12 OFFCURVE",
"302 -12 CURVE SMOOTH"
);
},
{
closed = 1;
nodes = (
"231 117 OFFCURVE",
"182 172 OFFCURVE",
"182 250 CURVE SMOOTH",
"182 328 OFFCURVE",
"231 383 OFFCURVE",
"300 383 CURVE SMOOTH",
"370 383 OFFCURVE",
"420 328 OFFCURVE",
"420 250 CURVE SMOOTH",
"420 172 OFFCURVE",
"371 117 OFFCURVE",
"302 117 CURVE SMOOTH"
);
}
);
width = 601;
}
);
leftKerningGroup = "round-left-lowercase";
rightKerningGroup = "round-right-lowercase";
rightMetricsKey = "=|o";
unicode = 006F;
},
{
glyphname = p;
lastChange = "2021-08-02 05:30:13 +0000";
layers = (
{
components = (
{
name = Bowl;
transform = "{-1, 0, 0, 1, 582, 0}";
}
);
layerId = m01;
paths = (
{
closed = 1;
nodes = (
"135 -200 LINE",
"135 407 LINE",
"132 500 LINE",
"75 500 LINE",
"75 -200 LINE"
);
}
);
width = 582;
},
{
components = (
{
name = Bowl;
transform = "{-1, 0, 0, 1, 606, 0}";
}
);
layerId = "747A0BA5-337F-45E8-9896-B2CAF0968805";
paths = (
{
closed = 1;
nodes = (
"235 -200 LINE",
"235 407 LINE",
"226 500 LINE",
"55 500 LINE",
"55 -200 LINE"
);
}
);
width = 615;
}
);
leftKerningGroup = short_lower_case;
leftMetricsKey = l;
rightKerningGroup = "round-right-lowercase";
rightMetricsKey = o;
unicode = 0070;
},
{
glyphname = q;
lastChange = "2021-08-02 05:30:13 +0000";
layers = (
{
components = (
{
name = Bowl;
}
);
layerId = m01;
paths = (
{
closed = 1;
nodes = (
"507 -200 LINE",
"507 500 LINE",
"450 500 LINE",
"447 407 LINE",
"447 -200 LINE"
);
}
);
width = 582;
},
{
components = (
{
name = Bowl;
transform = "{1, 0, 0, 1, 9, 0}";
}
);
layerId = "747A0BA5-337F-45E8-9896-B2CAF0968805";
paths = (
{
closed = 1;
nodes = (
"560 -200 LINE",
"560 500 LINE",
"390 500 LINE",
"380 407 LINE",
"380 -200 LINE"
);
}
);
width = 615;
}
);
leftKerningGroup = "round-left-lowercase";
leftMetricsKey = o;
rightMetricsKey = l;
unicode = 0071;
},
{
glyphname = r;
lastChange = "2021-08-02 04:29:23 +0000";
layers = (
{
layerId = m01;
paths = (
{
closed = 1;
nodes = (
"135 0 LINE",
"135 500 LINE",
"75 500 LINE",
"75 0 LINE"
);
},
{
closed = 1;
nodes = (
"136 280 LINE",
"136 405 OFFCURVE",
"224 447 OFFCURVE",
"312 447 CURVE",
"312 502 LINE",
"204 502 OFFCURVE",
"100 436 OFFCURVE",
"100 274 CURVE"
);
}
);
width = 322;
},
{
background = {
components = (
{
name = arch;
transform = "{1, 0, 0, 1, 193, 0}";
}
);
};
layerId = "747A0BA5-337F-45E8-9896-B2CAF0968805";
paths = (
{
closed = 1;
nodes = (
"235 0 LINE",
"235 500 LINE",
"55 500 LINE",
"55 0 LINE"
);
},
{
closed = 1;
nodes = (
"236 251 LINE",
"236 299 OFFCURVE",
"318 326 OFFCURVE",
"410 326 CURVE",
"412 502 LINE",
"304 502 OFFCURVE",
"193 417 OFFCURVE",
"193 255 CURVE"
);
}
);
width = 432;
}
);
leftKerningGroup = short_lower_case;
leftMetricsKey = l;
unicode = 0072;
},
{
glyphname = s;
lastChange = "2021-08-02 05:42:29 +0000";
layers = (
{
background = {
paths = (
{
closed = 1;
nodes = (
"124 513 OFFCURVE",
"46 460 OFFCURVE",
"46 370 CURVE SMOOTH",
"46 301 OFFCURVE",
"106 244 OFFCURVE",
"209 219 CURVE",
"251 208 LINE",
"318 192 OFFCURVE",
"351 160 OFFCURVE",
"351 130 CURVE SMOOTH",
"351 76 OFFCURVE",
"308 44 OFFCURVE",
"236 44 CURVE SMOOTH",
"167 44 OFFCURVE",
"118 73 OFFCURVE",
"101 122 CURVE",
"42 106 LINE",
"70 38 OFFCURVE",
"135 -12 OFFCURVE",
"227 -12 CURVE SMOOTH",
"351 -12 OFFCURVE",
"411 43 OFFCURVE",
"411 135 CURVE SMOOTH",
"411 193 OFFCURVE",
"360 242 OFFCURVE",
"270 265 CURVE",
"220 278 LINE",
"145 297 OFFCURVE",
"106 326 OFFCURVE",
"106 375 CURVE SMOOTH",
"106 428 OFFCURVE",
"166 458 OFFCURVE",
"240 458 CURVE SMOOTH",
"298 458 OFFCURVE",
"351 430 OFFCURVE",
"384 382 CURVE",
"430 417 LINE",
"387 478 OFFCURVE",
"313 513 OFFCURVE",
"229 513 CURVE SMOOTH"
);
}
);
};
guideLines = (
{
angle = 165.6507;
position = "{451, 173}";
},
{
angle = 165.6507;
position = "{457, 231}";
}
);
layerId = m01;
paths = (
{
closed = 1;
nodes = (
"348 -12 OFFCURVE",
"426 41 OFFCURVE",
"426 131 CURVE SMOOTH",
"426 200 OFFCURVE",
"366 257 OFFCURVE",
"264 282 CURVE SMOOTH",
"221 293 LINE SMOOTH",
"155 309 OFFCURVE",
"122 341 OFFCURVE",
"122 371 CURVE SMOOTH",
"122 425 OFFCURVE",
"165 457 OFFCURVE",
"237 457 CURVE SMOOTH",
"306 457 OFFCURVE",
"355 428 OFFCURVE",
"372 379 CURVE",
"430 395 LINE",
"403 463 OFFCURVE",
"335 512 OFFCURVE",
"246 512 CURVE SMOOTH",
"122 512 OFFCURVE",
"62 458 OFFCURVE",
"62 366 CURVE SMOOTH",
"62 308 OFFCURVE",
"113 259 OFFCURVE",
"203 236 CURVE SMOOTH",
"252 223 LINE SMOOTH",
"327 204 OFFCURVE",
"366 175 OFFCURVE",
"366 126 CURVE SMOOTH",
"366 73 OFFCURVE",
"306 43 OFFCURVE",
"232 43 CURVE SMOOTH",
"175 43 OFFCURVE",
"120 73 OFFCURVE",
"98 121 CURVE",
"40 105 LINE",
"60 47 OFFCURVE",
"127 -12 OFFCURVE",
"243 -12 CURVE SMOOTH"
);
}
);
width = 470;
},
{
guideLines = (
{
angle = 165.6507;
position = "{498, 125}";
},
{
angle = 165.6507;
position = "{494, 256}";
}
);
layerId = "747A0BA5-337F-45E8-9896-B2CAF0968805";
paths = (
{
closed = 1;
nodes = (
"397 -12 OFFCURVE",
"490 48 OFFCURVE",
"490 150 CURVE SMOOTH",
"490 231 OFFCURVE",
"419 275 OFFCURVE",
"308 304 CURVE SMOOTH",
"267 314 LINE SMOOTH",
"236 322 OFFCURVE",
"216 327 OFFCURVE",
"216 344 CURVE SMOOTH",
"216 365 OFFCURVE",
"232 379 OFFCURVE",
"261 379 CURVE SMOOTH",
"297 379 OFFCURVE",
"326 362 OFFCURVE",
"331 340 CURVE",
"480 375 LINE",
"461 449 OFFCURVE",
"379 512 OFFCURVE",
"261 512 CURVE SMOOTH",
"132 512 OFFCURVE",
"54 451 OFFCURVE",
"54 343 CURVE SMOOTH",
"54 271 OFFCURVE",
"112 224 OFFCURVE",
"219 197 CURVE SMOOTH",
"273 183 LINE SMOOTH",
"298 177 OFFCURVE",
"310 169 OFFCURVE",
"310 153 CURVE SMOOTH",
"310 133 OFFCURVE",
"299 124 OFFCURVE",
"262 124 CURVE SMOOTH",
"223 124 OFFCURVE",
"193 133 OFFCURVE",
"177 168 CURVE",
"31 126 LINE",
"58 37 OFFCURVE",
"148 -12 OFFCURVE",
"257 -12 CURVE SMOOTH"
);
}
);
width = 520;
},
{
associatedMasterId = "747A0BA5-337F-45E8-9896-B2CAF0968805";
guideLines = (
{
angle = 165.6507;
position = "{498, 125}";
},
{
angle = 165.6507;
position = "{494, 256}";
}
);
layerId = "4022C16D-88A2-4D8E-980B-BC8BD74E90EF";
name = "{700}";
paths = (
{
closed = 1;
nodes = (
"381 -12 OFFCURVE",
"469 46 OFFCURVE",
"469 143 CURVE SMOOTH",
"469 223 OFFCURVE",
"402 275 OFFCURVE",
"295 301 CURVE SMOOTH",
"254 311 LINE SMOOTH",
"216 320 OFFCURVE",
"195 334 OFFCURVE",
"195 353 CURVE SMOOTH",
"195 377 OFFCURVE",
"217 392 OFFCURVE",
"256 392 CURVE SMOOTH",
"295 392 OFFCURVE",
"326 375 OFFCURVE",
"333 350 CURVE",
"465 382 LINE",
"444 454 OFFCURVE",
"365 512 OFFCURVE",
"256 512 CURVE SMOOTH",
"128 512 OFFCURVE",
"55 453 OFFCURVE",
"55 351 CURVE SMOOTH",
"55 280 OFFCURVE",
"119 229 OFFCURVE",
"221 202 CURVE SMOOTH",
"273 188 LINE SMOOTH",
"313 179 OFFCURVE",
"325 168 OFFCURVE",
"325 144 CURVE SMOOTH",
"325 120 OFFCURVE",
"298 107 OFFCURVE",
"252 107 CURVE SMOOTH",
"211 107 OFFCURVE",
"176 122 OFFCURVE",
"159 158 CURVE",
"34 121 LINE",
"59 41 OFFCURVE",
"141 -12 OFFCURVE",
"252 -12 CURVE SMOOTH"
);
}
);
visible = 1;
width = 503;
}
);
leftKerningGroup = short_lower_case;
unicode = 0073;
},
{
glyphname = t;
lastChange = "2021-07-31 05:37:23 +0000";
layers = (
{
layerId = m01;
paths = (
{
closed = 1;
nodes = (
"291 -12 OFFCURVE",
"312 -8 OFFCURVE",
"348 13 CURVE",
"323 65 LINE",
"293 45 OFFCURVE",
"282 43 OFFCURVE",
"266 43 CURVE SMOOTH",
"211 43 OFFCURVE",
"179 74 OFFCURVE",
"179 128 CURVE SMOOTH",
"179 656 LINE",
"119 656 LINE",
"119 128 LINE SMOOTH",
"119 39 OFFCURVE",
"174 -12 OFFCURVE",
"266 -12 CURVE SMOOTH"
);
},
{
closed = 1;
nodes = (
"338 445 LINE",
"338 500 LINE",
"30 500 LINE",
"30 445 LINE"
);
}
);
width = 377;
},
{
layerId = "747A0BA5-337F-45E8-9896-B2CAF0968805";
paths = (
{
closed = 1;
nodes = (
"329 -12 OFFCURVE",
"387 8 OFFCURVE",
"420 29 CURVE",
"361 158 LINE",
"349 150 OFFCURVE",
"326 140 OFFCURVE",
"313 140 CURVE SMOOTH",
"286 140 OFFCURVE",
"275 157 OFFCURVE",
"275 205 CURVE SMOOTH",
"275 656 LINE",
"95 656 LINE",
"95 158 LINE SMOOTH",
"95 48 OFFCURVE",
"154 -12 OFFCURVE",
"278 -12 CURVE SMOOTH"
);
},
{
closed = 1;
nodes = (
"378 360 LINE",
"378 500 LINE",
"20 500 LINE",
"20 360 LINE"
);
}
);
width = 421;
}
);
leftMetricsKey = f;
unicode = 0074;
},
{
glyphname = u;
lastChange = "2021-08-11 21:28:02 +0000";
layers = (
{
anchors = (
{
name = bottom;
position = "{277, 0}";
},
{
name = ogonek;
position = "{499, 10}";
},
{
name = top;
position = "{277, 500}";
},
{
name = topright;
position = "{534, 500}";
}
);
components = (
{
name = arch;
transform = "{-1, 0, 0, -1, 456, 500}";
}
);
layerId = m01;
paths = (
{
closed = 1;
nodes = (
"479 0 LINE",
"479 500 LINE",
"419 500 LINE",
"419 92 LINE",
"423 0 LINE"
);
},
{
closed = 1;
nodes = (
"120 244 LINE",
"120 500 LINE",
"60 500 LINE",
"60 214 LINE"
);
}
);
width = 554;
},
{
anchors = (
{
name = bottom;
position = "{294, 0}";
},
{
name = ogonek;
position = "{529, 10}";
},
{
name = top;
position = "{294, 500}";
},
{
name = topright;
position = "{568, 500}";
}
);
components = (
{
name = arch;
transform = "{-1, 0, 0, -1, 395, 500}";
}
);
layerId = "747A0BA5-337F-45E8-9896-B2CAF0968805";
paths = (
{
closed = 1;
nodes = (
"533 0 LINE",
"533 500 LINE",
"353 500 LINE",
"353 92 LINE",
"363 0 LINE"
);
},
{
closed = 1;
nodes = (
"220 244 LINE",
"220 500 LINE",
"40 500 LINE",
"40 214 LINE"
);
}
);
width = 588;
}
);
leftKerningGroup = short_lower_case;
leftMetricsKey = "=|n";
rightMetricsKey = l;
unicode = 0075;
},
{
glyphname = v;
lastChange = "2021-08-02 04:21:10 +0000";
layers = (
{
layerId = m01;
paths = (
{
closed = 1;
nodes = (
"285 0 LINE",
"496 500 LINE",
"433 500 LINE",
"223 0 LINE"
);
},
{
closed = 1;
nodes = (
"282 0 LINE",
"72 500 LINE",
"10 500 LINE",
"221 0 LINE"
);
}
);
width = 506;
},
{
layerId = "747A0BA5-337F-45E8-9896-B2CAF0968805";
paths = (
{
closed = 1;
nodes = (
"409 0 LINE",
"620 500 LINE",
"434 500 LINE",
"234 0 LINE"
);
},
{
closed = 1;
nodes = (
"396 0 LINE",
"196 500 LINE",
"10 500 LINE",
"221 0 LINE"
);
}
);
width = 630;
}
);
leftKerningGroup = "undercut-left-lowercase";
rightKerningGroup = "undercut-right-lowercase";
unicode = 0076;
},
{
glyphname = w;
lastChange = "2021-08-02 05:09:38 +0000";
layers = (
{
layerId = m01;
paths = (
{
closed = 1;
nodes = (
"241 0 LINE",
"70 500 LINE",
"10 500 LINE",
"180 0 LINE"
);
},
{
closed = 1;
nodes = (
"242 0 LINE",
"413 500 LINE",
"353 500 LINE",
"181 0 LINE"
);
},
{
closed = 1;
nodes = (
"584 0 LINE",
"413 500 LINE",
"353 500 LINE",
"523 0 LINE"
);
},
{
closed = 1;
nodes = (
"584 0 LINE",
"754 500 LINE",
"694 500 LINE",
"523 0 LINE"
);
}
);
width = 764;
},
{
layerId = "747A0BA5-337F-45E8-9896-B2CAF0968805";
paths = (
{
closed = 1;
nodes = (
"345 0 LINE",
"194 500 LINE",
"10 500 LINE",
"180 0 LINE"
);
},
{
closed = 1;
nodes = (
"356 0 LINE",
"504 500 LINE",
"353 500 LINE",
"201 0 LINE"
);
},
{
closed = 1;
nodes = (
"681 0 LINE",
"530 500 LINE",
"379 500 LINE",
"526 0 LINE"
);
},
{
closed = 1;
nodes = (
"702 0 LINE",
"873 500 LINE",
"689 500 LINE",
"527 0 LINE"
);
}
);
width = 883;
}
);
leftKerningGroup = "undercut-left-lowercase";
rightKerningGroup = "undercut-right-lowercase";
unicode = 0077;
},
{
glyphname = x;
lastChange = "2021-08-02 04:21:10 +0000";
layers = (
{
annotations = (
{
position = "{261.094, 258.046}";
text = "y=258";
type = Text;
}
);
layerId = m01;
paths = (
{
closed = 1;
nodes = (
"79 0 LINE",
"238 233 LINE",
"425 500 LINE",
"353 500 LINE",
"209 288 LINE",
"5 0 LINE"
);
},
{
closed = 1;
nodes = (
"437 0 LINE",
"235 288 LINE",
"90 500 LINE",
"18 500 LINE",
"207 233 LINE",
"364 0 LINE"
);
}
);
width = 442;
},
{
layerId = "747A0BA5-337F-45E8-9896-B2CAF0968805";
paths = (
{
closed = 1;
nodes = (
"224 0 LINE",
"363 213 LINE",
"570 500 LINE",
"358 500 LINE",
"216 284 LINE",
"10 0 LINE"
);
},
{
closed = 1;
nodes = (
"582 0 LINE",
"377 284 LINE",
"235 500 LINE",
"23 500 LINE",
"232 213 LINE",
"369 0 LINE"
);
}
);
width = 592;
}
);
leftKerningGroup = "indented-left-lowercase";
rightKerningGroup = "indented-right-lowercase";
unicode = 0078;
},
{
glyphname = y;
lastChange = "2021-08-02 04:21:10 +0000";
layers = (
{
layerId = m01;
paths = (
{
closed = 1;
nodes = (
"181 -212 OFFCURVE",
"215 -164 OFFCURVE",
"252 -80 CURVE SMOOTH",
"497 500 LINE",
"434 500 LINE",
"239 39 LINE",
"182 -97 LINE SMOOTH",
"166 -135 OFFCURVE",
"142 -157 OFFCURVE",
"104 -157 CURVE SMOOTH",
"90 -157 OFFCURVE",
"67 -150 OFFCURVE",
"32 -137 CURVE",
"10 -188 LINE",
"49 -204 OFFCURVE",
"78 -212 OFFCURVE",
"99 -212 CURVE SMOOTH"
);
},
{
closed = 1;
nodes = (
"283 0 LINE",
"266 40 LINE",
"73 500 LINE",
"11 500 LINE",
"222 0 LINE"
);
}
);
width = 507;
},
{
layerId = "747A0BA5-337F-45E8-9896-B2CAF0968805";
paths = (
{
closed = 1;
nodes = (
"318 -215 OFFCURVE",
"351 -132 OFFCURVE",
"399 -18 CURVE SMOOTH",
"618 500 LINE",
"432 500 LINE",
"292 130 LINE",
"217 -11 LINE SMOOTH",
"208 -27 OFFCURVE",
"205 -37 OFFCURVE",
"184 -37 CURVE SMOOTH",
"171 -37 OFFCURVE",
"156 -31 OFFCURVE",
"144 -21 CURVE",
"70 -170 LINE",
"100 -192 OFFCURVE",
"145 -215 OFFCURVE",
"192 -215 CURVE SMOOTH"
);
},
{
closed = 1;
nodes = (
"406 0 LINE",
"336 130 LINE",
"196 500 LINE",
"10 500 LINE",
"221 0 LINE"
);
}
);
width = 628;
}
);
leftKerningGroup = "undercut-left-lowercase";
leftMetricsKey = v;
rightKerningGroup = "undercut-right-lowercase";
rightMetricsKey = v;
unicode = 0079;
},
{
glyphname = z;
lastChange = "2021-08-02 04:21:10 +0000";
layers = (
{
background = {
paths = (
{
closed = 1;
nodes = (
"442 459 LINE",
"442 500 LINE",
"55 500 LINE",
"55 459 LINE"
);
},
{
closed = 1;
nodes = (
"439 0 LINE",
"439 41 LINE",
"53 41 LINE",
"53 0 LINE"
);
},
{
closed = 1;
nodes = (
"53 41 LINE",
"91 18 LINE",
"442 459 LINE",
"404 481 LINE"
);
}
);
};
layerId = m01;
paths = (
{
closed = 1;
nodes = (
"444 451 LINE",
"394 483 LINE",
"50 52 LINE",
"101 20 LINE"
);
},
{
closed = 1;
nodes = (
"447 0 LINE",
"447 55 LINE",
"93 55 LINE",
"50 52 LINE",
"50 0 LINE"
);
},
{
closed = 1;
nodes = (
"402 445 LINE",
"444 451 LINE",
"444 500 LINE",
"50 500 LINE",
"50 445 LINE"
);
}
);
width = 497;
},
{
layerId = "747A0BA5-337F-45E8-9896-B2CAF0968805";
paths = (
{
closed = 1;
nodes = (
"459 375 LINE",
"356 490 LINE",
"35 125 LINE",
"143 14 LINE"
);
},
{
closed = 1;
nodes = (
"459 0 LINE",
"459 144 LINE",
"138 144 LINE",
"35 125 LINE",
"35 0 LINE"
);
},
{
closed = 1;
nodes = (
"351 355 LINE",
"459 375 LINE",
"459 500 LINE",
"35 500 LINE",
"35 355 LINE"
);
}
);
width = 494;
}
);
unicode = 007A;
},
{
glyphname = a.001;
lastChange = "2021-08-02 05:30:13 +0000";
layers = (
{
layerId = m01;
paths = (
{
closed = 1;
nodes = (
"451 0 LINE",
"451 272 LINE SMOOTH",
"451 436 OFFCURVE",
"384 516 OFFCURVE",
"246 516 CURVE SMOOTH",
"176 516 OFFCURVE",
"117 489 OFFCURVE",
"68 434 CURVE",
"103 395 LINE",
"147 439 OFFCURVE",
"194 461 OFFCURVE",
"246 461 CURVE SMOOTH",
"338 461 OFFCURVE",
"386 399 OFFCURVE",
"391 272 CURVE SMOOTH",
"401 0 LINE"
);
},
{
closed = 1;
nodes = (
"371 -16 OFFCURVE",
"447 75 OFFCURVE",
"447 214 CURVE",
"392 214 LINE",
"392 110 OFFCURVE",
"335 39 OFFCURVE",
"238 39 CURVE SMOOTH",
"154 39 OFFCURVE",
"105 77 OFFCURVE",
"105 141 CURVE SMOOTH",
"105 211 OFFCURVE",
"159 252 OFFCURVE",
"250 252 CURVE SMOOTH",
"299 252 OFFCURVE",
"355 236 OFFCURVE",
"401 209 CURVE",
"415 264 LINE",
"376 291 OFFCURVE",
"312 307 OFFCURVE",
"242 307 CURVE SMOOTH",
"118 307 OFFCURVE",
"45 245 OFFCURVE",
"45 141 CURVE SMOOTH",
"45 42 OFFCURVE",
"118 -16 OFFCURVE",
"242 -16 CURVE SMOOTH"
);
}
);
width = 511;
},
{
layerId = "747A0BA5-337F-45E8-9896-B2CAF0968805";
paths = (
{
closed = 1;
nodes = (
"514 0 LINE",
"514 285 LINE SMOOTH",
"514 423 OFFCURVE",
"409 520 OFFCURVE",
"261 520 CURVE SMOOTH",
"172 520 OFFCURVE",
"75 481 OFFCURVE",
"28 426 CURVE",
"130 317 LINE",
"172 348 OFFCURVE",
"220 363 OFFCURVE",
"254 363 CURVE SMOOTH",
"314 363 OFFCURVE",
"345 316 OFFCURVE",
"345 249 CURVE SMOOTH",
"345 0 LINE"
);
},
{
closed = 1;
nodes = (
"284 -16 OFFCURVE",
"342 7 OFFCURVE",
"373 47 CURVE",
"348 130 LINE",
"338 117 OFFCURVE",
"306 109 OFFCURVE",
"277 109 CURVE SMOOTH",
"229 109 OFFCURVE",
"208 131 OFFCURVE",
"208 153 CURVE SMOOTH",
"208 174 OFFCURVE",
"231 188 OFFCURVE",
"271 188 CURVE SMOOTH",
"299 188 OFFCURVE",
"339 181 OFFCURVE",
"349 173 CURVE",
"373 254 LINE",
"335 287 OFFCURVE",
"277 307 OFFCURVE",
"217 307 CURVE SMOOTH",
"93 307 OFFCURVE",
"20 245 OFFCURVE",
"20 141 CURVE SMOOTH",
"20 42 OFFCURVE",
"93 -16 OFFCURVE",
"217 -16 CURVE SMOOTH"
);
}
);
width = 554;
},
{
associatedMasterId = m01;
layerId = "2486049E-C633-4A3D-AB3D-6C05C3712295";
name = "{700}";
paths = (
{
closed = 1;
nodes = (
"502 0 LINE",
"502 281 LINE SMOOTH",
"502 427 OFFCURVE",
"410 519 OFFCURVE",
"265 519 CURVE",
"183 519 OFFCURVE",
"98 484 OFFCURVE",
"51 429 CURVE",
"130 343 LINE",
"169 376 OFFCURVE",
"219 396 OFFCURVE",
"261 396 CURVE SMOOTH",
"327 396 OFFCURVE",
"369 344 OFFCURVE",
"370 257 CURVE SMOOTH",
"373 0 LINE"
);
},
{
closed = 1;
nodes = (
"353 -16 OFFCURVE",
"422 73 OFFCURVE",
"422 223 CURVE",
"371 178 LINE",
"371 121 OFFCURVE",
"331 88 OFFCURVE",
"263 88 CURVE SMOOTH",
"203 88 OFFCURVE",
"167 106 OFFCURVE",
"167 137 CURVE",
"167 180 OFFCURVE",
"207 206 OFFCURVE",
"275 206 CURVE SMOOTH",
"317 206 OFFCURVE",
"353 196 OFFCURVE",
"371 179 CURVE",
"391 254 LINE",
"354 285 OFFCURVE",
"296 303 OFFCURVE",
"235 303 CURVE SMOOTH",
"111 303 OFFCURVE",
"38 243 OFFCURVE",
"38 141 CURVE SMOOTH",
"38 42 OFFCURVE",
"111 -16 OFFCURVE",
"235 -16 CURVE SMOOTH"
);
}
);
width = 548;
}
);
leftKerningGroup = "round-left-lowercase";
leftMetricsKey = o;
rightKerningGroup = "round-right-lowercase";
rightMetricsKey = n;
},
{
glyphname = a.002;
lastChange = "2021-08-02 05:30:13 +0000";
layers = (
{
components = (
{
name = Bowl;
}
);
guideLines = (
{
position = "{250, 252}";
},
{
position = "{242, 307}";
}
);
layerId = m01;
paths = (
{
closed = 1;
nodes = (
"507 0 LINE",
"507 500 LINE",
"447 500 LINE",
"447 93 LINE",
"450 0 LINE"
);
}
);
width = 582;
},
{
components = (
{
name = Bowl;
transform = "{1, 0, 0, 1, 9, 0}";
}
);
guideLines = (
{
angle = 180;
position = "{364, 294}";
}
);
layerId = "747A0BA5-337F-45E8-9896-B2CAF0968805";
paths = (
{
closed = 1;
nodes = (
"559 0 LINE",
"559 500 LINE",
"379 500 LINE",
"379 93 LINE",
"388 0 LINE"
);
}
);
width = 614;
},
{
associatedMasterId = m01;
layerId = "CB0AF63B-738D-442B-AE33-6FAC0C554570";
name = "21 Jun 21, 13:35";
paths = (
{
closed = 1;
nodes = (
"451 0 LINE",
"451 272 LINE SMOOTH",
"451 436 OFFCURVE",
"384 516 OFFCURVE",
"246 516 CURVE",
"176 516 OFFCURVE",
"117 489 OFFCURVE",
"68 434 CURVE",
"103 395 LINE",
"147 439 OFFCURVE",
"194 461 OFFCURVE",
"246 461 CURVE SMOOTH",
"338 461 OFFCURVE",
"386 399 OFFCURVE",
"391 272 CURVE SMOOTH",
"401 0 LINE"
);
},
{
closed = 1;
nodes = (
"371 -16 OFFCURVE",
"447 75 OFFCURVE",
"447 214 CURVE",
"392 214 LINE",
"392 110 OFFCURVE",
"335 39 OFFCURVE",
"238 39 CURVE SMOOTH",
"154 39 OFFCURVE",
"105 77 OFFCURVE",
"105 141 CURVE",
"105 211 OFFCURVE",
"159 252 OFFCURVE",
"250 252 CURVE SMOOTH",
"299 252 OFFCURVE",
"355 236 OFFCURVE",
"401 209 CURVE",
"415 264 LINE",
"376 291 OFFCURVE",
"312 307 OFFCURVE",
"242 307 CURVE SMOOTH",
"118 307 OFFCURVE",
"45 245 OFFCURVE",
"45 141 CURVE SMOOTH",
"45 42 OFFCURVE",
"118 -16 OFFCURVE",
"242 -16 CURVE SMOOTH"
);
}
);
width = 511;
},
{
associatedMasterId = "747A0BA5-337F-45E8-9896-B2CAF0968805";
layerId = "45C67C7D-FBF1-4189-85B2-8F8292167A26";
name = "21 Jun 21, 13:37";
paths = (
{
closed = 1;
nodes = (
"519 0 LINE",
"519 285 LINE SMOOTH",
"519 423 OFFCURVE",
"414 520 OFFCURVE",
"266 520 CURVE SMOOTH",
"177 520 OFFCURVE",
"80 481 OFFCURVE",
"33 426 CURVE",
"135 317 LINE",
"177 348 OFFCURVE",
"225 363 OFFCURVE",
"259 363 CURVE SMOOTH",
"319 363 OFFCURVE",
"350 316 OFFCURVE",
"350 249 CURVE SMOOTH",
"350 0 LINE"
);
},
{
closed = 1;
nodes = (
"335 -16 OFFCURVE",
"401 69 OFFCURVE",
"401 214 CURVE",
"350 191 LINE",
"350 136 OFFCURVE",
"325 104 OFFCURVE",
"283 104 CURVE SMOOTH",
"233 104 OFFCURVE",
"204 123 OFFCURVE",
"204 154 CURVE",
"204 189 OFFCURVE",
"236 209 OFFCURVE",
"291 209 CURVE SMOOTH",
"315 209 OFFCURVE",
"338 200 OFFCURVE",
"355 184 CURVE",
"378 254 LINE",
"340 287 OFFCURVE",
"282 307 OFFCURVE",
"222 307 CURVE SMOOTH",
"98 307 OFFCURVE",
"25 245 OFFCURVE",
"25 141 CURVE SMOOTH",
"25 42 OFFCURVE",
"98 -16 OFFCURVE",
"222 -16 CURVE SMOOTH"
);
}
);
width = 559;
}
);
leftKerningGroup = "round-left-lowercase";
leftMetricsKey = d;
rightKerningGroup = "round-right-lowercase";
rightMetricsKey = d;
},
{
glyphname = zero;
lastChange = "2021-08-02 04:21:20 +0000";
layers = (
{
background = {
paths = (
{
closed = 1;
nodes = (
"584 -16 OFFCURVE",
"722 135 OFFCURVE",
"722 350 CURVE SMOOTH",
"722 564 OFFCURVE",
"584 716 OFFCURVE",
"386 716 CURVE SMOOTH",
"188 716 OFFCURVE",
"50 565 OFFCURVE",
"50 350 CURVE SMOOTH",
"50 135 OFFCURVE",
"191 -16 OFFCURVE",
"389 -16 CURVE SMOOTH"
);
},
{
closed = 1;
nodes = (
"228 42 OFFCURVE",
"114 170 OFFCURVE",
"114 350 CURVE SMOOTH",
"114 530 OFFCURVE",
"227 658 OFFCURVE",
"386 658 CURVE SMOOTH",
"545 658 OFFCURVE",
"658 530 OFFCURVE",
"658 350 CURVE SMOOTH",
"658 170 OFFCURVE",
"547 42 OFFCURVE",
"389 42 CURVE SMOOTH"
);
}
);
};
layerId = m01;
paths = (
{
closed = 1;
nodes = (
"477 -16 OFFCURVE",
"588 136 OFFCURVE",
"588 350 CURVE SMOOTH",
"588 564 OFFCURVE",
"477 716 OFFCURVE",
"319 716 CURVE SMOOTH",
"161 716 OFFCURVE",
"50 564 OFFCURVE",
"50 350 CURVE SMOOTH",
"50 136 OFFCURVE",
"162 -16 OFFCURVE",
"321 -16 CURVE SMOOTH"
);
},
{
closed = 1;
nodes = (
"200 42 OFFCURVE",
"114 170 OFFCURVE",
"114 350 CURVE SMOOTH",
"114 530 OFFCURVE",
"199 658 OFFCURVE",
"319 658 CURVE SMOOTH",
"440 658 OFFCURVE",
"525 530 OFFCURVE",
"525 350 CURVE SMOOTH",
"525 170 OFFCURVE",
"440 42 OFFCURVE",
"321 42 CURVE SMOOTH"
);
}
);
width = 638;
},
{
layerId = "747A0BA5-337F-45E8-9896-B2CAF0968805";
paths = (
{
closed = 1;
nodes = (
"511 -16 OFFCURVE",
"635 135 OFFCURVE",
"635 350 CURVE SMOOTH",
"635 565 OFFCURVE",
"510 716 OFFCURVE",
"332 716 CURVE SMOOTH",
"155 716 OFFCURVE",
"30 565 OFFCURVE",
"30 350 CURVE SMOOTH",
"30 135 OFFCURVE",
"156 -16 OFFCURVE",
"334 -16 CURVE SMOOTH"
);
},
{
closed = 1;
nodes = (
"266 156 OFFCURVE",
"219 236 OFFCURVE",
"219 350 CURVE SMOOTH",
"219 465 OFFCURVE",
"266 546 OFFCURVE",
"332 546 CURVE SMOOTH",
"404 546 OFFCURVE",
"455 465 OFFCURVE",
"455 350 CURVE SMOOTH",
"455 236 OFFCURVE",
"405 156 OFFCURVE",
"334 156 CURVE SMOOTH"
);
}
);
width = 665;
},
{
associatedMasterId = "747A0BA5-337F-45E8-9896-B2CAF0968805";
layerId = "BE5E8306-7BA2-4AC7-9CC2-2EDC14BD4F44";
name = "16 Jun 21, 22:16";
paths = (
{
closed = 1;
nodes = (
"558 -16 OFFCURVE",
"695 136 OFFCURVE",
"695 350 CURVE SMOOTH",
"695 564 OFFCURVE",
"557 716 OFFCURVE",
"362 716 CURVE SMOOTH",
"168 716 OFFCURVE",
"30 564 OFFCURVE",
"30 350 CURVE SMOOTH",
"30 136 OFFCURVE",
"168 -16 OFFCURVE",
"364 -16 CURVE SMOOTH"
);
},
{
closed = 1;
nodes = (
"280 164 OFFCURVE",
"220 241 OFFCURVE",
"220 350 CURVE SMOOTH",
"220 459 OFFCURVE",
"279 536 OFFCURVE",
"362 536 CURVE SMOOTH",
"446 536 OFFCURVE",
"505 459 OFFCURVE",
"505 350 CURVE SMOOTH",
"505 241 OFFCURVE",
"447 164 OFFCURVE",
"364 164 CURVE SMOOTH"
);
}
);
width = 725;
}
);
leftMetricsKey = O;
rightMetricsKey = O;
unicode = 0030;
},
{
glyphname = one;
lastChange = "2021-08-02 04:21:10 +0000";
layers = (
{
layerId = m01;
paths = (
{
closed = 1;
nodes = (
"272 0 LINE",
"274 700 LINE",
"210 700 LINE",
"210 666 LINE",
"208 0 LINE"
);
},
{
closed = 1;
nodes = (
"242 649 LINE",
"210 700 LINE",
"70 618 LINE",
"102 567 LINE"
);
}
);
width = 374;
},
{
layerId = "747A0BA5-337F-45E8-9896-B2CAF0968805";
paths = (
{
closed = 1;
nodes = (
"350 0 LINE",
"350 700 LINE",
"194 700 LINE",
"175 601 LINE",
"175 0 LINE"
);
},
{
closed = 1;
nodes = (
"258 575 LINE",
"194 700 LINE",
"5 587 LINE",
"83 463 LINE"
);
}
);
width = 410;
}
);
unicode = 0031;
},
{
glyphname = two;
lastChange = "2021-08-02 05:25:57 +0000";
layers = (
{
layerId = m01;
paths = (
{
closed = 1;
nodes = (
"227 156 LINE SMOOTH",
"375 297 OFFCURVE",
"462 373 OFFCURVE",
"461 485 CURVE SMOOTH",
"460 614 OFFCURVE",
"374 712 OFFCURVE",
"240 712 CURVE SMOOTH",
"126 712 OFFCURVE",
"39 635 OFFCURVE",
"16 550 CURVE",
"80 534 LINE",
"98 596 OFFCURVE",
"156 654 OFFCURVE",
"246 654 CURVE SMOOTH",
"335 654 OFFCURVE",
"395 578 OFFCURVE",
"396 485 CURVE SMOOTH",
"397 389 OFFCURVE",
"315 326 OFFCURVE",
"175 192 CURVE",
"45 58 LINE",
"91 18 LINE"
);
},
{
closed = 1;
nodes = (
"469 0 LINE",
"469 58 LINE",
"94 58 LINE",
"45 58 LINE",
"45 0 LINE"
);
}
);
width = 536;
},
{
layerId = "747A0BA5-337F-45E8-9896-B2CAF0968805";
paths = (
{
closed = 1;
nodes = (
"273 146 LINE",
"436 259 OFFCURVE",
"556 332 OFFCURVE",
"556 466 CURVE SMOOTH",
"556 613 OFFCURVE",
"456 713 OFFCURVE",
"288 713 CURVE SMOOTH",
"136 713 OFFCURVE",
"38 616 OFFCURVE",
"20 508 CURVE",
"211 473 LINE",
"220 508 OFFCURVE",
"245 538 OFFCURVE",
"290 538 CURVE SMOOTH",
"340 538 OFFCURVE",
"361 504 OFFCURVE",
"361 464 CURVE SMOOTH",
"361 386 OFFCURVE",
"263 333 OFFCURVE",
"170 256 CURVE SMOOTH",
"46 150 LINE",
"136 36 LINE"
);
},
{
closed = 1;
nodes = (
"558 0 LINE",
"558 162 LINE",
"173 162 LINE",
"46 150 LINE",
"46 0 LINE"
);
}
);
width = 588;
},
{
associatedMasterId = "747A0BA5-337F-45E8-9896-B2CAF0968805";
background = {
paths = (
{
closed = 1;
nodes = (
"317 411 OFFCURVE",
"346 440 OFFCURVE",
"346 476 CURVE SMOOTH",
"346 511 OFFCURVE",
"317 540 OFFCURVE",
"282 540 CURVE SMOOTH",
"246 540 OFFCURVE",
"217 511 OFFCURVE",
"217 476 CURVE SMOOTH",
"217 440 OFFCURVE",
"246 411 OFFCURVE",
"282 411 CURVE SMOOTH"
);
}
);
};
layerId = "929CAB2D-CF57-4F54-934C-F0BD16D06C3B";
name = "16 Jun 21, 21:49";
paths = (
{
closed = 1;
nodes = (
"52 0 LINE",
"537 0 LINE",
"537 147 LINE",
"169 147 LINE",
"52 160 LINE"
);
},
{
closed = 1;
nodes = (
"280 148 LINE",
"431 261 OFFCURVE",
"538 358 OFFCURVE",
"538 462 CURVE",
"538 609 OFFCURVE",
"427 713 OFFCURVE",
"272 713 CURVE SMOOTH",
"180 713 OFFCURVE",
"80 664 OFFCURVE",
"31 596 CURVE",
"175 484 LINE",
"208 512 OFFCURVE",
"229 540 OFFCURVE",
"282 540 CURVE SMOOTH",
"327 540 OFFCURVE",
"348 503 OFFCURVE",
"348 460 CURVE",
"348 409 OFFCURVE",
"259 331 OFFCURVE",
"164 258 CURVE",
"52 160 LINE",
"162 46 LINE"
);
}
);
width = 588;
}
);
unicode = 0032;
},
{
glyphname = three;
lastChange = "2021-08-02 05:25:38 +0000";
layers = (
{
background = {
paths = (
{
closed = 1;
nodes = (
"115 584 LINE",
"139 615 OFFCURVE",
"179 658 OFFCURVE",
"260 658 CURVE SMOOTH",
"360 658 OFFCURVE",
"425 592 OFFCURVE",
"425 505 CURVE SMOOTH",
"425 402 OFFCURVE",
"331 347 OFFCURVE",
"189 350 CURVE",
"189 294 LINE",
"364 294 OFFCURVE",
"489 367 OFFCURVE",
"489 507 CURVE SMOOTH",
"489 631 OFFCURVE",
"392 716 OFFCURVE",
"264 716 CURVE SMOOTH",
"169 716 OFFCURVE",
"104 667 OFFCURVE",
"67 624 CURVE"
);
},
{
closed = 1;
nodes = (
"115 21 OFFCURVE",
"176 -15 OFFCURVE",
"262 -15 CURVE SMOOTH",
"382 -15 OFFCURVE",
"470 67 OFFCURVE",
"470 167 CURVE SMOOTH",
"470 283 OFFCURVE",
"353 350 OFFCURVE",
"189 350 CURVE",
"189 293 LINE",
"318 297 OFFCURVE",
"406 249 OFFCURVE",
"406 168 CURVE SMOOTH",
"406 102 OFFCURVE",
"348 43 OFFCURVE",
"258 43 CURVE SMOOTH",
"200 43 OFFCURVE",
"155 68 OFFCURVE",
"119 108 CURVE",
"72 73 LINE"
);
}
);
};
layerId = m01;
paths = (
{
closed = 1;
nodes = (
"392 -15 OFFCURVE",
"489 70 OFFCURVE",
"489 194 CURVE SMOOTH",
"489 331 OFFCURVE",
"369 407 OFFCURVE",
"199 407 CURVE SMOOTH",
"189 407 LINE",
"189 351 LINE",
"199 351 LINE SMOOTH",
"335 351 OFFCURVE",
"425 297 OFFCURVE",
"425 196 CURVE SMOOTH",
"425 109 OFFCURVE",
"360 43 OFFCURVE",
"260 43 CURVE SMOOTH",
"179 43 OFFCURVE",
"139 86 OFFCURVE",
"115 117 CURVE",
"67 77 LINE",
"104 34 OFFCURVE",
"169 -15 OFFCURVE",
"264 -15 CURVE SMOOTH"
);
},
{
closed = 1;
nodes = (
"198 351 LINE SMOOTH",
"357 351 OFFCURVE",
"470 420 OFFCURVE",
"470 534 CURVE SMOOTH",
"470 634 OFFCURVE",
"382 716 OFFCURVE",
"262 716 CURVE SMOOTH",
"178 716 OFFCURVE",
"117 681 OFFCURVE",
"75 631 CURVE",
"119 593 LINE",
"155 633 OFFCURVE",
"200 658 OFFCURVE",
"258 658 CURVE SMOOTH",
"348 658 OFFCURVE",
"406 599 OFFCURVE",
"406 533 CURVE SMOOTH",
"406 454 OFFCURVE",
"323 408 OFFCURVE",
"199 408 CURVE SMOOTH",
"189 408 LINE",
"189 351 LINE"
);
}
);
width = 539;
},
{
background = {
paths = (
{
closed = 1;
nodes = (
"43 52 OFFCURVE",
"167 -13 OFFCURVE",
"284 -13 CURVE SMOOTH",
"419 -13 OFFCURVE",
"527 66 OFFCURVE",
"527 185 CURVE SMOOTH",
"527 321 OFFCURVE",
"375 379 OFFCURVE",
"243 379 CURVE SMOOTH",
"179 379 LINE",
"179 272 LINE",
"243 272 LINE SMOOTH",
"319 272 OFFCURVE",
"344 246 OFFCURVE",
"344 205 CURVE SMOOTH",
"344 170 OFFCURVE",
"317 146 OFFCURVE",
"280 146 CURVE SMOOTH",
"253 146 OFFCURVE",
"212 157 OFFCURVE",
"202 218 CURVE",
"25 182 LINE"
);
}
);
};
layerId = "747A0BA5-337F-45E8-9896-B2CAF0968805";
paths = (
{
closed = 1;
nodes = (
"416 -12 OFFCURVE",
"537 57 OFFCURVE",
"537 186 CURVE SMOOTH",
"537 310 OFFCURVE",
"394 395 OFFCURVE",
"243 395 CURVE SMOOTH",
"188 395 LINE",
"188 278 LINE",
"250 278 LINE SMOOTH",
"342 278 OFFCURVE",
"351 242 OFFCURVE",
"351 212 CURVE SMOOTH",
"351 172 OFFCURVE",
"325 147 OFFCURVE",
"280 147 CURVE SMOOTH",
"219 147 OFFCURVE",
"206 194 OFFCURVE",
"198 217 CURVE",
"20 181 LINE",
"38 53 OFFCURVE",
"150 -12 OFFCURVE",
"292 -12 CURVE SMOOTH"
);
},
{
closed = 1;
nodes = (
"243 320 LINE SMOOTH",
"375 320 OFFCURVE",
"527 378 OFFCURVE",
"527 514 CURVE SMOOTH",
"527 633 OFFCURVE",
"419 712 OFFCURVE",
"284 712 CURVE SMOOTH",
"167 712 OFFCURVE",
"43 647 OFFCURVE",
"25 517 CURVE",
"202 481 LINE",
"212 542 OFFCURVE",
"253 553 OFFCURVE",
"280 553 CURVE SMOOTH",
"316 553 OFFCURVE",
"342 529 OFFCURVE",
"342 494 CURVE SMOOTH",
"342 453 OFFCURVE",
"324 427 OFFCURVE",
"250 427 CURVE SMOOTH",
"188 427 LINE",
"188 320 LINE"
);
}
);
width = 567;
}
);
unicode = 0033;
},
{
glyphname = four;
lastChange = "2021-08-02 05:26:06 +0000";
layers = (
{
layerId = m01;
paths = (
{
closed = 1;
nodes = (
"416 664 LINE",
"372 700 LINE",
"50 231 LINE",
"98 198 LINE"
);
},
{
closed = 1;
nodes = (
"586 182 LINE",
"586 241 LINE",
"95 241 LINE",
"50 231 LINE",
"50 182 LINE"
);
},
{
closed = 1;
nodes = (
"435 0 LINE",
"435 700 LINE",
"372 700 LINE",
"372 654 LINE",
"372 0 LINE"
);
}
);
width = 616;
},
{
layerId = "747A0BA5-337F-45E8-9896-B2CAF0968805";
paths = (
{
closed = 1;
nodes = (
"418 597 LINE",
"312 700 LINE",
"10 257 LINE",
"142 191 LINE"
);
},
{
closed = 1;
nodes = (
"615 108 LINE",
"615 265 LINE",
"108 265 LINE",
"10 257 LINE",
"10 108 LINE"
);
},
{
closed = 1;
nodes = (
"512 0 LINE",
"512 700 LINE",
"313 700 LINE",
"338 605 LINE",
"338 0 LINE"
);
}
);
width = 645;
}
);
unicode = 0034;
},
{
glyphname = five;
lastChange = "2021-08-02 04:21:10 +0000";
layers = (
{
layerId = m01;
paths = (
{
closed = 1;
nodes = (
"425 -16 OFFCURVE",
"522 78 OFFCURVE",
"522 210 CURVE SMOOTH",
"522 342 OFFCURVE",
"427 437 OFFCURVE",
"294 437 CURVE SMOOTH",
"218 437 OFFCURVE",
"135 395 OFFCURVE",
"95 335 CURVE",
"157 335 LINE",
"189 698 LINE",
"125 698 LINE",
"125 642 LINE",
"490 642 LINE",
"490 700 LINE",
"125 700 LINE",
"95 335 LINE",
"153 321 LINE",
"182 355 OFFCURVE",
"240 381 OFFCURVE",
"294 381 CURVE SMOOTH",
"392 381 OFFCURVE",
"460 311 OFFCURVE",
"460 210 CURVE SMOOTH",
"460 110 OFFCURVE",
"390 40 OFFCURVE",
"289 40 CURVE SMOOTH",
"225 40 OFFCURVE",
"164 68 OFFCURVE",
"110 132 CURVE",
"65 93 LINE",
"119 16 OFFCURVE",
"212 -16 OFFCURVE",
"289 -16 CURVE SMOOTH"
);
}
);
width = 572;
},
{
background = {
paths = (
{
closed = 1;
nodes = (
"203 269 OFFCURVE",
"239 304 OFFCURVE",
"284 304 CURVE SMOOTH",
"328 304 OFFCURVE",
"363 269 OFFCURVE",
"363 225 CURVE SMOOTH",
"363 183 OFFCURVE",
"328 150 OFFCURVE",
"284 150 CURVE SMOOTH",
"239 150 OFFCURVE",
"203 183 OFFCURVE",
"203 225 CURVE SMOOTH"
);
},
{
closed = 0;
nodes = (
"209 187 LINE",
"31 151 LINE"
);
}
);
};
guideLines = (
{
angle = 83;
position = "{45, 274}";
}
);
layerId = "747A0BA5-337F-45E8-9896-B2CAF0968805";
paths = (
{
closed = 1;
nodes = (
"449 -16 OFFCURVE",
"557 90 OFFCURVE",
"557 239 CURVE SMOOTH",
"557 359 OFFCURVE",
"467 441 OFFCURVE",
"365 444 CURVE SMOOTH",
"221 448 OFFCURVE",
"147 345 OFFCURVE",
"131 305 CURVE",
"212 283 LINE",
"282 694 LINE",
"99 694 LINE",
"131 532 LINE",
"515 532 LINE",
"515 700 LINE",
"99 700 LINE",
"49 305 LINE",
"215 269 LINE",
"226 289 OFFCURVE",
"248 308 OFFCURVE",
"282 308 CURVE SMOOTH",
"332 308 OFFCURVE",
"364 270 OFFCURVE",
"364 227 CURVE SMOOTH",
"364 178 OFFCURVE",
"331 146 OFFCURVE",
"283 146 CURVE SMOOTH",
"251 146 OFFCURVE",
"220 159 OFFCURVE",
"209 187 CURVE",
"30 151 LINE",
"58 47 OFFCURVE",
"186 -16 OFFCURVE",
"296 -16 CURVE SMOOTH"
);
}
);
width = 587;
},
{
associatedMasterId = "747A0BA5-337F-45E8-9896-B2CAF0968805";
background = {
paths = (
{
closed = 1;
nodes = (
"314 150 OFFCURVE",
"344 180 OFFCURVE",
"344 217 CURVE SMOOTH",
"344 253 OFFCURVE",
"314 283 OFFCURVE",
"278 283 CURVE SMOOTH",
"241 283 OFFCURVE",
"211 253 OFFCURVE",
"211 217 CURVE SMOOTH",
"211 180 OFFCURVE",
"241 150 OFFCURVE",
"278 150 CURVE SMOOTH"
);
}
);
};
layerId = "28C4825A-2F02-4BC9-AE4A-319046E5176A";
name = "16 Jun 21, 21:37";
paths = (
{
closed = 1;
nodes = (
"100 33 OFFCURVE",
"204 -16 OFFCURVE",
"292 -16 CURVE SMOOTH",
"436 -16 OFFCURVE",
"537 78 OFFCURVE",
"537 210 CURVE SMOOTH",
"537 343 OFFCURVE",
"438 437 OFFCURVE",
"298 437 CURVE SMOOTH",
"219 437 OFFCURVE",
"122 382 OFFCURVE",
"63 304 CURVE",
"243 297 LINE",
"276 694 LINE",
"88 694 LINE",
"120 537 LINE",
"504 537 LINE",
"504 700 LINE",
"88 700 LINE",
"56 305 LINE",
"219 251 LINE",
"230 270 OFFCURVE",
"256 283 OFFCURVE",
"281 283 CURVE SMOOTH",
"318 283 OFFCURVE",
"344 256 OFFCURVE",
"344 217 CURVE SMOOTH",
"344 178 OFFCURVE",
"318 150 OFFCURVE",
"281 150 CURVE SMOOTH",
"253 150 OFFCURVE",
"226 166 OFFCURVE",
"216 188 CURVE",
"40 103 LINE"
);
}
);
width = 567;
}
);
unicode = 0035;
},
{
glyphname = six;
lastChange = "2021-08-02 04:21:10 +0000";
layers = (
{
background = {
paths = (
{
closed = 0;
nodes = (
"65 211 LINE",
"65 78 OFFCURVE",
"162 -16 OFFCURVE",
"298 -16 CURVE SMOOTH"
);
}
);
};
layerId = m01;
paths = (
{
closed = 1;
nodes = (
"434 -16 OFFCURVE",
"530 78 OFFCURVE",
"530 211 CURVE SMOOTH",
"530 343 OFFCURVE",
"434 437 OFFCURVE",
"298 437 CURVE SMOOTH",
"199 437 OFFCURVE",
"122 384 OFFCURVE",
"90 300 CURVE",
"104 283 LINE",
"94 521 OFFCURVE",
"176 658 OFFCURVE",
"321 658 CURVE SMOOTH",
"369 658 OFFCURVE",
"422 640 OFFCURVE",
"465 609 CURVE",
"504 654 LINE",
"451 693 OFFCURVE",
"379 716 OFFCURVE",
"311 716 CURVE SMOOTH",
"143 716 OFFCURVE",
"48 573 OFFCURVE",
"48 334 CURVE SMOOTH",
"48 150 OFFCURVE",
"102 -16 OFFCURVE",
"298 -16 CURVE SMOOTH"
);
},
{
closed = 1;
nodes = (
"199 42 OFFCURVE",
"129 112 OFFCURVE",
"129 211 CURVE SMOOTH",
"129 309 OFFCURVE",
"199 379 OFFCURVE",
"298 379 CURVE SMOOTH",
"396 379 OFFCURVE",
"466 309 OFFCURVE",
"466 211 CURVE SMOOTH",
"466 112 OFFCURVE",
"396 42 OFFCURVE",
"298 42 CURVE SMOOTH"
);
}
);
width = 560;
},
{
layerId = "747A0BA5-337F-45E8-9896-B2CAF0968805";
paths = (
{
closed = 1;
nodes = (
"462 -16 OFFCURVE",
"563 83 OFFCURVE",
"563 212 CURVE SMOOTH",
"563 346 OFFCURVE",
"469 457 OFFCURVE",
"337 457 CURVE SMOOTH",
"256 457 OFFCURVE",
"197 402 OFFCURVE",
"166 336 CURVE",
"189 322 LINE",
"189 496 OFFCURVE",
"239 551 OFFCURVE",
"330 551 CURVE SMOOTH",
"363 551 OFFCURVE",
"413 541 OFFCURVE",
"454 514 CURVE",
"539 651 LINE",
"482 690 OFFCURVE",
"409 712 OFFCURVE",
"332 712 CURVE SMOOTH",
"80 712 OFFCURVE",
"30 508 OFFCURVE",
"30 305 CURVE SMOOTH",
"30 124 OFFCURVE",
"116 -16 OFFCURVE",
"299 -16 CURVE SMOOTH"
);
},
{
closed = 1;
nodes = (
"255 142 OFFCURVE",
"219 178 OFFCURVE",
"219 224 CURVE SMOOTH",
"219 271 OFFCURVE",
"255 310 OFFCURVE",
"300 310 CURVE SMOOTH",
"344 310 OFFCURVE",
"379 271 OFFCURVE",
"379 224 CURVE SMOOTH",
"379 178 OFFCURVE",
"344 142 OFFCURVE",
"300 142 CURVE SMOOTH"
);
}
);
width = 593;
},
{
associatedMasterId = "747A0BA5-337F-45E8-9896-B2CAF0968805";
background = {
paths = (
{
closed = 0;
nodes = (
"53 217 LINE",
"53 91 OFFCURVE",
"170 -16 OFFCURVE",
"309 -16 CURVE SMOOTH"
);
}
);
};
layerId = "B53FA7EA-42AA-40C9-BF76-8CE3E8D46E84";
name = "16 Jun 21, 20:24";
paths = (
{
closed = 1;
nodes = (
"447 -16 OFFCURVE",
"564 91 OFFCURVE",
"564 217 CURVE SMOOTH",
"564 343 OFFCURVE",
"454 450 OFFCURVE",
"323 450 CURVE SMOOTH",
"223 450 OFFCURVE",
"129 343 OFFCURVE",
"119 217 CURVE",
"56 180 LINE",
"76 74 OFFCURVE",
"180 -16 OFFCURVE",
"309 -16 CURVE SMOOTH"
);
},
{
closed = 1;
nodes = (
"272 151 OFFCURVE",
"243 180 OFFCURVE",
"243 217 CURVE SMOOTH",
"243 253 OFFCURVE",
"272 282 OFFCURVE",
"309 282 CURVE SMOOTH",
"345 282 OFFCURVE",
"374 253 OFFCURVE",
"374 217 CURVE SMOOTH",
"374 180 OFFCURVE",
"345 151 OFFCURVE",
"309 151 CURVE SMOOTH"
);
},
{
closed = 1;
nodes = (
"206 195 LINE",
"188 421 OFFCURVE",
"245 554 OFFCURVE",
"359 554 CURVE SMOOTH",
"383 554 OFFCURVE",
"417 542 OFFCURVE",
"450 523 CURVE",
"542 652 LINE",
"489 691 OFFCURVE",
"417 714 OFFCURVE",
"349 714 CURVE SMOOTH",
"142 714 OFFCURVE",
"38 543 OFFCURVE",
"38 335 CURVE SMOOTH",
"38 285 OFFCURVE",
"38 236 OFFCURVE",
"56 180 CURVE"
);
}
);
width = 594;
},
{
associatedMasterId = m01;
background = {
paths = (
{
closed = 0;
nodes = (
"65 211 LINE",
"65 78 OFFCURVE",
"162 -16 OFFCURVE",
"298 -16 CURVE SMOOTH"
);
}
);
};
layerId = "EA0B3C30-4F11-4A04-AE54-5020CFB11B9D";
name = "16 Jun 21, 21:24";
paths = (
{
closed = 1;
nodes = (
"434 -16 OFFCURVE",
"530 78 OFFCURVE",
"530 211 CURVE SMOOTH",
"530 343 OFFCURVE",
"434 437 OFFCURVE",
"298 437 CURVE SMOOTH",
"167 437 OFFCURVE",
"75 343 OFFCURVE",
"75 211 CURVE",
"69 163 LINE",
"95 51 OFFCURVE",
"180 -16 OFFCURVE",
"298 -16 CURVE SMOOTH"
);
},
{
closed = 1;
nodes = (
"199 42 OFFCURVE",
"129 112 OFFCURVE",
"129 211 CURVE SMOOTH",
"129 309 OFFCURVE",
"199 379 OFFCURVE",
"298 379 CURVE SMOOTH",
"396 379 OFFCURVE",
"466 309 OFFCURVE",
"466 211 CURVE SMOOTH",
"466 112 OFFCURVE",
"396 42 OFFCURVE",
"298 42 CURVE SMOOTH"
);
},
{
closed = 1;
nodes = (
"114 171 LINE",
"72 477 OFFCURVE",
"154 658 OFFCURVE",
"321 658 CURVE SMOOTH",
"369 658 OFFCURVE",
"422 640 OFFCURVE",
"465 609 CURVE",
"504 654 LINE",
"451 693 OFFCURVE",
"379 716 OFFCURVE",
"311 716 CURVE SMOOTH",
"143 716 OFFCURVE",
"48 573 OFFCURVE",
"48 334 CURVE SMOOTH",
"48 281 OFFCURVE",
"52 224 OFFCURVE",
"69 163 CURVE"
);
}
);
width = 560;
}
);
unicode = 0036;
},
{
glyphname = seven;
lastChange = "2021-08-02 05:26:51 +0000";
layers = (
{
layerId = m01;
paths = (
{
closed = 1;
nodes = (
"148 0 LINE",
"500 642 LINE",
"446 672 LINE",
"77 0 LINE"
);
},
{
closed = 1;
nodes = (
"463 642 LINE",
"500 642 LINE",
"500 700 LINE",
"45 700 LINE",
"45 642 LINE"
);
}
);
width = 530;
},
{
layerId = "747A0BA5-337F-45E8-9896-B2CAF0968805";
paths = (
{
closed = 1;
nodes = (
"309 0 LINE",
"543 570 LINE",
"337 530 LINE",
"104 0 LINE"
);
},
{
closed = 1;
nodes = (
"337 530 LINE",
"543 570 LINE",
"543 700 LINE",
"25 700 LINE",
"25 530 LINE"
);
}
);
width = 573;
}
);
unicode = 0037;
},
{
glyphname = eight;
lastChange = "2021-08-11 05:51:13 +0000";
layers = (
{
layerId = m01;
paths = (
{
closed = 1;
nodes = (
"436 337 OFFCURVE",
"528 414 OFFCURVE",
"528 524 CURVE SMOOTH",
"528 636 OFFCURVE",
"436 716 OFFCURVE",
"307 716 CURVE SMOOTH",
"178 716 OFFCURVE",
"87 636 OFFCURVE",
"87 524 CURVE SMOOTH",
"87 414 OFFCURVE",
"178 337 OFFCURVE",
"307 337 CURVE SMOOTH"
);
},
{
closed = 1;
nodes = (
"216 394 OFFCURVE",
"151 446 OFFCURVE",
"151 519 CURVE SMOOTH",
"151 600 OFFCURVE",
"216 658 OFFCURVE",
"307 658 CURVE SMOOTH",
"399 658 OFFCURVE",
"464 600 OFFCURVE",
"464 519 CURVE SMOOTH",
"464 446 OFFCURVE",
"399 394 OFFCURVE",
"307 394 CURVE SMOOTH"
);
},
{
closed = 1;
nodes = (
"452 -16 OFFCURVE",
"555 65 OFFCURVE",
"555 180 CURVE SMOOTH",
"555 299 OFFCURVE",
"452 384 OFFCURVE",
"307 384 CURVE SMOOTH",
"162 384 OFFCURVE",
"60 299 OFFCURVE",
"60 180 CURVE SMOOTH",
"60 65 OFFCURVE",
"162 -16 OFFCURVE",
"307 -16 CURVE SMOOTH"
);
},
{
closed = 1;
nodes = (
"200 42 OFFCURVE",
"124 101 OFFCURVE",
"124 184 CURVE SMOOTH",
"124 268 OFFCURVE",
"200 327 OFFCURVE",
"307 327 CURVE SMOOTH",
"415 327 OFFCURVE",
"491 268 OFFCURVE",
"491 184 CURVE SMOOTH",
"491 101 OFFCURVE",
"415 42 OFFCURVE",
"307 42 CURVE SMOOTH"
);
}
);
width = 615;
},
{
layerId = "747A0BA5-337F-45E8-9896-B2CAF0968805";
paths = (
{
closed = 1;
nodes = (
"470 337 OFFCURVE",
"560 414 OFFCURVE",
"560 524 CURVE SMOOTH",
"560 636 OFFCURVE",
"470 716 OFFCURVE",
"304 716 CURVE SMOOTH",
"138 716 OFFCURVE",
"50 636 OFFCURVE",
"50 524 CURVE SMOOTH",
"50 414 OFFCURVE",
"138 337 OFFCURVE",
"304 337 CURVE SMOOTH"
);
},
{
closed = 1;
nodes = (
"260 427 OFFCURVE",
"230 457 OFFCURVE",
"230 499 CURVE SMOOTH",
"230 539 OFFCURVE",
"260 567 OFFCURVE",
"304 567 CURVE SMOOTH",
"348 567 OFFCURVE",
"380 539 OFFCURVE",
"380 499 CURVE SMOOTH",
"380 457 OFFCURVE",
"348 427 OFFCURVE",
"304 427 CURVE SMOOTH"
);
},
{
closed = 1;
nodes = (
"489 -16 OFFCURVE",
"580 65 OFFCURVE",
"580 180 CURVE SMOOTH",
"580 307 OFFCURVE",
"489 397 OFFCURVE",
"304 396 CURVE SMOOTH",
"119 397 OFFCURVE",
"30 307 OFFCURVE",
"30 180 CURVE SMOOTH",
"30 65 OFFCURVE",
"119 -16 OFFCURVE",
"304 -16 CURVE SMOOTH"
);
},
{
closed = 1;
nodes = (
"255 140 OFFCURVE",
"220 169 OFFCURVE",
"220 209 CURVE SMOOTH",
"220 257 OFFCURVE",
"255 290 OFFCURVE",
"304 290 CURVE SMOOTH",
"354 290 OFFCURVE",
"390 257 OFFCURVE",
"390 209 CURVE SMOOTH",
"390 169 OFFCURVE",
"354 140 OFFCURVE",
"304 140 CURVE SMOOTH"
);
}
);
width = 610;
}
);
unicode = 0038;
},
{
glyphname = period;
lastChange = "2021-05-23 19:17:10 +0000";
layers = (
{
layerId = m01;
paths = (
{
closed = 1;
nodes = (
"121 -14 OFFCURVE",
"142 7 OFFCURVE",
"142 32 CURVE SMOOTH",
"142 57 OFFCURVE",
"121 78 OFFCURVE",
"96 78 CURVE SMOOTH",
"71 78 OFFCURVE",
"50 57 OFFCURVE",
"50 32 CURVE SMOOTH",
"50 7 OFFCURVE",
"71 -14 OFFCURVE",
"96 -14 CURVE SMOOTH"
);
}
);
width = 192;
},
{
layerId = "747A0BA5-337F-45E8-9896-B2CAF0968805";
paths = (
{
closed = 1;
nodes = (
"199 -15 OFFCURVE",
"246 32 OFFCURVE",
"246 88 CURVE SMOOTH",
"246 144 OFFCURVE",
"199 191 OFFCURVE",
"143 191 CURVE SMOOTH",
"87 191 OFFCURVE",
"40 144 OFFCURVE",
"40 88 CURVE SMOOTH",
"40 32 OFFCURVE",
"87 -15 OFFCURVE",
"143 -15 CURVE SMOOTH"
);
}
);
width = 286;
}
);
unicode = 002E;
},
{
glyphname = comma;
lastChange = "2021-08-02 04:21:10 +0000";
layers = (
{
layerId = m01;
paths = (
{
closed = 1;
nodes = (
"101 -116 LINE",
"171 86 LINE",
"100 86 LINE",
"45 -116 LINE"
);
}
);
width = 214;
},
{
layerId = "747A0BA5-337F-45E8-9896-B2CAF0968805";
paths = (
{
closed = 1;
nodes = (
"148 -113 LINE",
"264 146 LINE",
"84 146 LINE",
"18 -113 LINE"
);
}
);
width = 286;
}
);
unicode = 002C;
},
{
glyphname = colon;
lastChange = "2021-05-23 18:24:12 +0000";
layers = (
{
layerId = m01;
paths = (
{
closed = 1;
nodes = (
"141 410 OFFCURVE",
"162 431 OFFCURVE",
"162 456 CURVE SMOOTH",
"162 481 OFFCURVE",
"141 502 OFFCURVE",
"116 502 CURVE SMOOTH",
"91 502 OFFCURVE",
"70 481 OFFCURVE",
"70 456 CURVE SMOOTH",
"70 431 OFFCURVE",
"91 410 OFFCURVE",
"116 410 CURVE SMOOTH"
);
},
{
closed = 1;
nodes = (
"143 -2 OFFCURVE",
"164 19 OFFCURVE",
"164 44 CURVE SMOOTH",
"164 69 OFFCURVE",
"143 90 OFFCURVE",
"118 90 CURVE SMOOTH",
"93 90 OFFCURVE",
"72 69 OFFCURVE",
"72 44 CURVE SMOOTH",
"72 19 OFFCURVE",
"93 -2 OFFCURVE",
"118 -2 CURVE SMOOTH"
);
}
);
width = 234;
},
{
layerId = "747A0BA5-337F-45E8-9896-B2CAF0968805";
paths = (
{
closed = 1;
nodes = (
"229 294 OFFCURVE",
"276 341 OFFCURVE",
"276 397 CURVE SMOOTH",
"276 453 OFFCURVE",
"229 500 OFFCURVE",
"173 500 CURVE SMOOTH",
"117 500 OFFCURVE",
"70 453 OFFCURVE",
"70 397 CURVE SMOOTH",
"70 341 OFFCURVE",
"117 294 OFFCURVE",
"173 294 CURVE SMOOTH"
);
},
{
closed = 1;
nodes = (
"229 -1 OFFCURVE",
"276 46 OFFCURVE",
"276 102 CURVE SMOOTH",
"276 158 OFFCURVE",
"229 205 OFFCURVE",
"173 205 CURVE SMOOTH",
"117 205 OFFCURVE",
"70 158 OFFCURVE",
"70 102 CURVE SMOOTH",
"70 46 OFFCURVE",
"117 -1 OFFCURVE",
"173 -1 CURVE SMOOTH"
);
}
);
width = 346;
}
);
unicode = 003A;
},
{
glyphname = semicolon;
lastChange = "2021-06-28 05:17:43 +0000";
layers = (
{
components = (
{
name = comma;
}
);
layerId = m01;
paths = (
{
closed = 1;
nodes = (
"137 410 OFFCURVE",
"158 431 OFFCURVE",
"158 456 CURVE SMOOTH",
"158 481 OFFCURVE",
"137 502 OFFCURVE",
"112 502 CURVE SMOOTH",
"87 502 OFFCURVE",
"66 481 OFFCURVE",
"66 456 CURVE SMOOTH",
"66 431 OFFCURVE",
"87 410 OFFCURVE",
"112 410 CURVE SMOOTH"
);
}
);
width = 241;
},
{
components = (
{
name = comma;
transform = "{1, 0, 0, 1, 10, 0}";
}
);
layerId = "747A0BA5-337F-45E8-9896-B2CAF0968805";
paths = (
{
closed = 1;
nodes = (
"230 290 OFFCURVE",
"277 337 OFFCURVE",
"277 393 CURVE SMOOTH",
"277 449 OFFCURVE",
"230 496 OFFCURVE",
"174 496 CURVE SMOOTH",
"118 496 OFFCURVE",
"71 449 OFFCURVE",
"71 393 CURVE SMOOTH",
"71 337 OFFCURVE",
"118 290 OFFCURVE",
"174 290 CURVE SMOOTH"
);
}
);
width = 347;
}
);
rightMetricsKey = colon;
unicode = 003B;
},
{
glyphname = exclam;
lastChange = "2021-05-23 18:09:34 +0000";
layers = (
{
layerId = m01;
paths = (
{
closed = 1;
nodes = (
"178 193 LINE",
"178 700 LINE",
"114 700 LINE",
"114 193 LINE"
);
},
{
closed = 1;
nodes = (
"171 -14 OFFCURVE",
"192 7 OFFCURVE",
"192 32 CURVE SMOOTH",
"192 57 OFFCURVE",
"171 78 OFFCURVE",
"146 78 CURVE SMOOTH",
"121 78 OFFCURVE",
"100 57 OFFCURVE",
"100 32 CURVE SMOOTH",
"100 7 OFFCURVE",
"121 -14 OFFCURVE",
"146 -14 CURVE SMOOTH"
);
}
);
width = 292;
},
{
layerId = "747A0BA5-337F-45E8-9896-B2CAF0968805";
paths = (
{
closed = 1;
nodes = (
"258 251 LINE",
"273 700 LINE",
"73 700 LINE",
"88 251 LINE"
);
},
{
closed = 1;
nodes = (
"229 -16 OFFCURVE",
"276 31 OFFCURVE",
"276 87 CURVE SMOOTH",
"276 143 OFFCURVE",
"229 190 OFFCURVE",
"173 190 CURVE SMOOTH",
"117 190 OFFCURVE",
"70 143 OFFCURVE",
"70 87 CURVE SMOOTH",
"70 31 OFFCURVE",
"117 -16 OFFCURVE",
"173 -16 CURVE SMOOTH"
);
}
);
width = 346;
}
);
leftMetricsKey = I;
rightMetricsKey = I;
unicode = 0021;
},
{
glyphname = question;
lastChange = "2021-08-02 04:20:55 +0000";
layers = (
{
layerId = m01;
paths = (
{
closed = 1;
nodes = (
"224 284 LINE SMOOTH",
"351 284 OFFCURVE",
"440 375 OFFCURVE",
"440 504 CURVE SMOOTH",
"440 628 OFFCURVE",
"350 716 OFFCURVE",
"222 716 CURVE SMOOTH",
"149 716 OFFCURVE",
"73 668 OFFCURVE",
"40 601 CURVE",
"96 581 LINE",
"120 626 OFFCURVE",
"172 658 OFFCURVE",
"222 658 CURVE SMOOTH",
"312 658 OFFCURVE",
"376 594 OFFCURVE",
"376 504 CURVE SMOOTH",
"376 409 OFFCURVE",
"313 342 OFFCURVE",
"224 342 CURVE SMOOTH",
"180 342 LINE",
"180 284 LINE"
);
},
{
closed = 1;
nodes = (
"239 -14 OFFCURVE",
"258 5 OFFCURVE",
"258 32 CURVE SMOOTH",
"258 59 OFFCURVE",
"239 78 OFFCURVE",
"212 78 CURVE SMOOTH",
"185 78 OFFCURVE",
"166 59 OFFCURVE",
"166 32 CURVE SMOOTH",
"166 5 OFFCURVE",
"185 -14 OFFCURVE",
"212 -14 CURVE SMOOTH"
);
},
{
closed = 1;
nodes = (
"244 193 LINE",
"244 342 LINE",
"180 342 LINE",
"180 193 LINE"
);
}
);
width = 470;
},
{
layerId = "747A0BA5-337F-45E8-9896-B2CAF0968805";
paths = (
{
closed = 1;
nodes = (
"262 264 LINE SMOOTH",
"388 264 OFFCURVE",
"476 347 OFFCURVE",
"476 478 CURVE SMOOTH",
"476 617 OFFCURVE",
"375 715 OFFCURVE",
"233 715 CURVE SMOOTH",
"151 715 OFFCURVE",
"67 662 OFFCURVE",
"30 586 CURVE",
"174 512 LINE",
"183 531 OFFCURVE",
"208 545 OFFCURVE",
"233 545 CURVE SMOOTH",
"282 545 OFFCURVE",
"316 517 OFFCURVE",
"316 478 CURVE SMOOTH",
"316 420 OFFCURVE",
"283 397 OFFCURVE",
"236 392 CURVE SMOOTH",
"143 383 LINE",
"148 264 LINE"
);
},
{
closed = 1;
nodes = (
"290 -15 OFFCURVE",
"337 32 OFFCURVE",
"337 88 CURVE SMOOTH",
"337 144 OFFCURVE",
"290 191 OFFCURVE",
"234 191 CURVE SMOOTH",
"178 191 OFFCURVE",
"131 144 OFFCURVE",
"131 88 CURVE SMOOTH",
"131 32 OFFCURVE",
"178 -15 OFFCURVE",
"234 -15 CURVE SMOOTH"
);
},
{
closed = 1;
nodes = (
"318 213 LINE",
"323 342 LINE",
"145 342 LINE",
"150 213 LINE"
);
}
);
width = 496;
}
);
unicode = 003F;
},
{
glyphname = bullet;
lastChange = "2021-05-23 18:15:48 +0000";
layers = (
{
layerId = m01;
paths = (
{
closed = 1;
nodes = (
"302 183 OFFCURVE",
"348 229 OFFCURVE",
"348 282 CURVE SMOOTH",
"348 336 OFFCURVE",
"302 380 OFFCURVE",
"249 380 CURVE SMOOTH",
"195 380 OFFCURVE",
"151 336 OFFCURVE",
"151 282 CURVE SMOOTH",
"151 229 OFFCURVE",
"195 183 OFFCURVE",
"249 183 CURVE SMOOTH"
);
}
);
width = 500;
},
{
layerId = "747A0BA5-337F-45E8-9896-B2CAF0968805";
paths = (
{
closed = 1;
nodes = (
"298 155 OFFCURVE",
"358 214 OFFCURVE",
"358 288 CURVE SMOOTH",
"358 361 OFFCURVE",
"298 420 OFFCURVE",
"223 420 CURVE SMOOTH",
"149 420 OFFCURVE",
"89 361 OFFCURVE",
"89 288 CURVE SMOOTH",
"89 214 OFFCURVE",
"149 155 OFFCURVE",
"223 155 CURVE SMOOTH"
);
}
);
width = 460;
}
);
unicode = 2022;
},
{
glyphname = asterisk;
lastChange = "2021-08-02 04:21:10 +0000";
layers = (
{
layerId = m01;
paths = (
{
closed = 1;
nodes = (
"366 432 LINE",
"263 565 LINE",
"223 537 LINE",
"317 397 LINE"
);
},
{
closed = 1;
nodes = (
"259 533 LINE",
"220 562 LINE",
"116 430 LINE",
"165 394 LINE"
);
},
{
closed = 1;
nodes = (
"247 572 LINE",
"89 630 LINE",
"70 572 LINE",
"231 526 LINE"
);
},
{
closed = 1;
nodes = (
"263 548 LINE",
"269 716 LINE",
"209 716 LINE",
"215 548 LINE"
);
},
{
closed = 1;
nodes = (
"408 571 LINE",
"390 628 LINE",
"232 571 LINE",
"246 525 LINE"
);
}
);
width = 478;
},
{
layerId = "747A0BA5-337F-45E8-9896-B2CAF0968805";
paths = (
{
closed = 1;
nodes = (
"412 395 LINE",
"279 543 LINE",
"215 496 LINE",
"315 324 LINE"
);
},
{
closed = 1;
nodes = (
"280 495 LINE",
"215 542 LINE",
"83 393 LINE",
"180 323 LINE"
);
},
{
closed = 1;
nodes = (
"259 556 LINE",
"77 636 LINE",
"40 522 LINE",
"235 480 LINE"
);
},
{
closed = 1;
nodes = (
"287 518 LINE",
"307 716 LINE",
"187 716 LINE",
"207 518 LINE"
);
},
{
closed = 1;
nodes = (
"454 522 LINE",
"417 636 LINE",
"235 556 LINE",
"259 480 LINE"
);
}
);
width = 494;
}
);
unicode = 002A;
},
{
glyphname = numbersign;
lastChange = "2021-08-02 04:21:10 +0000";
layers = (
{
layerId = m01;
paths = (
{
closed = 1;
nodes = (
"400 0 LINE",
"510 700 LINE",
"458 700 LINE",
"348 0 LINE"
);
},
{
closed = 1;
nodes = (
"572 200 LINE",
"578 242 LINE",
"16 242 LINE",
"10 200 LINE"
);
},
{
closed = 1;
nodes = (
"170 0 LINE",
"280 700 LINE",
"228 700 LINE",
"118 0 LINE"
);
},
{
closed = 1;
nodes = (
"612 458 LINE",
"618 500 LINE",
"56 500 LINE",
"50 458 LINE"
);
}
);
width = 628;
},
{
layerId = "747A0BA5-337F-45E8-9896-B2CAF0968805";
paths = (
{
closed = 1;
nodes = (
"430 0 LINE",
"540 700 LINE",
"413 700 LINE",
"303 0 LINE"
);
},
{
closed = 1;
nodes = (
"572 169 LINE",
"590 295 LINE",
"28 295 LINE",
"10 169 LINE"
);
},
{
closed = 1;
nodes = (
"225 0 LINE",
"335 700 LINE",
"208 700 LINE",
"98 0 LINE"
);
},
{
closed = 1;
nodes = (
"600 373 LINE",
"623 500 LINE",
"61 500 LINE",
"38 373 LINE"
);
}
);
width = 633;
}
);
unicode = 0023;
},
{
glyphname = slash;
lastChange = "2021-05-23 18:18:52 +0000";
layers = (
{
layerId = m01;
paths = (
{
closed = 1;
nodes = (
"83 -84 LINE",
"357 747 LINE",
"291 747 LINE",
"15 -84 LINE"
);
}
);
width = 372;
},
{
layerId = "747A0BA5-337F-45E8-9896-B2CAF0968805";
paths = (
{
closed = 1;
nodes = (
"183 -84 LINE",
"457 747 LINE",
"291 747 LINE",
"15 -84 LINE"
);
}
);
width = 472;
}
);
unicode = 002F;
},
{
glyphname = hyphen;
lastChange = "2021-08-02 04:21:10 +0000";
layers = (
{
layerId = m01;
paths = (
{
closed = 1;
nodes = (
"360 269 LINE",
"360 326 LINE",
"60 326 LINE",
"60 269 LINE"
);
}
);
width = 420;
},
{
layerId = "747A0BA5-337F-45E8-9896-B2CAF0968805";
paths = (
{
closed = 1;
nodes = (
"350 223 LINE",
"350 373 LINE",
"50 373 LINE",
"50 223 LINE"
);
}
);
width = 400;
}
);
unicode = 002D;
},
{
glyphname = endash;
lastChange = "2021-08-02 04:21:10 +0000";
layers = (
{
layerId = m01;
paths = (
{
closed = 1;
nodes = (
"550 269 LINE",
"550 326 LINE",
"0 326 LINE",
"0 269 LINE"
);
}
);
width = 550;
},
{
layerId = "747A0BA5-337F-45E8-9896-B2CAF0968805";
paths = (
{
closed = 1;
nodes = (
"550 223 LINE",
"550 373 LINE",
"0 373 LINE",
"0 223 LINE"
);
}
);
width = 550;
}
);
unicode = 2013;
},
{
glyphname = emdash;
lastChange = "2021-08-02 04:21:10 +0000";
layers = (
{
layerId = m01;
paths = (
{
closed = 1;
nodes = (
"1100 269 LINE",
"1100 326 LINE",
"0 326 LINE",
"0 269 LINE"
);
}
);
width = 1100;
},
{
layerId = "747A0BA5-337F-45E8-9896-B2CAF0968805";
paths = (
{
closed = 1;
nodes = (
"1100 223 LINE",
"1100 373 LINE",
"0 373 LINE",
"0 223 LINE"
);
}
);
width = 1100;
}
);
unicode = 2014;
},
{
glyphname = underscore;
lastChange = "2021-08-02 04:21:10 +0000";
layers = (
{
layerId = m01;
paths = (
{
closed = 1;
nodes = (
"420 -57 LINE",
"420 0 LINE",
"20 0 LINE",
"20 -57 LINE"
);
}
);
width = 440;
},
{
layerId = "747A0BA5-337F-45E8-9896-B2CAF0968805";
paths = (
{
closed = 1;
nodes = (
"415 -150 LINE",
"415 0 LINE",
"15 0 LINE",
"15 -150 LINE"
);
}
);
width = 430;
}
);
unicode = 005F;
},
{
glyphname = parenleft;
lastChange = "2021-08-02 04:21:10 +0000";
layers = (
{
layerId = m01;
paths = (
{
closed = 1;
nodes = (
"290 -100 LINE",
"197 29 OFFCURVE",
"124 185 OFFCURVE",
"124 350 CURVE SMOOTH",
"124 515 OFFCURVE",
"197 671 OFFCURVE",
"290 800 CURVE",
"226 800 LINE",
"133 678 OFFCURVE",
"60 523 OFFCURVE",
"60 350 CURVE SMOOTH",
"60 177 OFFCURVE",
"133 22 OFFCURVE",
"226 -100 CURVE"
);
}
);
width = 340;
},
{
layerId = "747A0BA5-337F-45E8-9896-B2CAF0968805";
paths = (
{
closed = 1;
nodes = (
"380 -100 LINE",
"287 29 OFFCURVE",
"214 185 OFFCURVE",
"214 350 CURVE SMOOTH",
"214 515 OFFCURVE",
"287 671 OFFCURVE",
"380 800 CURVE",
"206 800 LINE",
"113 678 OFFCURVE",
"40 523 OFFCURVE",
"40 350 CURVE SMOOTH",
"40 177 OFFCURVE",
"113 22 OFFCURVE",
"206 -100 CURVE"
);
}
);
width = 410;
}
);
unicode = 0028;
},
{
glyphname = braceleft;
lastChange = "2021-08-02 04:21:10 +0000";
layers = (
{
background = {
paths = (
{
closed = 1;
nodes = (
"305 -52 LINE",
"202 -27 OFFCURVE",
"130 139 OFFCURVE",
"130 350 CURVE SMOOTH",
"130 561 OFFCURVE",
"201 727 OFFCURVE",
"302 752 CURVE",
"292 800 LINE",
"160 778 OFFCURVE",
"66 592 OFFCURVE",
"66 350 CURVE SMOOTH",
"66 108 OFFCURVE",
"161 -78 OFFCURVE",
"295 -100 CURVE"
);
}
);
};
layerId = m01;
paths = (
{
closed = 1;
nodes = (
"191 339 OFFCURVE",
"224 374 OFFCURVE",
"224 513 CURVE SMOOTH",
"224 694 OFFCURVE",
"244 740 OFFCURVE",
"322 742 CURVE",
"322 800 LINE",
"192 800 OFFCURVE",
"160 742 OFFCURVE",
"160 512 CURVE SMOOTH",
"160 402 OFFCURVE",
"140 375 OFFCURVE",
"60 375 CURVE",
"60 339 LINE"
);
},
{
closed = 1;
nodes = (
"322 -42 LINE",
"244 -40 OFFCURVE",
"224 6 OFFCURVE",
"224 187 CURVE SMOOTH",
"224 326 OFFCURVE",
"191 361 OFFCURVE",
"60 361 CURVE",
"60 325 LINE",
"140 325 OFFCURVE",
"160 298 OFFCURVE",
"160 188 CURVE SMOOTH",
"160 -42 OFFCURVE",
"192 -100 OFFCURVE",
"322 -100 CURVE"
);
}
);
width = 382;
},
{
layerId = "747A0BA5-337F-45E8-9896-B2CAF0968805";
paths = (
{
closed = 1;
nodes = (
"242 339 OFFCURVE",
"290 374 OFFCURVE",
"290 513 CURVE SMOOTH",
"290 631 OFFCURVE",
"302 661 OFFCURVE",
"352 662 CURVE",
"352 800 LINE",
"182 800 OFFCURVE",
"140 742 OFFCURVE",
"140 512 CURVE SMOOTH",
"140 434 OFFCURVE",
"122 415 OFFCURVE",
"50 415 CURVE",
"50 339 LINE"
);
},
{
closed = 1;
nodes = (
"352 38 LINE",
"303 39 OFFCURVE",
"291 69 OFFCURVE",
"291 187 CURVE SMOOTH",
"291 326 OFFCURVE",
"243 361 OFFCURVE",
"50 361 CURVE",
"50 285 LINE",
"122 285 OFFCURVE",
"140 266 OFFCURVE",
"140 188 CURVE SMOOTH",
"140 -42 OFFCURVE",
"182 -100 OFFCURVE",
"352 -100 CURVE"
);
}
);
width = 402;
}
);
unicode = 007B;
},
{
glyphname = bracketleft;
lastChange = "2021-08-02 04:21:10 +0000";
layers = (
{
background = {
paths = (
{
closed = 1;
nodes = (
"94 402 OFFCURVE",
"74 375 OFFCURVE",
"-6 375 CURVE",
"-6 339 LINE",
"125 339 OFFCURVE",
"158 374 OFFCURVE",
"158 513 CURVE SMOOTH",
"158 694 OFFCURVE",
"174 740 OFFCURVE",
"236 742 CURVE",
"236 800 LINE",
"122 800 OFFCURVE",
"94 742 OFFCURVE",
"94 512 CURVE SMOOTH"
);
},
{
closed = 1;
nodes = (
"94 -42 OFFCURVE",
"122 -100 OFFCURVE",
"236 -100 CURVE",
"236 -42 LINE",
"174 -40 OFFCURVE",
"158 6 OFFCURVE",
"158 187 CURVE SMOOTH",
"158 326 OFFCURVE",
"125 361 OFFCURVE",
"-6 361 CURVE",
"-6 325 LINE",
"74 325 OFFCURVE",
"94 298 OFFCURVE",
"94 188 CURVE SMOOTH"
);
}
);
};
layerId = m01;
paths = (
{
closed = 1;
nodes = (
"236 -100 LINE",
"236 -42 LINE",
"164 -42 LINE",
"164 742 LINE",
"236 742 LINE",
"236 800 LINE",
"100 800 LINE",
"100 -100 LINE"
);
}
);
width = 316;
},
{
layerId = "747A0BA5-337F-45E8-9896-B2CAF0968805";
paths = (
{
closed = 1;
nodes = (
"332 -100 LINE",
"332 60 LINE",
"220 60 LINE",
"220 640 LINE",
"332 640 LINE",
"332 800 LINE",
"70 800 LINE",
"70 -100 LINE"
);
}
);
width = 382;
}
);
leftMetricsKey = I;
rightMetricsKey = "=I-20";
unicode = 005B;
},
{
glyphname = quotesingle;
lastChange = "2021-08-02 04:21:10 +0000";
layers = (
{
layerId = m01;
paths = (
{
closed = 1;
nodes = (
"117 490 LINE",
"122 716 LINE",
"60 716 LINE",
"65 490 LINE"
);
}
);
width = 182;
},
{
layerId = "747A0BA5-337F-45E8-9896-B2CAF0968805";
paths = (
{
closed = 1;
nodes = (
"207 440 LINE",
"227 716 LINE",
"60 716 LINE",
"80 440 LINE"
);
}
);
width = 287;
}
);
unicode = 0027;
},
{
glyphname = at;
lastChange = "2021-08-02 04:21:20 +0000";
layers = (
{
layerId = m01;
paths = (
{
closed = 1;
nodes = (
"574 -213 OFFCURVE",
"657 -194 OFFCURVE",
"713 -166 CURVE",
"685 -119 LINE",
"639 -140 OFFCURVE",
"568 -155 OFFCURVE",
"514 -155 CURVE SMOOTH",
"280 -155 OFFCURVE",
"114 14 OFFCURVE",
"114 252 CURVE SMOOTH",
"114 489 OFFCURVE",
"280 657 OFFCURVE",
"514 657 CURVE SMOOTH",
"725 657 OFFCURVE",
"874 489 OFFCURVE",
"874 252 CURVE",
"938 252 LINE",
"938 523 OFFCURVE",
"762 715 OFFCURVE",
"514 715 CURVE SMOOTH",
"242 715 OFFCURVE",
"50 523 OFFCURVE",
"50 252 CURVE SMOOTH",
"50 -20 OFFCURVE",
"242 -213 OFFCURVE",
"514 -213 CURVE SMOOTH"
);
},
{
closed = 1;
nodes = (
"592 15 OFFCURVE",
"682 114 OFFCURVE",
"682 253 CURVE SMOOTH",
"682 392 OFFCURVE",
"592 490 OFFCURVE",
"465 490 CURVE SMOOTH",
"331 490 OFFCURVE",
"237 392 OFFCURVE",
"237 253 CURVE SMOOTH",
"237 114 OFFCURVE",
"331 15 OFFCURVE",
"465 15 CURVE SMOOTH"
);
},
{
closed = 1;
nodes = (
"373 73 OFFCURVE",
"301 148 OFFCURVE",
"301 253 CURVE SMOOTH",
"301 358 OFFCURVE",
"373 432 OFFCURVE",
"475 432 CURVE SMOOTH",
"576 432 OFFCURVE",
"648 358 OFFCURVE",
"648 253 CURVE SMOOTH",
"648 148 OFFCURVE",
"576 73 OFFCURVE",
"475 73 CURVE SMOOTH"
);
},
{
closed = 1;
nodes = (
"861 -15 OFFCURVE",
"938 96 OFFCURVE",
"938 252 CURVE",
"874 252 LINE",
"874 130 OFFCURVE",
"825 43 OFFCURVE",
"755 43 CURVE SMOOTH",
"730 43 OFFCURVE",
"712 67 OFFCURVE",
"712 100 CURVE",
"646 100 LINE",
"646 28 OFFCURVE",
"682 -16 OFFCURVE",
"753 -15 CURVE SMOOTH"
);
},
{
closed = 1;
nodes = (
"712 100 LINE",
"712 479 LINE",
"646 479 LINE",
"646 100 LINE"
);
}
);
width = 988;
},
{
background = {
components = (
{
name = Bowl;
transform = "{0.8957, 0, 0, 0.8957, 298, 28}";
}
);
};
layerId = "747A0BA5-337F-45E8-9896-B2CAF0968805";
paths = (
{
closed = 1;
nodes = (
"580 -208 OFFCURVE",
"660 -182 OFFCURVE",
"716 -146 CURVE",
"645 -49 LINE",
"616 -72 OFFCURVE",
"565 -88 OFFCURVE",
"522 -88 CURVE SMOOTH",
"304 -88 OFFCURVE",
"150 53 OFFCURVE",
"150 252 CURVE SMOOTH",
"150 453 OFFCURVE",
"304 595 OFFCURVE",
"522 595 CURVE SMOOTH",
"716 595 OFFCURVE",
"854 453 OFFCURVE",
"854 252 CURVE",
"974 252 LINE",
"974 523 OFFCURVE",
"787 715 OFFCURVE",
"522 715 CURVE SMOOTH",
"234 715 OFFCURVE",
"30 523 OFFCURVE",
"30 252 CURVE SMOOTH",
"30 -17 OFFCURVE",
"234 -208 OFFCURVE",
"522 -208 CURVE SMOOTH"
);
},
{
closed = 1;
nodes = (
"580 14 OFFCURVE",
"669 113 OFFCURVE",
"669 252 CURVE SMOOTH",
"669 391 OFFCURVE",
"580 489 OFFCURVE",
"455 489 CURVE SMOOTH",
"341 489 OFFCURVE",
"261 391 OFFCURVE",
"261 252 CURVE SMOOTH",
"261 113 OFFCURVE",
"341 14 OFFCURVE",
"455 14 CURVE SMOOTH"
);
},
{
closed = 1;
nodes = (
"464 158 OFFCURVE",
"425 196 OFFCURVE",
"425 253 CURVE SMOOTH",
"425 307 OFFCURVE",
"459 345 OFFCURVE",
"507 345 CURVE SMOOTH",
"557 345 OFFCURVE",
"594 307 OFFCURVE",
"594 252 CURVE SMOOTH",
"594 196 OFFCURVE",
"561 158 OFFCURVE",
"516 158 CURVE SMOOTH"
);
},
{
closed = 1;
nodes = (
"884 -15 OFFCURVE",
"974 96 OFFCURVE",
"974 252 CURVE",
"854 252 LINE",
"854 158 OFFCURVE",
"819 91 OFFCURVE",
"770 91 CURVE SMOOTH",
"745 91 OFFCURVE",
"727 96 OFFCURVE",
"727 130 CURVE",
"597 120 LINE",
"597 41 OFFCURVE",
"669 -15 OFFCURVE",
"756 -15 CURVE SMOOTH"
);
},
{
closed = 1;
nodes = (
"727 130 LINE",
"727 479 LINE",
"587 479 LINE",
"597 120 LINE"
);
}
);
width = 1004;
}
);
leftMetricsKey = O;
rightMetricsKey = O;
unicode = 0040;
},
{
glyphname = ampersand;
lastChange = "2021-08-11 19:23:57 +0000";
layers = (
{
guideLines = (
{
angle = 129.651;
position = "{557, -15}";
},
{
angle = 129.651;
position = "{640, -15}";
},
{
angle = 34.651;
position = "{23, 252}";
},
{
angle = 34.651;
position = "{34, 186}";
}
);
layerId = m01;
paths = (
{
closed = 1;
nodes = (
"448 -15 OFFCURVE",
"580 119 OFFCURVE",
"580 308 CURVE",
"516 309 LINE",
"516 153 OFFCURVE",
"410 43 OFFCURVE",
"261 43 CURVE SMOOTH",
"181 43 OFFCURVE",
"124 94 OFFCURVE",
"124 167 CURVE SMOOTH",
"124 246 OFFCURVE",
"175 284 OFFCURVE",
"226 319 CURVE SMOOTH",
"300 370 LINE SMOOTH",
"378 424 OFFCURVE",
"449 484 OFFCURVE",
"449 563 CURVE SMOOTH",
"449 654 OFFCURVE",
"376 715 OFFCURVE",
"282 715 CURVE SMOOTH",
"194 715 OFFCURVE",
"125 650 OFFCURVE",
"125 565 CURVE SMOOTH",
"125 507 OFFCURVE",
"162 462 OFFCURVE",
"205 410 CURVE",
"318 274 LINE",
"545 0 LINE",
"627 0 LINE",
"375 306 LINE",
"256 449 LINE SMOOTH",
"217 496 OFFCURVE",
"189 523 OFFCURVE",
"189 565 CURVE SMOOTH",
"189 616 OFFCURVE",
"231 657 OFFCURVE",
"282 657 CURVE SMOOTH",
"342 657 OFFCURVE",
"385 620 OFFCURVE",
"385 563 CURVE SMOOTH",
"385 501 OFFCURVE",
"323 459 OFFCURVE",
"266 420 CURVE SMOOTH",
"191 368 LINE SMOOTH",
"120 319 OFFCURVE",
"60 261 OFFCURVE",
"60 167 CURVE SMOOTH",
"60 60 OFFCURVE",
"144 -15 OFFCURVE",
"261 -15 CURVE SMOOTH"
);
}
);
width = 642;
},
{
background = {
backgroundImage = {
imagePath = "../../../Desktop/Screen Shot 2021-05-24 at 9.37.48 AM.png";
transform = "{4.9751, 0, 0, 4.9751, 20, -37}";
};
};
guideLines = (
{
angle = 129.651;
position = "{477, -15}";
},
{
angle = 129.651;
position = "{679, -15}";
},
{
angle = 34.651;
position = "{0, 255}";
},
{
angle = 34.651;
position = "{-1, 75}";
}
);
layerId = "747A0BA5-337F-45E8-9896-B2CAF0968805";
paths = (
{
closed = 1;
nodes = (
"477 -12 OFFCURVE",
"637 116 OFFCURVE",
"637 297 CURVE",
"475 297 LINE",
"475 183 OFFCURVE",
"352 136 OFFCURVE",
"263 136 CURVE SMOOTH",
"234 136 OFFCURVE",
"214 156 OFFCURVE",
"214 184 CURVE SMOOTH",
"214 205 OFFCURVE",
"224 230 OFFCURVE",
"244 244 CURVE SMOOTH",
"313 292 LINE SMOOTH",
"454 390 OFFCURVE",
"515 446 OFFCURVE",
"515 530 CURVE SMOOTH",
"515 637 OFFCURVE",
"421 712 OFFCURVE",
"287 712 CURVE SMOOTH",
"166 712 OFFCURVE",
"71 639 OFFCURVE",
"71 537 CURVE SMOOTH",
"71 498 OFFCURVE",
"84 461 OFFCURVE",
"149 380 CURVE",
"307 188 LINE",
"465 0 LINE",
"667 0 LINE",
"426 290 LINE",
"284 461 LINE",
"264 488 OFFCURVE",
"241 506 OFFCURVE",
"241 535 CURVE SMOOTH",
"241 560 OFFCURVE",
"264 575 OFFCURVE",
"297 575 CURVE SMOOTH",
"327 575 OFFCURVE",
"352 561 OFFCURVE",
"352 535 CURVE SMOOTH",
"352 492 OFFCURVE",
"307 467 OFFCURVE",
"294 458 CURVE SMOOTH",
"125 342 LINE SMOOTH",
"67 302 OFFCURVE",
"30 240 OFFCURVE",
"30 179 CURVE SMOOTH",
"30 67 OFFCURVE",
"121 -12 OFFCURVE",
"249 -12 CURVE SMOOTH"
);
}
);
width = 651;
}
);
leftMetricsKey = eight;
unicode = 0026;
},
{
glyphname = degree;
lastChange = "2021-05-24 17:20:27 +0000";
layers = (
{
layerId = m01;
paths = (
{
closed = 1;
nodes = (
"254 450 OFFCURVE",
"315 512 OFFCURVE",
"315 585 CURVE SMOOTH",
"315 656 OFFCURVE",
"254 715 OFFCURVE",
"182 715 CURVE SMOOTH",
"110 715 OFFCURVE",
"50 656 OFFCURVE",
"50 585 CURVE SMOOTH",
"50 512 OFFCURVE",
"110 450 OFFCURVE",
"182 450 CURVE SMOOTH"
);
},
{
closed = 1;
nodes = (
"143 505 OFFCURVE",
"110 542 OFFCURVE",
"110 585 CURVE SMOOTH",
"110 626 OFFCURVE",
"143 660 OFFCURVE",
"182 660 CURVE SMOOTH",
"222 660 OFFCURVE",
"255 626 OFFCURVE",
"255 585 CURVE SMOOTH",
"255 542 OFFCURVE",
"222 505 OFFCURVE",
"182 505 CURVE SMOOTH"
);
}
);
width = 365;
},
{
layerId = "747A0BA5-337F-45E8-9896-B2CAF0968805";
paths = (
{
closed = 1;
nodes = (
"281 403 OFFCURVE",
"357 472 OFFCURVE",
"357 561 CURVE SMOOTH",
"357 648 OFFCURVE",
"281 716 OFFCURVE",
"193 716 CURVE SMOOTH",
"106 716 OFFCURVE",
"30 648 OFFCURVE",
"30 561 CURVE SMOOTH",
"30 473 OFFCURVE",
"105 403 OFFCURVE",
"193 403 CURVE SMOOTH"
);
},
{
closed = 1;
nodes = (
"170 513 OFFCURVE",
"150 535 OFFCURVE",
"150 561 CURVE SMOOTH",
"150 586 OFFCURVE",
"170 606 OFFCURVE",
"193 606 CURVE SMOOTH",
"217 606 OFFCURVE",
"237 586 OFFCURVE",
"237 561 CURVE SMOOTH",
"237 535 OFFCURVE",
"217 513 OFFCURVE",
"193 513 CURVE SMOOTH"
);
}
);
width = 387;
}
);
unicode = 00B0;
},
{
glyphname = bar;
lastChange = "2021-05-24 17:23:16 +0000";
layers = (
{
layerId = m01;
paths = (
{
closed = 1;
nodes = (
"155 -220 LINE",
"158 790 LINE",
"102 790 LINE",
"100 -220 LINE"
);
}
);
width = 258;
},
{
layerId = "747A0BA5-337F-45E8-9896-B2CAF0968805";
paths = (
{
closed = 1;
nodes = (
"203 -220 LINE",
"210 790 LINE",
"75 790 LINE",
"70 -220 LINE"
);
}
);
width = 280;
}
);
leftMetricsKey = I;
rightMetricsKey = I;
unicode = 007C;
},
{
glyphname = dollar;
lastChange = "2021-08-02 05:30:13 +0000";
layers = (
{
layerId = m01;
paths = (
{
closed = 1;
nodes = (
"485 -16 OFFCURVE",
"579 59 OFFCURVE",
"579 187 CURVE SMOOTH",
"579 282 OFFCURVE",
"494 355 OFFCURVE",
"349 384 CURVE SMOOTH",
"220 410 OFFCURVE",
"143 461 OFFCURVE",
"143 522 CURVE SMOOTH",
"143 608 OFFCURVE",
"208 659 OFFCURVE",
"318 659 CURVE SMOOTH",
"394 659 OFFCURVE",
"472 615 OFFCURVE",
"528 540 CURVE",
"579 574 LINE",
"519 663 OFFCURVE",
"426 716 OFFCURVE",
"330 716 CURVE SMOOTH",
"172 716 OFFCURVE",
"79 641 OFFCURVE",
"79 513 CURVE SMOOTH",
"79 424 OFFCURVE",
"170 355 OFFCURVE",
"323 327 CURVE SMOOTH",
"444 305 OFFCURVE",
"515 250 OFFCURVE",
"515 178 CURVE SMOOTH",
"515 91 OFFCURVE",
"439 40 OFFCURVE",
"311 40 CURVE SMOOTH",
"229 40 OFFCURVE",
"151 85 OFFCURVE",
"99 161 CURVE",
"50 123 LINE",
"109 36 OFFCURVE",
"212 -16 OFFCURVE",
"326 -16 CURVE SMOOTH"
);
},
{
closed = 1;
nodes = (
"346 -103 LINE",
"349 780 LINE",
"293 780 LINE",
"291 -103 LINE"
);
}
);
width = 634;
},
{
layerId = "747A0BA5-337F-45E8-9896-B2CAF0968805";
paths = (
{
closed = 1;
nodes = (
"504 -16 OFFCURVE",
"608 71 OFFCURVE",
"608 217 CURVE SMOOTH",
"608 323 OFFCURVE",
"512 405 OFFCURVE",
"350 438 CURVE SMOOTH",
"292 449 OFFCURVE",
"258 468 OFFCURVE",
"258 490 CURVE SMOOTH",
"258 520 OFFCURVE",
"285 538 OFFCURVE",
"331 538 CURVE SMOOTH",
"390 538 OFFCURVE",
"439 518 OFFCURVE",
"463 483 CURVE",
"614 583 LINE",
"552 668 OFFCURVE",
"451 718 OFFCURVE",
"343 718 CURVE SMOOTH",
"168 718 OFFCURVE",
"65 640 OFFCURVE",
"65 508 CURVE SMOOTH",
"65 386 OFFCURVE",
"161 296 OFFCURVE",
"324 266 CURVE SMOOTH",
"383 254 OFFCURVE",
"418 236 OFFCURVE",
"418 217 CURVE SMOOTH",
"418 184 OFFCURVE",
"386 164 OFFCURVE",
"332 164 CURVE SMOOTH",
"263 164 OFFCURVE",
"210 190 OFFCURVE",
"190 234 CURVE",
"40 131 LINE",
"101 39 OFFCURVE",
"208 -16 OFFCURVE",
"327 -16 CURVE SMOOTH"
);
},
{
closed = 1;
nodes = (
"367 -103 LINE",
"391 790 LINE",
"307 790 LINE",
"285 -103 LINE"
);
}
);
width = 644;
}
);
leftMetricsKey = S;
rightMetricsKey = S;
unicode = 0024;
},
{
glyphname = plus;
lastChange = "2021-08-02 04:21:10 +0000";
layers = (
{
layerId = m01;
paths = (
{
closed = 1;
nodes = (
"304 73 LINE",
"304 523 LINE",
"247 523 LINE",
"247 73 LINE"
);
},
{
closed = 1;
nodes = (
"500 269 LINE",
"500 326 LINE",
"50 326 LINE",
"50 269 LINE"
);
}
);
width = 550;
},
{
layerId = "747A0BA5-337F-45E8-9896-B2CAF0968805";
paths = (
{
closed = 1;
nodes = (
"345 63 LINE",
"345 533 LINE",
"205 533 LINE",
"205 63 LINE"
);
},
{
closed = 1;
nodes = (
"510 228 LINE",
"510 368 LINE",
"40 368 LINE",
"40 228 LINE"
);
}
);
width = 550;
}
);
unicode = 002B;
},
{
glyphname = equal;
lastChange = "2021-08-02 04:21:10 +0000";
layers = (
{
layerId = m01;
paths = (
{
closed = 1;
nodes = (
"520 369 LINE",
"520 426 LINE",
"120 426 LINE",
"120 369 LINE"
);
},
{
closed = 1;
nodes = (
"520 169 LINE",
"520 226 LINE",
"120 226 LINE",
"120 169 LINE"
);
}
);
width = 640;
},
{
layerId = "747A0BA5-337F-45E8-9896-B2CAF0968805";
paths = (
{
closed = 1;
nodes = (
"480 328 LINE",
"480 467 LINE",
"80 467 LINE",
"80 328 LINE"
);
},
{
closed = 1;
nodes = (
"480 128 LINE",
"480 267 LINE",
"80 267 LINE",
"80 128 LINE"
);
}
);
width = 560;
}
);
unicode = 003D;
},
{
glyphname = greater;
lastChange = "2021-08-02 04:21:10 +0000";
layers = (
{
background = {
paths = (
{
closed = 1;
nodes = (
"90 369 LINE",
"490 369 LINE",
"490 426 LINE",
"90 426 LINE"
);
},
{
closed = 1;
nodes = (
"90 169 LINE",
"490 169 LINE",
"490 226 LINE",
"90 226 LINE"
);
},
{
closed = 0;
nodes = (
"90 299 LINE",
"488 299 LINE"
);
}
);
};
layerId = m01;
paths = (
{
closed = 1;
nodes = (
"421 266 LINE",
"421 332 LINE",
"90 169 LINE",
"90 107 LINE"
);
},
{
closed = 1;
nodes = (
"421 332 LINE",
"90 489 LINE",
"90 426 LINE",
"421 266 LINE"
);
}
);
width = 521;
},
{
background = {
paths = (
{
closed = 1;
nodes = (
"60 328 LINE",
"460 328 LINE",
"460 467 LINE",
"60 467 LINE"
);
},
{
closed = 1;
nodes = (
"60 128 LINE",
"460 128 LINE",
"460 267 LINE",
"60 267 LINE"
);
}
);
};
layerId = "747A0BA5-337F-45E8-9896-B2CAF0968805";
paths = (
{
closed = 1;
nodes = (
"471 229 LINE",
"471 364 LINE",
"70 217 LINE",
"70 60 LINE"
);
},
{
closed = 1;
nodes = (
"471 369 LINE",
"70 536 LINE",
"70 379 LINE",
"471 234 LINE"
);
}
);
width = 521;
}
);
unicode = 003E;
},
{
glyphname = asciitilde;
lastChange = "2021-08-11 21:16:26 +0000";
layers = (
{
layerId = m01;
paths = (
{
closed = 1;
nodes = (
"257 370 OFFCURVE",
"221 396 OFFCURVE",
"177 396 CURVE SMOOTH",
"109 396 OFFCURVE",
"65 335 OFFCURVE",
"60 265 CURVE",
"114 265 LINE",
"123 310 OFFCURVE",
"142 339 OFFCURVE",
"177 339 CURVE SMOOTH",
"195 339 OFFCURVE",
"215 326 OFFCURVE",
"247 290 CURVE SMOOTH",
"274 259 OFFCURVE",
"302 237 OFFCURVE",
"351 237 CURVE SMOOTH",
"420 237 OFFCURVE",
"461 296 OFFCURVE",
"469 368 CURVE",
"414 368 LINE",
"406 324 OFFCURVE",
"387 294 OFFCURVE",
"351 294 CURVE SMOOTH",
"327 294 OFFCURVE",
"302 322 OFFCURVE",
"284 341 CURVE SMOOTH"
);
}
);
width = 529;
},
{
background = {
paths = (
{
closed = 1;
nodes = (
"424 421 OFFCURVE",
"346 493 OFFCURVE",
"250 493 CURVE SMOOTH",
"139 493 OFFCURVE",
"60 408 OFFCURVE",
"60 288 CURVE",
"180 288 LINE",
"180 338 OFFCURVE",
"209 373 OFFCURVE",
"250 373 CURVE SMOOTH",
"286 373 OFFCURVE",
"314 350 OFFCURVE",
"318 318 CURVE SMOOTH",
"332 215 OFFCURVE",
"410 143 OFFCURVE",
"506 143 CURVE SMOOTH",
"617 143 OFFCURVE",
"696 228 OFFCURVE",
"696 348 CURVE",
"576 348 LINE",
"576 298 OFFCURVE",
"547 263 OFFCURVE",
"506 263 CURVE SMOOTH",
"470 263 OFFCURVE",
"442 286 OFFCURVE",
"438 318 CURVE SMOOTH"
);
}
);
};
layerId = "747A0BA5-337F-45E8-9896-B2CAF0968805";
paths = (
{
closed = 1;
nodes = (
"433 426 OFFCURVE",
"351 503 OFFCURVE",
"250 503 CURVE SMOOTH",
"133 503 OFFCURVE",
"50 414 OFFCURVE",
"50 288 CURVE",
"190 288 LINE",
"190 332 OFFCURVE",
"215 363 OFFCURVE",
"250 363 CURVE SMOOTH",
"281 363 OFFCURVE",
"305 344 OFFCURVE",
"308 318 CURVE SMOOTH",
"323 210 OFFCURVE",
"405 133 OFFCURVE",
"506 133 CURVE SMOOTH",
"623 133 OFFCURVE",
"706 222 OFFCURVE",
"706 348 CURVE",
"566 348 LINE",
"566 304 OFFCURVE",
"541 273 OFFCURVE",
"506 273 CURVE SMOOTH",
"475 273 OFFCURVE",
"451 292 OFFCURVE",
"448 318 CURVE SMOOTH"
);
}
);
width = 756;
}
);
leftMetricsKey = hyphen;
rightMetricsKey = hyphen;
unicode = 007E;
},
{
glyphname = asciicircum;
lastChange = "2021-08-02 04:21:10 +0000";
layers = (
{
layerId = m01;
paths = (
{
closed = 1;
nodes = (
"459 373 LINE",
"302 700 LINE",
"235 700 LINE",
"397 373 LINE"
);
},
{
closed = 1;
nodes = (
"143 373 LINE",
"301 700 LINE",
"235 700 LINE",
"80 373 LINE"
);
}
);
width = 539;
},
{
layerId = "747A0BA5-337F-45E8-9896-B2CAF0968805";
paths = (
{
closed = 1;
nodes = (
"539 373 LINE",
"382 700 LINE",
"225 700 LINE",
"387 373 LINE"
);
},
{
closed = 1;
nodes = (
"223 373 LINE",
"381 700 LINE",
"225 700 LINE",
"70 373 LINE"
);
}
);
width = 609;
}
);
unicode = 005E;
},
{
glyphname = percent;
lastChange = "2021-08-11 22:05:21 +0000";
layers = (
{
background = {
paths = (
{
closed = 1;
nodes = (
"108 0 LINE",
"172 0 LINE",
"172 700 LINE",
"108 700 LINE"
);
},
{
closed = 1;
nodes = (
"596 0 LINE",
"660 0 LINE",
"660 700 LINE",
"596 700 LINE"
);
},
{
closed = 1;
nodes = (
"172 332 LINE",
"596 332 LINE",
"596 390 LINE",
"172 390 LINE"
);
}
);
};
layerId = m01;
paths = (
{
closed = 1;
nodes = (
"175 0 LINE",
"675 700 LINE",
"597 700 LINE",
"100 0 LINE"
);
},
{
closed = 1;
nodes = (
"293 390 OFFCURVE",
"356 458 OFFCURVE",
"356 553 CURVE SMOOTH",
"356 648 OFFCURVE",
"293 716 OFFCURVE",
"203 716 CURVE SMOOTH",
"113 716 OFFCURVE",
"50 648 OFFCURVE",
"50 553 CURVE SMOOTH",
"50 458 OFFCURVE",
"113 390 OFFCURVE",
"203 390 CURVE SMOOTH"
);
},
{
closed = 1;
nodes = (
"145 450 OFFCURVE",
"104 493 OFFCURVE",
"104 553 CURVE SMOOTH",
"104 613 OFFCURVE",
"145 656 OFFCURVE",
"203 656 CURVE SMOOTH",
"261 656 OFFCURVE",
"302 613 OFFCURVE",
"302 553 CURVE SMOOTH",
"302 493 OFFCURVE",
"261 450 OFFCURVE",
"203 450 CURVE SMOOTH"
);
},
{
closed = 1;
nodes = (
"662 -16 OFFCURVE",
"725 52 OFFCURVE",
"725 147 CURVE SMOOTH",
"725 242 OFFCURVE",
"662 310 OFFCURVE",
"572 310 CURVE SMOOTH",
"482 310 OFFCURVE",
"419 242 OFFCURVE",
"419 147 CURVE SMOOTH",
"419 52 OFFCURVE",
"482 -16 OFFCURVE",
"572 -16 CURVE SMOOTH"
);
},
{
closed = 1;
nodes = (
"514 44 OFFCURVE",
"473 87 OFFCURVE",
"473 147 CURVE SMOOTH",
"473 207 OFFCURVE",
"514 250 OFFCURVE",
"572 250 CURVE SMOOTH",
"630 250 OFFCURVE",
"671 207 OFFCURVE",
"671 147 CURVE SMOOTH",
"671 87 OFFCURVE",
"630 44 OFFCURVE",
"572 44 CURVE SMOOTH"
);
}
);
width = 775;
},
{
background = {
paths = (
{
closed = 1;
nodes = (
"101 0 LINE",
"291 -1 LINE",
"291 699 LINE",
"101 700 LINE"
);
},
{
closed = 1;
nodes = (
"539 0 LINE",
"729 0 LINE",
"729 700 LINE",
"539 700 LINE"
);
},
{
closed = 1;
nodes = (
"228 276 LINE",
"652 276 LINE",
"652 446 LINE",
"228 446 LINE"
);
}
);
};
layerId = "747A0BA5-337F-45E8-9896-B2CAF0968805";
paths = (
{
closed = 1;
nodes = (
"248 0 LINE",
"748 700 LINE",
"580 700 LINE",
"83 0 LINE"
);
},
{
closed = 1;
nodes = (
"303 356 OFFCURVE",
"373 431 OFFCURVE",
"373 536 CURVE SMOOTH",
"373 641 OFFCURVE",
"303 716 OFFCURVE",
"204 716 CURVE SMOOTH",
"105 716 OFFCURVE",
"35 641 OFFCURVE",
"35 536 CURVE SMOOTH",
"35 431 OFFCURVE",
"105 356 OFFCURVE",
"204 356 CURVE SMOOTH"
);
},
{
closed = 1;
nodes = (
"169 474 OFFCURVE",
"146 501 OFFCURVE",
"146 536 CURVE SMOOTH",
"146 571 OFFCURVE",
"169 598 OFFCURVE",
"204 598 CURVE SMOOTH",
"239 598 OFFCURVE",
"262 571 OFFCURVE",
"262 536 CURVE SMOOTH",
"262 501 OFFCURVE",
"239 474 OFFCURVE",
"204 474 CURVE SMOOTH"
);
},
{
closed = 1;
nodes = (
"733 -15 OFFCURVE",
"803 60 OFFCURVE",
"803 165 CURVE SMOOTH",
"803 270 OFFCURVE",
"733 345 OFFCURVE",
"634 345 CURVE SMOOTH",
"535 345 OFFCURVE",
"465 270 OFFCURVE",
"465 165 CURVE SMOOTH",
"465 60 OFFCURVE",
"535 -15 OFFCURVE",
"634 -15 CURVE SMOOTH"
);
},
{
closed = 1;
nodes = (
"599 103 OFFCURVE",
"576 130 OFFCURVE",
"576 165 CURVE SMOOTH",
"576 200 OFFCURVE",
"599 227 OFFCURVE",
"634 227 CURVE SMOOTH",
"669 227 OFFCURVE",
"692 200 OFFCURVE",
"692 165 CURVE SMOOTH",
"692 130 OFFCURVE",
"669 103 OFFCURVE",
"634 103 CURVE SMOOTH"
);
}
);
width = 838;
}
);
unicode = 0025;
},
{
glyphname = rightArrow;
lastChange = "2021-08-11 05:53:13 +0000";
layers = (
{
layerId = m01;
paths = (
{
closed = 1;
nodes = (
"680 297 LINE",
"372 551 LINE",
"338 507 LINE",
"620 269 LINE"
);
},
{
closed = 1;
nodes = (
"620 269 LINE",
"620 326 LINE",
"70 326 LINE",
"70 269 LINE"
);
},
{
closed = 1;
nodes = (
"680 297 LINE",
"620 326 LINE",
"338 88 LINE",
"372 44 LINE"
);
}
);
width = 740;
},
{
layerId = "747A0BA5-337F-45E8-9896-B2CAF0968805";
paths = (
{
closed = 1;
nodes = (
"703 297 LINE",
"434 592 LINE",
"326 486 LINE",
"567 217 LINE"
);
},
{
closed = 1;
nodes = (
"610 223 LINE",
"610 373 LINE",
"60 373 LINE",
"60 223 LINE"
);
},
{
closed = 1;
nodes = (
"703 297 LINE",
"568 381 LINE",
"322 115 LINE",
"428 8 LINE"
);
}
);
width = 758;
}
);
unicode = 2192;
},
{
glyphname = dieresiscomb;
lastChange = "2021-08-11 21:28:27 +0000";
layers = (
{
anchors = (
{
name = _top;
position = "{135, 500}";
},
{
name = top;
position = "{135, 710}";
}
);
layerId = m01;
paths = (
{
closed = 1;
nodes = (
"36 630 OFFCURVE",
"54 648 OFFCURVE",
"54 670 CURVE SMOOTH",
"54 692 OFFCURVE",
"36 710 OFFCURVE",
"14 710 CURVE SMOOTH",
"-8 710 OFFCURVE",
"-26 692 OFFCURVE",
"-26 670 CURVE SMOOTH",
"-26 648 OFFCURVE",
"-8 630 OFFCURVE",
"14 630 CURVE SMOOTH"
);
},
{
closed = 1;
nodes = (
"278 630 OFFCURVE",
"296 648 OFFCURVE",
"296 670 CURVE SMOOTH",
"296 692 OFFCURVE",
"278 710 OFFCURVE",
"256 710 CURVE SMOOTH",
"234 710 OFFCURVE",
"216 692 OFFCURVE",
"216 670 CURVE SMOOTH",
"216 648 OFFCURVE",
"234 630 OFFCURVE",
"256 630 CURVE SMOOTH"
);
}
);
width = 270;
},
{
anchors = (
{
name = _top;
position = "{280, 500}";
},
{
name = top;
position = "{280, 748}";
}
);
layerId = "747A0BA5-337F-45E8-9896-B2CAF0968805";
paths = (
{
closed = 1;
nodes = (
"193 569 OFFCURVE",
"233 609 OFFCURVE",
"233 657 CURVE SMOOTH",
"233 705 OFFCURVE",
"193 745 OFFCURVE",
"145 745 CURVE SMOOTH",
"97 745 OFFCURVE",
"57 705 OFFCURVE",
"57 657 CURVE SMOOTH",
"57 609 OFFCURVE",
"97 569 OFFCURVE",
"145 569 CURVE SMOOTH"
);
},
{
closed = 1;
nodes = (
"462 569 OFFCURVE",
"503 610 OFFCURVE",
"503 657 CURVE SMOOTH",
"503 704 OFFCURVE",
"462 745 OFFCURVE",
"415 745 CURVE SMOOTH",
"368 745 OFFCURVE",
"327 704 OFFCURVE",
"327 657 CURVE SMOOTH",
"327 610 OFFCURVE",
"368 569 OFFCURVE",
"415 569 CURVE SMOOTH"
);
}
);
width = 600;
}
);
unicode = 0308;
},
{
glyphname = acutecomb;
lastChange = "2021-08-02 04:21:10 +0000";
layers = (
{
anchors = (
{
name = _top;
position = "{289, 500}";
},
{
name = top;
position = "{289, 500}";
}
);
layerId = m01;
paths = (
{
closed = 1;
nodes = (
"414 708 LINE",
"374 753 LINE",
"231 627 LINE",
"266 586 LINE"
);
}
);
width = 600;
},
{
anchors = (
{
name = _top;
position = "{290, 500}";
},
{
name = top;
position = "{290, 500}";
}
);
layerId = "747A0BA5-337F-45E8-9896-B2CAF0968805";
paths = (
{
closed = 1;
nodes = (
"475 685 LINE",
"394 789 LINE",
"224 635 LINE",
"283 559 LINE"
);
}
);
width = 600;
}
);
unicode = 0301;
},
{
glyphname = tildecomb;
lastChange = "2021-08-11 21:45:10 +0000";
layers = (
{
anchors = (
{
name = _top;
position = "{247, 500}";
},
{
name = top;
position = "{247, 723}";
}
);
layerId = m01;
paths = (
{
closed = 1;
nodes = (
"279 678 OFFCURVE",
"248 700 OFFCURVE",
"212 700 CURVE SMOOTH",
"157 700 OFFCURVE",
"121 651 OFFCURVE",
"117 607 CURVE",
"172 607 LINE",
"178 633 OFFCURVE",
"188 644 OFFCURVE",
"212 644 CURVE SMOOTH",
"222 644 OFFCURVE",
"237 642 OFFCURVE",
"245 626 CURVE SMOOTH",
"261 596 OFFCURVE",
"292 572 OFFCURVE",
"329 572 CURVE SMOOTH",
"383 572 OFFCURVE",
"416 620 OFFCURVE",
"422 666 CURVE",
"367 666 LINE",
"363 640 OFFCURVE",
"353 628 OFFCURVE",
"329 628 CURVE SMOOTH",
"314 628 OFFCURVE",
"303 632 OFFCURVE",
"295 648 CURVE SMOOTH"
);
}
);
width = 600;
},
{
anchors = (
{
name = _top;
position = "{270, 500}";
},
{
name = top;
position = "{270, 700}";
}
);
annotations = (
{
position = "{271.017, 686.996}";
type = Text;
}
);
background = {
paths = (
{
closed = 1;
nodes = (
"274 558 OFFCURVE",
"310 540 OFFCURVE",
"361 540 CURVE SMOOTH",
"422 540 OFFCURVE",
"477 592 OFFCURVE",
"487 684 CURVE",
"381 684 LINE",
"378 662 OFFCURVE",
"370 645 OFFCURVE",
"350 645 CURVE SMOOTH",
"325 645 OFFCURVE",
"319 677 OFFCURVE",
"300 700 CURVE SMOOTH",
"273 732 OFFCURVE",
"238 737 OFFCURVE",
"197 737 CURVE SMOOTH",
"126 737 OFFCURVE",
"81 684 OFFCURVE",
"71 586 CURVE",
"177 586 LINE",
"183 621 OFFCURVE",
"199 625 OFFCURVE",
"207 625 CURVE SMOOTH",
"227 625 OFFCURVE",
"228 595 OFFCURVE",
"256 572 CURVE SMOOTH"
);
}
);
};
layerId = "747A0BA5-337F-45E8-9896-B2CAF0968805";
paths = (
{
closed = 1;
nodes = (
"294 716 OFFCURVE",
"264 737 OFFCURVE",
"197 737 CURVE SMOOTH",
"130 737 OFFCURVE",
"81 685 OFFCURVE",
"71 592 CURVE",
"177 592 LINE",
"180 614 OFFCURVE",
"188 631 OFFCURVE",
"208 631 CURVE SMOOTH",
"233 631 OFFCURVE",
"239 599 OFFCURVE",
"258 576 CURVE SMOOTH",
"285 544 OFFCURVE",
"320 539 OFFCURVE",
"361 539 CURVE SMOOTH",
"432 539 OFFCURVE",
"477 586 OFFCURVE",
"487 684 CURVE",
"381 684 LINE",
"375 649 OFFCURVE",
"362 645 OFFCURVE",
"351 645 CURVE SMOOTH",
"334 645 OFFCURVE",
"322 662 OFFCURVE",
"310 685 CURVE SMOOTH"
);
}
);
width = 600;
}
);
unicode = 0303;
},
{
glyphname = grave;
lastChange = "2021-08-02 04:21:10 +0000";
layers = (
{
background = {
paths = (
{
closed = 1;
nodes = (
"451 0 LINE",
"451 272 LINE SMOOTH",
"451 436 OFFCURVE",
"384 516 OFFCURVE",
"246 516 CURVE",
"176 516 OFFCURVE",
"117 489 OFFCURVE",
"68 434 CURVE",
"103 395 LINE",
"147 439 OFFCURVE",
"194 461 OFFCURVE",
"246 461 CURVE SMOOTH",
"338 461 OFFCURVE",
"386 399 OFFCURVE",
"391 272 CURVE SMOOTH",
"401 0 LINE"
);
},
{
closed = 1;
nodes = (
"371 -16 OFFCURVE",
"447 75 OFFCURVE",
"447 214 CURVE",
"392 214 LINE",
"392 110 OFFCURVE",
"335 39 OFFCURVE",
"238 39 CURVE SMOOTH",
"154 39 OFFCURVE",
"105 77 OFFCURVE",
"105 141 CURVE",
"105 211 OFFCURVE",
"159 252 OFFCURVE",
"250 252 CURVE SMOOTH",
"299 252 OFFCURVE",
"355 236 OFFCURVE",
"401 209 CURVE",
"415 264 LINE",
"376 291 OFFCURVE",
"312 307 OFFCURVE",
"242 307 CURVE SMOOTH",
"118 307 OFFCURVE",
"45 245 OFFCURVE",
"45 141 CURVE SMOOTH",
"45 42 OFFCURVE",
"118 -16 OFFCURVE",
"242 -16 CURVE SMOOTH"
);
}
);
};
layerId = m01;
paths = (
{
closed = 1;
nodes = (
"353 627 LINE",
"210 753 LINE",
"170 708 LINE",
"318 586 LINE"
);
}
);
width = 523;
},
{
layerId = "747A0BA5-337F-45E8-9896-B2CAF0968805";
paths = (
{
closed = 1;
nodes = (
"405 635 LINE",
"243 775 LINE",
"175 690 LINE",
"352 567 LINE"
);
}
);
width = 549;
}
);
unicode = 0060;
},
{
glyphname = Bowl;
lastChange = "2021-08-02 04:20:55 +0000";
layers = (
{
layerId = m01;
paths = (
{
closed = 1;
nodes = (
"398 -12 OFFCURVE",
"487 97 OFFCURVE",
"487 250 CURVE SMOOTH",
"487 403 OFFCURVE",
"398 512 OFFCURVE",
"271 512 CURVE SMOOTH",
"139 512 OFFCURVE",
"45 403 OFFCURVE",
"45 250 CURVE SMOOTH",
"45 97 OFFCURVE",
"139 -12 OFFCURVE",
"271 -12 CURVE SMOOTH"
);
},
{
closed = 1;
nodes = (
"179 42 OFFCURVE",
"105 128 OFFCURVE",
"105 250 CURVE SMOOTH",
"105 372 OFFCURVE",
"178 458 OFFCURVE",
"282 458 CURVE SMOOTH",
"379 458 OFFCURVE",
"447 372 OFFCURVE",
"447 250 CURVE SMOOTH",
"447 128 OFFCURVE",
"379 42 OFFCURVE",
"283 42 CURVE SMOOTH"
);
}
);
width = 582;
},
{
layerId = "747A0BA5-337F-45E8-9896-B2CAF0968805";
paths = (
{
closed = 1;
nodes = (
"361 -12 OFFCURVE",
"419 85 OFFCURVE",
"419 250 CURVE SMOOTH",
"419 415 OFFCURVE",
"361 512 OFFCURVE",
"237 512 CURVE SMOOTH",
"95 512 OFFCURVE",
"11 415 OFFCURVE",
"11 250 CURVE SMOOTH",
"11 85 OFFCURVE",
"95 -12 OFFCURVE",
"237 -12 CURVE SMOOTH"
);
},
{
closed = 1;
nodes = (
"236 154 OFFCURVE",
"200 194 OFFCURVE",
"199 250 CURVE SMOOTH",
"200 306 OFFCURVE",
"235 345 OFFCURVE",
"284 345 CURVE SMOOTH",
"335 345 OFFCURVE",
"371 306 OFFCURVE",
"371 250 CURVE SMOOTH",
"371 194 OFFCURVE",
"335 154 OFFCURVE",
"285 154 CURVE SMOOTH"
);
}
);
width = 585;
}
);
},
{
glyphname = arch;
lastChange = "2021-08-02 04:21:10 +0000";
layers = (
{
layerId = m01;
paths = (
{
closed = 1;
nodes = (
"396 286 LINE",
"397 438 OFFCURVE",
"318 512 OFFCURVE",
"198 512 CURVE SMOOTH",
"69 512 OFFCURVE",
"0 417 OFFCURVE",
"0 257 CURVE",
"37 257 LINE",
"37 382 OFFCURVE",
"93 456 OFFCURVE",
"188 456 CURVE SMOOTH",
"271 456 OFFCURVE",
"336 422 OFFCURVE",
"336 256 CURVE"
);
}
